<svg xmlns="http://www.w3.org/2000/svg" width="97.625" height="76" viewBox="0 0 97.625 76"><defs><style>.a{fill:#e26777;}.b{fill:#fff;}</style></defs><ellipse class="a" cx="16.131" cy="10.364" rx="16.131" ry="10.364" transform="translate(31.141 27.636)"/><path class="b" d="M204.791,202.553h-3.024V200.61c0-1.073-1.355-1.943-3.024-1.943s-3.024.871-3.024,1.943v1.943h-3.024c-1.669,0-3.024.871-3.024,1.943s1.355,1.943,3.024,1.943h3.024v1.943c0,1.073,1.355,1.943,3.024,1.943s3.024-.871,3.024-1.943V206.44h3.024c1.67,0,3.024-.871,3.024-1.943S206.461,202.553,204.791,202.553Z" transform="translate(-151.471 -166.496)"/><g transform="translate(4.493 1.899)"><g transform="translate(0 0)"><ellipse class="a" cx="6.696" cy="5.263" rx="6.696" ry="5.263" transform="translate(0 56.839)"/><ellipse class="a" cx="6.696" cy="5.263" rx="6.696" ry="5.263" transform="translate(77.669 12)"/></g></g><path d="M138.622,18.136c0-3.215-3.939-5.828-8.872-6.011a10.08,10.08,0,0,0-.815-.627c-4.815-3.094-12.929-3.581-23.061-1.472C101.1,3.795,94.7,0,87.542,0,80.318,0,73.866,3.86,69.083,10.194c-10.469-2.283-18.865-1.86-23.793,1.3-7.829,5.03-4.468,15.632,7.143,26.875a52.89,52.89,0,0,0-8.143,9.718C40.6,54.024,40.024,59.026,42.5,62.581a4.182,4.182,0,0,0-.664,2.192c0,3.334,4.221,6.045,9.409,6.045a11.222,11.222,0,0,0,7.985-2.886,62.021,62.021,0,0,0,10.34-1.5C74.3,72.392,80.563,76,87.542,76c6.915,0,13.122-3.539,17.838-9.4a56.6,56.6,0,0,0,11.711,1.4c4.939,0,8.974-.924,11.845-2.769,5.377-3.454,5.734-9.545,1-17.148a52.9,52.9,0,0,0-8.143-9.718c5.31-5.14,8.867-10.139,10.442-14.54C135.937,23.019,138.622,20.786,138.622,18.136Zm-5.377,0c0,1.428-1.809,2.591-4.033,2.591s-4.033-1.163-4.033-2.591,1.809-2.591,4.033-2.591S133.246,16.708,133.246,18.136ZM108,27.415c-.629-.42-1.234-.845-1.879-1.259A130.2,130.2,0,0,0,91.83,18.221,98.877,98.877,0,0,1,103.062,14.4,41.219,41.219,0,0,1,108,27.415Zm.807,5.686c.14,1.591.239,3.213.239,4.9a54.854,54.854,0,0,1-.323,5.7c-1.992,1.477-4.1,2.961-6.407,4.443a124.685,124.685,0,0,1-15.208,8.322A124.635,124.635,0,0,1,71.9,48.139c-1.955-1.256-3.75-2.51-5.479-3.762A54.727,54.727,0,0,1,66.035,38a54.813,54.813,0,0,1,.309-5.574c1.774-1.292,3.61-2.575,5.56-3.828a124.686,124.686,0,0,1,15.208-8.322A124.632,124.632,0,0,1,102.32,28.6C104.611,30.07,106.764,31.578,108.81,33.1ZM87.542,3.454c4.667,0,9.471,2.821,13.361,7.781a107.723,107.723,0,0,0-13.789,4.855,108.447,108.447,0,0,0-13.079-4.655C77.947,6.355,82.816,3.454,87.542,3.454ZM71.9,14.6a99.6,99.6,0,0,1,10.5,3.617A130.416,130.416,0,0,0,68.1,26.156c-.3.194-.578.392-.876.587A41.007,41.007,0,0,1,71.9,14.6Zm-22.8-.663c1.823-1.171,4.586-1.755,8.065-1.755a48.27,48.27,0,0,1,9.783,1.173,45.809,45.809,0,0,0-5.826,17.66c-1.909,1.432-3.694,2.878-5.377,4.334C46.1,25.609,43.925,17.261,49.092,13.941ZM60.725,39.962c-.632-.532-1.2-1.055-1.785-1.582q.855-.769,1.758-1.536c-.008.387-.04.765-.04,1.156C60.658,38.663,60.7,39.307,60.725,39.962Zm-9.477,27.4c-2.223,0-4.033-1.163-4.033-2.591s1.809-2.591,4.033-2.591,4.033,1.163,4.033,2.591S53.472,67.364,51.248,67.364Zm9.342-3.018c-.35-3.132-4.382-5.619-9.342-5.619a13.442,13.442,0,0,0-4.565.793c-.766-2.6.07-6.083,2.6-10.146a47.125,47.125,0,0,1,6.463-7.968c1.683,1.458,3.508,2.916,5.452,4.368a44.957,44.957,0,0,0,6.154,17.509A55.845,55.845,0,0,1,60.591,64.346Zm6.856-14.207c.226.147.43.3.659.442A130.12,130.12,0,0,0,82.4,58.517a100.151,100.151,0,0,1-10.114,3.508A40.052,40.052,0,0,1,67.446,50.139Zm20.1,22.406c-4.544,0-9.227-2.655-13.058-7.372a109.093,109.093,0,0,0,12.627-4.527,108.226,108.226,0,0,0,13.313,4.721C96.626,69.954,92.018,72.545,87.542,72.545Zm15.133-10.314A98.827,98.827,0,0,1,91.83,58.516a130.12,130.12,0,0,0,14.292-7.935c.583-.375,1.121-.757,1.688-1.133A40.385,40.385,0,0,1,102.675,62.232Zm22.268-12.858c3.828,6.149,3.9,11.041.191,13.423-3.261,2.093-9.538,2.308-17.51.66a45.17,45.17,0,0,0,6.337-18.368c1.6-1.226,3.1-2.454,4.519-3.682A47.118,47.118,0,0,1,124.944,49.374ZM114.413,37.618c.29.254.589.508.874.764-.3.266-.594.53-.9.8.008-.4.04-.781.04-1.18C114.427,37.87,114.413,37.746,114.413,37.618Zm4.076-2.266c-1.409-1.22-2.874-2.435-4.444-3.639a45.983,45.983,0,0,0-6-18.515,46.944,46.944,0,0,1,9.028-1.012,17.758,17.758,0,0,1,6.627,1.076c-2.35,1.1-3.9,2.869-3.9,4.874,0,2.779,2.952,5.1,6.936,5.807C125.336,27.306,122.6,31.2,118.489,35.352Z" transform="translate(-40.997 0)"/></svg>