<svg xmlns="http://www.w3.org/2000/svg" width="36.6" height="41.65" viewBox="0 0 36.6 41.65"><defs><style>.a{fill:#e26777;}</style></defs><path class="a" d="M39.5,19.255c-.131-.149-.131-.3-.262-.446l-5.233-5.95a1.163,1.163,0,0,0-1.832,0,1.577,1.577,0,0,0,0,2.082l3.009,3.421H27.858V3.488A1.328,1.328,0,0,0,26.549,2H4.308a.714.714,0,0,0-.523.149H3.654a.134.134,0,0,0-.131.149l-.131.149h0a.8.8,0,0,0-.262.446v.149A.6.6,0,0,0,3,3.488V36.212a1.309,1.309,0,0,0,.785,1.339L15.56,43.5a.714.714,0,0,0,.523.149.941.941,0,0,0,.654-.3,1.556,1.556,0,0,0,.654-1.19V37.7h9.158a1.328,1.328,0,0,0,1.308-1.487V21.337h7.326l-3.009,3.421a1.577,1.577,0,0,0,0,2.083,1.163,1.163,0,0,0,1.832,0l5.233-5.95a.8.8,0,0,0,.262-.446A1.853,1.853,0,0,0,39.5,19.255ZM12.158,30.262a1.319,1.319,0,1,1-2.617,0v-5.95a1.319,1.319,0,1,1,2.617,0ZM25.241,13.9V34.725h-7.85V9.437A1.309,1.309,0,0,0,16.606,8.1L10.457,4.975H25.241Z" transform="translate(-3 -2)"/></svg>