<svg xmlns="http://www.w3.org/2000/svg" width="340.585" height="302.4" viewBox="0 0 340.585 302.4"><defs><style>.a{fill:#f0f0f0;}.b{fill:#e0e0e0;}.c{fill:#e26777;}.d{opacity:0.15;}.e,.j,.n,.q{fill:#fff;}.f,.k{fill:#37474f;}.g,.l{fill:#263238;}.h,.m{fill:#455a64;}.i{fill:#fafafa;}.j,.s{opacity:0.6;}.k,.l{opacity:0.7;}.m,.q{opacity:0.5;}.n{opacity:0.3;}.o{fill:#f28f8f;}.p{opacity:0.2;}.r{fill:#ffa8a7;}</style></defs><g transform="translate(-12.56 -23.89)"><g transform="translate(12.56 146.175)"><ellipse class="a" cx="170.293" cy="90.057" rx="170.293" ry="90.057"/></g><g transform="translate(28.951 193.893)"><ellipse class="b" cx="28.882" cy="15.273" rx="28.882" ry="15.273" transform="translate(230.877 51.131)"/><path class="b" d="M95.533,367.062,36.62,335.907c-1.843-.973-1.843-2.549,0-3.522l96.389-50.977a7.955,7.955,0,0,1,6.657,0l58.913,31.156c1.843.973,1.843,2.549,0,3.522L102.19,367.062a7.955,7.955,0,0,1-6.657,0Z" transform="translate(-35.238 -280.678)"/></g><g transform="translate(41.405 198.306)"><path class="c" d="M99.857,329.341S99.438,316.5,93.424,306.1s-14.932-17.279-23.729-18.6-16.624,5.6-7.618,11.447,25.362,12.36,31.361,32.116Z" transform="translate(-54.025 -287.344)"/><g class="d" transform="translate(4.057)"><path d="M99.857,329.341S99.438,316.5,93.424,306.1s-14.932-17.279-23.729-18.6-16.624,5.6-7.618,11.447,25.362,12.36,31.361,32.116Z" transform="translate(-58.082 -287.344)"/></g><path class="e" d="M100.21,327.7a.221.221,0,0,0,.094,0,.432.432,0,0,0,.318-.543c-7.423-21.808-24.415-31.97-32.359-34.294a.509.509,0,0,0-.359.026.443.443,0,0,0-.233.252.43.43,0,0,0,.3.55c7.784,2.277,24.43,12.261,31.73,33.685a.483.483,0,0,0,.506.324Z" transform="translate(-56.677 -289.201)"/><path class="c" d="M52.636,330.794c.593,1.622,2.371,2.6,4.033,3.383s3.469,1.635,4.257,3.191c1.576,3.138-1.944,7.064-.224,10.142a5.865,5.865,0,0,0,3.766,2.45q1.917.421,3.874.662a16.125,16.125,0,0,0,1.872.033,9.084,9.084,0,0,1,5.327.986c2.45,1.556,2.934,4.634,4.272,7.051a12.2,12.2,0,0,0,8.2,5.753c2.891.609,7.351.384,8.232-.735.665-.854-.773-3.727-.723-4.773a39.155,39.155,0,0,0-.289-8.07,13.875,13.875,0,0,1-.188-3.668q.224-2.052.426-4.118c.137-1.483.636-2.648.21-4.164a14.945,14.945,0,0,0-2.168-4.118c-.86-1.278-1.727-2.542-2.609-3.807a21.74,21.74,0,0,0-3.513-4.2,12.985,12.985,0,0,0-9.15-2.966c-2.768.179-5.58,1.357-8.377.993s-5.327-1.251-8.138-1.324c-2.934-.066-6.028.814-7.95,2.966A4.441,4.441,0,0,0,52.636,330.794Z" transform="translate(-52.469 -299.561)"/><path class="e" d="M96.329,358.456h0a.418.418,0,0,0,.272-.156.352.352,0,0,0,.067-.288c-4.394-23.926-30.891-29.606-37.216-29.732a.412.412,0,0,0-.434.377.36.36,0,0,0,.115.275.431.431,0,0,0,.3.115c6.187.126,32.106,5.687,36.406,29.09A.432.432,0,0,0,96.329,358.456Z" transform="translate(-54.285 -301.178)"/><path class="e" d="M70.872,349.72a.426.426,0,0,0,.231-.086c.072-.053,7.553-5.647,18.756-3.138a.425.425,0,0,0,.463-.3.385.385,0,0,0-.268-.457,25.021,25.021,0,0,0-19.515,3.31.361.361,0,0,0-.1.43.424.424,0,0,0,.407.232Z" transform="translate(-57.443 -306.842)"/></g><g transform="translate(80.667 23.89)"><path class="f" d="M216.79,33.176,124.716,81.862a6.718,6.718,0,0,0-3.346,5.3v190.2c0,1.953,1.5,2.754,3.346,1.768l92.067-48.68a6.718,6.718,0,0,0,3.346-5.3V34.943C220.122,32.99,218.634,32.2,216.79,33.176ZM215.345,207.61c0,1.675-1.279,2.741-2.891,3.575l-83.719,44.271c-1.583.834-2.891.159-2.891-1.523V104.974a5.772,5.772,0,0,1,2.891-4.561l83.712-44.277c1.59-.847,2.891-.166,2.891,1.509Z" transform="translate(-110.832 -26.886)"/><path class="g" d="M120.262,302.727a8.128,8.128,0,0,1-6.281-.192l-3.831-2.026a6.682,6.682,0,0,1-3.361-5.3v-190.2a5.327,5.327,0,0,1,.585-2.291,6.117,6.117,0,0,1,.4-.735h0l10.531,5.574h0a8.415,8.415,0,0,0-.585,1.125,5.24,5.24,0,0,0-.4,1.9V300.767C117.335,302.595,118.615,303.382,120.262,302.727Z" transform="translate(-106.79 -50.285)"/><path class="c" d="M188.773,342.553c2.891-1.543,5.283-.291,5.283,2.794a10.551,10.551,0,0,1-5.283,8.388c-2.891,1.543-5.283.291-5.283-2.794A10.564,10.564,0,0,1,188.773,342.553Z" transform="translate(-128.053 -131.362)"/><path d="M188.838,76.215c1.236-.662,2.241-.126,2.241,1.185a4.488,4.488,0,0,1-2.241,3.562c-1.243.662-2.248.126-2.248-1.192a4.47,4.47,0,0,1,2.248-3.555Z" transform="translate(-128.913 -41.478)"/><path d="M176.992,90.444l17.347-9.169c1.034-.543,1.872-.159,1.872.867a3.635,3.635,0,0,1-1.872,2.847l-17.347,9.169c-1.034.543-1.872.159-1.872-.867A3.635,3.635,0,0,1,176.992,90.444Z" transform="translate(-125.733 -43.2)"/><path class="c" d="M217.032,219.358c0,1.675-1.279,2.741-2.891,3.575L130.451,267.2c-1.583.834-2.891.159-2.891-1.523V116.723a5.772,5.772,0,0,1,2.891-4.561l83.712-44.277c1.59-.847,2.891-.166,2.891,1.509Z" transform="translate(-112.548 -38.635)"/><path class="h" d="M216.46,31.464c-.239-1.6-1.633-2.171-3.3-1.284l-92.1,48.686a6.56,6.56,0,0,0-2.363,2.291L108.16,75.6a6.54,6.54,0,0,1,2.371-2.277l92.06-48.7a8,8,0,0,1,6.7,0l3.845,1.986A6.827,6.827,0,0,1,216.46,31.464Z" transform="translate(-107.17 -23.89)"/></g><g transform="translate(108.167 59.383)"><path class="b" d="M233.48,77.673a2.156,2.156,0,0,0-2.031.185l-83.712,44.257a5.772,5.772,0,0,0-2.891,4.561V275.636a1.837,1.837,0,0,0,.773,1.662c.528.318,2.653,1.377,3.144,1.662a2.133,2.133,0,0,0,2.074-.159l83.74-44.244c1.59-.834,2.891-1.9,2.891-3.575V81.016a1.789,1.789,0,0,0-.838-1.695Z" transform="translate(-144.838 -77.501)"/><path class="i" d="M238.668,231.819c0,1.675-1.287,2.741-2.891,3.575l-83.726,44.271c-1.583.841-2.891.159-2.891-1.516V129.19a5.74,5.74,0,0,1,2.891-4.555l83.726-44.29c1.59-.847,2.891-.159,2.891,1.509Z" transform="translate(-146.036 -78.339)"/><path class="b" d="M237.049,80.655c.781,0,.867.847.867,1.212V231.819c0,1.165-.773,2.092-2.515,3.006L151.69,279.095a2.071,2.071,0,0,1-.918.265c-.781,0-.867-.847-.867-1.212V129.189a5.135,5.135,0,0,1,2.508-3.972l83.719-44.3a2.008,2.008,0,0,1,.918-.271m0-.662a2.805,2.805,0,0,0-1.287.364l-83.712,44.264a5.74,5.74,0,0,0-2.891,4.555V278.122c0,1.192.65,1.874,1.59,1.874a2.737,2.737,0,0,0,1.279-.358l83.748-44.244c1.59-.834,2.891-1.9,2.891-3.575V81.854c0-1.185-.643-1.874-1.59-1.874Z" transform="translate(-146.036 -78.339)"/><path class="c" d="M205.617,150.524c12.078-6.382,21.864-1.212,21.864,11.559s-9.794,28.3-21.864,34.678S183.76,197.973,183.76,185.2,193.539,156.906,205.617,150.524Z" transform="translate(-155.628 -101.256)"/><path class="i" d="M211.484,164.222l3.086,6,6.9-2.423c.954-.331,1.33.894.643,2.072l-4.987,8.607,1.178,7.766c.159,1.066-.831,2.476-1.684,2.377l-6.165-.662-6.172,7.223c-.846.993-1.843.662-1.677-.6l1.178-9.017-4.994-3.31c-.687-.457-.311-2.085.643-2.754l6.9-4.873,3.086-9.269C209.836,164.043,211.065,163.394,211.484,164.222Z" transform="translate(-159.696 -106.685)"/><path class="c" d="M172.52,256.283c0,2.741,2.241,3.774,4.994,2.317l46.843-24.773c2.754-1.456,4.987-4.853,4.987-7.594s-2.233-3.767-4.987-2.311l-46.843,24.767C174.761,250.152,172.52,253.542,172.52,256.283Z" transform="translate(-152.512 -126.762)"/><path class="j" d="M172.52,256.283c0,2.741,2.241,3.774,4.994,2.317l46.843-24.773c2.754-1.456,4.987-4.853,4.987-7.594s-2.233-3.767-4.987-2.311l-46.843,24.767C174.761,250.152,172.52,253.542,172.52,256.283Z" transform="translate(-152.512 -126.762)"/><path class="h" d="M178.51,253.96l47.248-24.992c.918-.483,1.662-.139,1.662.775a3.241,3.241,0,0,1-1.662,2.529L178.51,257.264c-.918.483-1.67.139-1.67-.775A3.223,3.223,0,0,1,178.51,253.96Z" transform="translate(-153.71 -128.617)"/><path class="c" d="M172.52,281.223c0,2.741,2.241,3.774,4.994,2.317l46.843-24.773c2.754-1.457,4.987-4.853,4.987-7.594s-2.233-3.767-4.987-2.311l-46.843,24.767C174.761,275.092,172.52,278.522,172.52,281.223Z" transform="translate(-152.512 -135.191)"/><path class="j" d="M172.52,281.223c0,2.741,2.241,3.774,4.994,2.317l46.843-24.773c2.754-1.457,4.987-4.853,4.987-7.594s-2.233-3.767-4.987-2.311l-46.843,24.767C174.761,275.092,172.52,278.522,172.52,281.223Z" transform="translate(-152.512 -135.191)"/><path class="h" d="M182.721,289.26c.867-.457,1.561-.086,1.561.821a3.116,3.116,0,0,1-1.561,2.483c-.86.45-1.561.086-1.561-.828a3.123,3.123,0,0,1,1.561-2.476Z" transform="translate(-154.908 -149.001)"/><path class="h" d="M2.089.121C3.23.165,4.175.759,4.2,1.447S3.322,2.656,2.181,2.612.1,1.974.07,1.286.948.077,2.089.121Z" transform="matrix(0.5, -0.866, 0.866, 0.5, 30.493, 140.475)"/><path class="h" d="M196.4,281.39c.867-.457,1.561-.086,1.561.821a3.116,3.116,0,0,1-1.561,2.483c-.86.45-1.561.086-1.561-.828A3.123,3.123,0,0,1,196.4,281.39Z" transform="translate(-158.7 -146.342)"/><path class="h" d="M203.171,277.45c.86-.457,1.561-.086,1.561.828a3.123,3.123,0,0,1-1.561,2.476c-.86.457-1.561.086-1.561-.828a3.13,3.13,0,0,1,1.561-2.476Z" transform="translate(-160.577 -145.01)"/><path class="h" d="M209.991,273.52c.86-.457,1.554-.086,1.554.821a3.128,3.128,0,0,1-1.554,2.483c-.867.457-1.561.086-1.561-.828A3.1,3.1,0,0,1,209.991,273.52Z" transform="translate(-162.468 -143.682)"/><path class="h" d="M2.089.121C3.23.165,4.175.759,4.2,1.447S3.322,2.656,2.181,2.612.1,1.974.07,1.286.948.077,2.089.121Z" transform="matrix(0.5, -0.866, 0.866, 0.5, 50.199, 130.056)"/><path class="h" d="M223.621,265.65c.86-.457,1.561-.086,1.561.821a3.135,3.135,0,0,1-1.561,2.483c-.867.457-1.561.086-1.561-.828A3.1,3.1,0,0,1,223.621,265.65Z" transform="translate(-166.246 -141.022)"/><path class="h" d="M2.089.121C3.23.165,4.175.759,4.2,1.447S3.322,2.656,2.181,2.612.1,1.974.07,1.286.948.077,2.089.121Z" transform="matrix(0.5, -0.866, 0.866, 0.5, 60.048, 124.846)"/><path class="h" d="M237.251,257.78c.86-.457,1.561-.086,1.561.828a3.13,3.13,0,0,1-1.561,2.476c-.867.457-1.561.086-1.561-.828a3.1,3.1,0,0,1,1.561-2.476Z" transform="translate(-170.025 -138.362)"/><path class="h" d="M244.061,253.84c.86-.457,1.561-.086,1.561.828a3.123,3.123,0,0,1-1.561,2.476c-.86.457-1.561.086-1.561-.828A3.13,3.13,0,0,1,244.061,253.84Z" transform="translate(-171.913 -137.031)"/><path class="c" d="M200.045,300.4,221.5,289.057c1.836-.973,3.325-.185,3.325,1.761v2.867a6.655,6.655,0,0,1-3.325,5.3l-21.445,11.341c-1.843.973-3.332.185-3.332-1.761v-2.867A6.642,6.642,0,0,1,200.045,300.4Z" transform="translate(-159.221 -148.858)"/><path class="i" d="M201,307.449v.185c0,.973.723,1.37,1.67.88l18.568-9.792a3.331,3.331,0,0,0,1.662-2.648v-.192c0-.973-.723-1.37-1.662-.881l-18.525,9.8A3.321,3.321,0,0,0,201,307.449Z" transform="translate(-160.408 -150.937)"/></g><g transform="translate(138.303 102.757)"><path class="k" d="M194.082,192.742,281.3,146.624c.918-.483,1.662-.093,1.662.881v63.556a3.324,3.324,0,0,1-1.662,2.648l-87.217,46.1c-.918.49-1.662.093-1.662-.881V195.377A3.326,3.326,0,0,1,194.082,192.742Z" transform="translate(-188.165 -144.166)"/><path class="l" d="M191.272,216.961l-4.243-2.251a2.919,2.919,0,0,0-.491,1.5v63.556a1.063,1.063,0,0,0,.477.98c.311.165,3.939,2.066,4.228,2.238a1.06,1.06,0,0,1-.455-.973V218.457A2.955,2.955,0,0,1,191.272,216.961Z" transform="translate(-186.533 -167.247)"/><path class="m" d="M280.971,145.336c-.593-.331-3.9-2.066-4.163-2.211a1.262,1.262,0,0,0-1.193.093L188.4,189.349a3.274,3.274,0,0,0-1.178,1.139l4.243,2.251a3.274,3.274,0,0,1,1.178-1.139l87.224-46.124a1.316,1.316,0,0,1,1.106-.139Z" transform="translate(-186.724 -143.017)"/><path class="i" d="M209.5,217.32a.116.116,0,0,1,.13,0,.207.207,0,0,1,.058.159v1.033a.494.494,0,0,1-.058.218.346.346,0,0,1-.13.146l-1.214.662v5.005a.493.493,0,0,1-.058.218.346.346,0,0,1-.13.146l-.911.477a.108.108,0,0,1-.13,0,.2.2,0,0,1-.051-.152V220.22l-1.221.662a.108.108,0,0,1-.13,0,.183.183,0,0,1-.058-.152V219.7a.494.494,0,0,1,.058-.218.312.312,0,0,1,.13-.146Z" transform="translate(-191.819 -168.122)"/><path class="i" d="M216.042,218.916a.116.116,0,0,1,.137,0,.206.206,0,0,1,.051.159v1.033a.437.437,0,0,1-.051.212.38.38,0,0,1-.137.152l-3.274,1.735a.108.108,0,0,1-.13,0,.176.176,0,0,1-.058-.152v-6.3a.414.414,0,0,1,.058-.218.312.312,0,0,1,.13-.146l3.224-1.708a.108.108,0,0,1,.13,0,.189.189,0,0,1,.058.152v1.033a.494.494,0,0,1-.058.218.312.312,0,0,1-.13.146l-2.168,1.125v1.053l1.98-1.046a.108.108,0,0,1,.13,0,.189.189,0,0,1,.058.152v1.039a.47.47,0,0,1-.058.212.312.312,0,0,1-.13.146l-1.98,1.046v1.092Z" transform="translate(-193.754 -166.891)"/><path class="i" d="M221.261,210.772a2.588,2.588,0,0,1,.817-.291.929.929,0,0,1,.614.086.91.91,0,0,1,.39.49,2.727,2.727,0,0,1,.13.92A4.042,4.042,0,0,1,223,213.3a3.347,3.347,0,0,1-.607,1.059l.853,1.874a.2.2,0,0,1,0,.093.406.406,0,0,1-.043.179.306.306,0,0,1-.108.119l-.94.5c-.094.046-.159.053-.2,0a.331.331,0,0,1-.094-.126l-.773-1.682-.636.338v2.085a.479.479,0,0,1-.051.218.321.321,0,0,1-.137.146l-.9.483a.108.108,0,0,1-.13,0,.2.2,0,0,1-.058-.152v-6.289a.494.494,0,0,1,.058-.218.312.312,0,0,1,.13-.146Zm-.766,3.357.781-.41a1.469,1.469,0,0,0,.484-.41,1.078,1.078,0,0,0,.188-.662c0-.271-.058-.43-.188-.463a.643.643,0,0,0-.484.1l-.781.41Z" transform="translate(-195.584 -165.811)"/><path class="i" d="M228.364,211.234a.735.735,0,0,1-.094-.113l-.65-1.264v3.231a.474.474,0,0,1-.051.212.333.333,0,0,1-.137.152l-.9.477a.116.116,0,0,1-.13,0,.207.207,0,0,1-.058-.159v-6.3a.494.494,0,0,1,.058-.218.346.346,0,0,1,.13-.146l.8-.424c.094-.046.166-.046.21,0a.617.617,0,0,1,.087.106l1.12,2.112,1.128-3.31a1.554,1.554,0,0,1,.087-.205.446.446,0,0,1,.21-.212l.8-.43a.108.108,0,0,1,.13,0,.189.189,0,0,1,.058.152v6.3a.494.494,0,0,1-.058.218.312.312,0,0,1-.13.146l-.911.477a.1.1,0,0,1-.13,0,.2.2,0,0,1-.058-.152v-3.231l-.65,1.953a2.079,2.079,0,0,1-.087.212.385.385,0,0,1-.166.166l-.441.238C228.457,211.267,228.407,211.267,228.364,211.234Z" transform="translate(-197.569 -163.87)"/><path class="i" d="M236.506,201.871a1.967,1.967,0,0,1,.817-.252,1.293,1.293,0,0,1,.636.126,1.046,1.046,0,0,1,.426.4,1.188,1.188,0,0,1,.159.569.358.358,0,0,1-.043.172.317.317,0,0,1-.1.119l-.911.477a.276.276,0,0,1-.152.046.332.332,0,0,1-.123-.053l-.065-.066a.368.368,0,0,0-.13-.073.417.417,0,0,0-.21,0,.809.809,0,0,0-.3.106,1.967,1.967,0,0,0-.253.159,1.1,1.1,0,0,0-.21.192.739.739,0,0,0-.152.232.616.616,0,0,0-.065.271.263.263,0,0,0,.072.212.315.315,0,0,0,.217.06,1.783,1.783,0,0,0,.412-.053l.636-.152a2.568,2.568,0,0,1,.665-.079.862.862,0,0,1,.477.166.927.927,0,0,1,.282.437,2.358,2.358,0,0,1,.094.741,2.994,2.994,0,0,1-.159.973,3.819,3.819,0,0,1-.448.907,4.222,4.222,0,0,1-.679.781,3.853,3.853,0,0,1-.853.6,2.224,2.224,0,0,1-.86.278,1.265,1.265,0,0,1-.665-.106,1.032,1.032,0,0,1-.441-.417,1.32,1.32,0,0,1-.166-.662.334.334,0,0,1,.051-.179.235.235,0,0,1,.094-.113l.911-.483a.353.353,0,0,1,.152-.046.256.256,0,0,1,.108.046.9.9,0,0,1,.087.079.594.594,0,0,0,.145.106.536.536,0,0,0,.238,0,.766.766,0,0,0,.347-.113,2.808,2.808,0,0,0,.614-.437.775.775,0,0,0,.246-.536.2.2,0,0,0-.094-.2.446.446,0,0,0-.267-.033,2.583,2.583,0,0,0-.463.079l-.658.152a1.061,1.061,0,0,1-1.041-.166,1.639,1.639,0,0,1-.332-1.165,3.212,3.212,0,0,1,.137-.874,4.341,4.341,0,0,1,.39-.881,3.943,3.943,0,0,1,.622-.788A3.319,3.319,0,0,1,236.506,201.871Z" transform="translate(-199.806 -162.822)"/><path class="i" d="M244,200.035a5,5,0,0,1,.173-1.119,4.447,4.447,0,0,1,.419-1.059,4.346,4.346,0,0,1,.665-.92,3.421,3.421,0,0,1,.9-.662,1.939,1.939,0,0,1,.9-.265,1.088,1.088,0,0,1,.672.212,1.314,1.314,0,0,1,.419.616,3.06,3.06,0,0,1,.173.94v1.735a4.941,4.941,0,0,1-.173,1.119,5.013,5.013,0,0,1-.419,1.073,4.171,4.171,0,0,1-.672.914,3.474,3.474,0,0,1-.9.662,1.922,1.922,0,0,1-.9.271.994.994,0,0,1-.665-.212,1.312,1.312,0,0,1-.419-.622,3.06,3.06,0,0,1-.173-.94v-1.741Zm3.036.079v-1.635a1.327,1.327,0,0,0-.072-.41.585.585,0,0,0-.166-.271.425.425,0,0,0-.26-.1.862.862,0,0,0-.376.113,1.426,1.426,0,0,0-.376.285,1.747,1.747,0,0,0-.267.377,2.362,2.362,0,0,0-.166.444,3.658,3.658,0,0,0-.072.49v1.642a1.064,1.064,0,0,0,.239.662c.145.139.354.132.643,0a1.471,1.471,0,0,0,.636-.662,2.573,2.573,0,0,0,.267-.933Z" transform="translate(-202.465 -160.927)"/><path class="i" d="M254.963,191.189a.108.108,0,0,1,.13,0,.206.206,0,0,1,.051.159v1.033a.455.455,0,0,1-.051.212.364.364,0,0,1-.13.152l-2.074,1.092v1.324l1.937-1.026a.108.108,0,0,1,.13,0,.2.2,0,0,1,.051.152v1.039a.475.475,0,0,1-.051.212.312.312,0,0,1-.13.146l-1.937,1.02v2.112a.455.455,0,0,1-.051.212.312.312,0,0,1-.13.146l-.911.483a.116.116,0,0,1-.13,0,.207.207,0,0,1-.058-.159v-6.3a.445.445,0,0,1,.058-.212.33.33,0,0,1,.13-.152Z" transform="translate(-204.574 -159.29)"/><path class="i" d="M262.036,187.111a2.075,2.075,0,0,1,.817-.252,1.292,1.292,0,0,1,.636.126,1.087,1.087,0,0,1,.426.4,1.187,1.187,0,0,1,.159.569.366.366,0,0,1-.051.172.229.229,0,0,1-.1.119l-.9.477a.23.23,0,0,1-.152.046.248.248,0,0,1-.123-.053l-.065-.066a.369.369,0,0,0-.13-.073.425.425,0,0,0-.21,0,.809.809,0,0,0-.3.106,1.967,1.967,0,0,0-.253.159,1.105,1.105,0,0,0-.21.192.905.905,0,0,0-.159.232.706.706,0,0,0-.058.271.219.219,0,0,0,.068.2.267.267,0,0,0,.221.067,1.875,1.875,0,0,0,.412-.053l.636-.152a2.568,2.568,0,0,1,.665-.079.862.862,0,0,1,.477.165.927.927,0,0,1,.282.437,2.589,2.589,0,0,1,.094.741,3.133,3.133,0,0,1-.159.973,3.983,3.983,0,0,1-.448.907,4.05,4.05,0,0,1-.679.781,3.849,3.849,0,0,1-.853.6,2.015,2.015,0,0,1-.86.278,1.249,1.249,0,0,1-.665-.106,1.032,1.032,0,0,1-.441-.417,1.32,1.32,0,0,1-.166-.662.406.406,0,0,1,.043-.179.284.284,0,0,1,.1-.113l.911-.483a.354.354,0,0,1,.152-.046.256.256,0,0,1,.108.046,1.079,1.079,0,0,1,.08.079.836.836,0,0,0,.152.106.536.536,0,0,0,.238,0,.766.766,0,0,0,.347-.113,2.809,2.809,0,0,0,.614-.437.762.762,0,0,0,.246-.536.217.217,0,0,0-.094-.2.448.448,0,0,0-.267,0,2.581,2.581,0,0,0-.463.079l-.679.159a1.061,1.061,0,0,1-1.041-.166,1.6,1.6,0,0,1-.332-1.165,2.954,2.954,0,0,1,.137-.874,3.669,3.669,0,0,1,.39-.881,3.945,3.945,0,0,1,.622-.788A3.3,3.3,0,0,1,262.036,187.111Z" transform="translate(-206.883 -157.833)"/><path class="i" d="M270.749,187.319a.108.108,0,0,1,.13,0,.2.2,0,0,1,.058.152v1.039a.488.488,0,0,1-.058.212.312.312,0,0,1-.13.146l-3.281,1.761a.108.108,0,0,1-.13,0,.207.207,0,0,1-.058-.159v-6.3a.488.488,0,0,1,.058-.212.312.312,0,0,1,.13-.146l3.224-1.721a.108.108,0,0,1,.13,0,.207.207,0,0,1,.058.159v1.033a.494.494,0,0,1-.058.218.346.346,0,0,1-.13.146l-2.132,1.125v1.053l1.98-1.046a.116.116,0,0,1,.13,0,.207.207,0,0,1,.058.159v1.059a.494.494,0,0,1-.058.218.312.312,0,0,1-.13.146l-1.98,1.046V188.5Z" transform="translate(-208.918 -156.215)"/><path class="i" d="M275.971,179.19a2.807,2.807,0,0,1,.817-.3.984.984,0,0,1,.614.086.886.886,0,0,1,.383.5,2.5,2.5,0,0,1,.137.914,3.868,3.868,0,0,1-.217,1.324,3.5,3.5,0,0,1-.607,1.059l.86,1.867a.242.242,0,0,1,0,.1.391.391,0,0,1-.051.172.238.238,0,0,1-.108.119l-.94.5c-.087.053-.159.06-.2,0a.529.529,0,0,1-.094-.126l-.766-1.682-.636.338v2.085a.445.445,0,0,1-.058.212.33.33,0,0,1-.13.152l-.911.477a.108.108,0,0,1-.13,0,.206.206,0,0,1-.051-.159v-6.3a.474.474,0,0,1,.051-.212.312.312,0,0,1,.13-.146Zm-.781,3.37.781-.417a1.311,1.311,0,0,0,.477-.41,1.049,1.049,0,0,0,.2-.662c0-.278-.065-.43-.2-.47a.7.7,0,0,0-.477.1l-.781.417Z" transform="translate(-210.75 -155.136)"/><path class="i" d="M282.164,181.974q-.267.139-.369-.2l-1.446-5.349v-.119a.4.4,0,0,1,.043-.172.238.238,0,0,1,.108-.119l.867-.463c.094-.046.159-.053.2,0a.26.26,0,0,1,.072.119l.961,3.787.961-4.8a.506.506,0,0,1,.072-.2.427.427,0,0,1,.2-.192l.875-.457a.093.093,0,0,1,.108,0,.157.157,0,0,1,.043.126.08.08,0,0,1,0,.04v.1l-1.409,6.845a.8.8,0,0,1-.369.583Z" transform="translate(-212.542 -153.419)"/><path class="i" d="M288.157,179.311a.108.108,0,0,1-.13,0,.182.182,0,0,1-.058-.159v-6.3a.377.377,0,0,1,.058-.212.33.33,0,0,1,.13-.152l.9-.477a.108.108,0,0,1,.13,0,.207.207,0,0,1,.058.159v6.3a.469.469,0,0,1-.058.212.364.364,0,0,1-.13.152Z" transform="translate(-214.654 -152.808)"/><path class="i" d="M292.609,172.118v1.642a2.131,2.131,0,0,0,.058.391.592.592,0,0,0,.159.285.354.354,0,0,0,.26.106.77.77,0,0,0,.39-.113,1.572,1.572,0,0,0,.636-.6,1.683,1.683,0,0,0,.152-.331,1.811,1.811,0,0,0,.079-.3,1.066,1.066,0,0,1,.079-.258.362.362,0,0,1,.159-.146l.9-.477a.093.093,0,0,1,.108,0,.187.187,0,0,1,.043.132,3.757,3.757,0,0,1-.173,1.026,4.234,4.234,0,0,1-.455,1,4.882,4.882,0,0,1-.679.874,3.466,3.466,0,0,1-.853.662,1.948,1.948,0,0,1-.889.258,1.047,1.047,0,0,1-.665-.218,1.382,1.382,0,0,1-.426-.616,3.259,3.259,0,0,1-.166-.934v-1.735a4.942,4.942,0,0,1,.593-2.178,4.346,4.346,0,0,1,.665-.92,3.421,3.421,0,0,1,.889-.662,1.938,1.938,0,0,1,.853-.258,1.2,1.2,0,0,1,.679.152,1.124,1.124,0,0,1,.455.516,2.134,2.134,0,0,1,.173.847.382.382,0,0,1-.043.172.238.238,0,0,1-.108.119l-.9.483c-.079.04-.13.046-.159,0a.367.367,0,0,1-.079-.179.844.844,0,0,0-.079-.212.413.413,0,0,0-.152-.172.441.441,0,0,0-.246-.06,1.074,1.074,0,0,0-.39.126,1.555,1.555,0,0,0-.39.3,1.453,1.453,0,0,0-.26.391,1.875,1.875,0,0,0-.159.437,3.389,3.389,0,0,0-.058.444Z" transform="translate(-215.586 -151.712)"/><path class="i" d="M302.219,169.17a.108.108,0,0,1,.13,0,.189.189,0,0,1,.058.152v1.033a.494.494,0,0,1-.058.218.311.311,0,0,1-.13.146l-3.289,1.748a.108.108,0,0,1-.13,0,.206.206,0,0,1-.051-.159v-6.3a.456.456,0,0,1,.051-.212.312.312,0,0,1,.13-.146l3.224-1.708h.137a.206.206,0,0,1,.051.159v1.033a.437.437,0,0,1-.051.212.305.305,0,0,1-.137.152l-2.125,1.125v1.053L302,166.628a.116.116,0,0,1,.137,0,.206.206,0,0,1,.051.159v1.033a.479.479,0,0,1-.051.218.409.409,0,0,1-.137.146l-1.973,1.046v1.092Z" transform="translate(-217.642 -150.088)"/><path class="i" d="M257.2,213.013l8.608-4.548c.477-.252.86-.053.867.457v.2a1.732,1.732,0,0,1-.867,1.37l-8.608,4.555c-.477.252-.867.046-.867-.457v-.2a1.731,1.731,0,0,1,.867-1.377Z" transform="translate(-205.883 -165.099)"/><path class="i" d="M205.35,236.167l33.717-17.822c.477-.252.867-.046.867.463v.2a1.713,1.713,0,0,1-.867,1.37L205.35,238.2c-.477.252-.86.046-.86-.457v-.2a1.737,1.737,0,0,1,.86-1.377Z" transform="translate(-191.511 -168.439)"/><path class="i" d="M274.477,199.929,294.6,189.283c.484-.258.867-.053.867.457v.2a1.724,1.724,0,0,1-.86,1.37l-20.129,10.646c-.477.252-.867.046-.867-.457v-.2A1.732,1.732,0,0,1,274.477,199.929Z" transform="translate(-210.673 -158.616)"/><path class="i" d="M238.077,232.1l8.608-4.555c.477-.252.867-.046.867.457v.2a1.731,1.731,0,0,1-.867,1.377l-8.608,4.548c-.477.252-.867.046-.867-.457v-.2A1.732,1.732,0,0,1,238.077,232.1Z" transform="translate(-200.582 -171.548)"/><path class="i" d="M255.667,215.139l33.71-17.815c.484-.258.867-.053.867.457v.2a1.724,1.724,0,0,1-.86,1.37l-33.717,17.822c-.484.252-.867.046-.867-.457v-.2a1.725,1.725,0,0,1,.867-1.377Z" transform="translate(-205.459 -161.333)"/><path class="i" d="M205.28,247.929l20.129-10.646c.477-.258.867-.053.867.457v.2a1.732,1.732,0,0,1-.867,1.37L205.28,249.954c-.477.258-.86.053-.86-.457v-.2A1.724,1.724,0,0,1,205.28,247.929Z" transform="translate(-191.492 -174.838)"/><path class="i" d="M205.35,233.234l14.752-7.8c.477-.252.86-.046.86.457v.2a1.736,1.736,0,0,1-.86,1.377l-14.752,7.8c-.477.252-.86.046-.86-.463v-.192a1.724,1.724,0,0,1,.86-1.377Z" transform="translate(-191.511 -170.835)"/><path class="i" d="M284.117,188.144l13.328-7.051c.484-.258.867-.053.867.457v.2a1.713,1.713,0,0,1-.867,1.37l-13.328,7.051c-.477.252-.867.046-.867-.457v-.2A1.732,1.732,0,0,1,284.117,188.144Z" transform="translate(-213.346 -155.848)"/><path class="i" d="M230.947,213.327l33.717-17.822c.477-.252.867-.046.867.457v.2a1.732,1.732,0,0,1-.867,1.37l-33.717,17.822c-.477.252-.867.046-.867-.457v-.2A1.732,1.732,0,0,1,230.947,213.327Z" transform="translate(-198.606 -160.72)"/><path class="i" d="M257.2,237.961l8.608-4.548c.477-.258.86-.053.867.457v.2a1.732,1.732,0,0,1-.867,1.37l-8.608,4.555c-.477.252-.867.046-.867-.457v-.2a1.731,1.731,0,0,1,.867-1.377Z" transform="translate(-205.883 -173.53)"/><path class="i" d="M205.35,261.117,239.067,243.3c.477-.252.867-.046.867.463v.2a1.713,1.713,0,0,1-.867,1.37L205.35,263.15c-.477.252-.86.046-.86-.457v-.2a1.736,1.736,0,0,1,.86-1.377Z" transform="translate(-191.511 -176.871)"/><path class="i" d="M274.477,224.877,294.6,214.225c.484-.252.867-.046.867.463v.2a1.724,1.724,0,0,1-.86,1.37L274.477,226.9c-.477.252-.867.046-.867-.457v-.2A1.732,1.732,0,0,1,274.477,224.877Z" transform="translate(-210.673 -167.047)"/><path class="i" d="M238.077,257.05l8.608-4.555c.477-.252.867-.046.867.457v.2a1.731,1.731,0,0,1-.867,1.377l-8.608,4.548c-.477.252-.867.046-.867-.457v-.2a1.732,1.732,0,0,1,.867-1.37Z" transform="translate(-200.582 -179.98)"/><path class="i" d="M255.667,240.089l33.71-17.815c.484-.258.867-.053.867.457v.2a1.724,1.724,0,0,1-.86,1.37l-33.717,17.822c-.484.252-.867.046-.867-.457v-.2a1.725,1.725,0,0,1,.867-1.377Z" transform="translate(-205.459 -169.765)"/><path class="i" d="M205.28,272.879l20.129-10.646c.477-.258.867-.053.867.457v.2a1.732,1.732,0,0,1-.867,1.37L205.28,274.9c-.477.258-.86.053-.86-.457v-.2A1.724,1.724,0,0,1,205.28,272.879Z" transform="translate(-191.492 -183.27)"/><path class="i" d="M205.35,258.184l14.752-7.8c.477-.252.86-.046.86.457v.2a1.736,1.736,0,0,1-.86,1.377l-14.752,7.8c-.477.252-.86.046-.86-.463v-.192a1.723,1.723,0,0,1,.86-1.377Z" transform="translate(-191.511 -179.267)"/><path class="i" d="M284.117,213.086l13.328-7.051c.484-.252.867-.046.867.463v.2a1.713,1.713,0,0,1-.867,1.37l-13.328,7.051c-.477.252-.867.046-.867-.457v-.2A1.751,1.751,0,0,1,284.117,213.086Z" transform="translate(-213.346 -164.279)"/><path class="i" d="M230.947,238.277l33.717-17.822c.477-.252.867-.046.867.457v.2a1.732,1.732,0,0,1-.867,1.37L230.947,240.3c-.477.252-.867.046-.867-.457v-.2a1.732,1.732,0,0,1,.867-1.37Z" transform="translate(-198.606 -169.152)"/><path class="c" d="M277.333,247.921c2.168-1.139,3.9-.218,3.9,2.066a7.8,7.8,0,0,1-3.9,6.19c-2.168,1.139-3.9.218-3.9-2.066A7.8,7.8,0,0,1,277.333,247.921Z" transform="translate(-210.623 -178.306)"/><path class="i" d="M278.079,253.561a.758.758,0,0,1-.506-.192l-1.713-1.523a.622.622,0,0,1,.023-.9.772.772,0,0,1,.981-.047l.954.854,3.411-7.435a.709.709,0,0,1,.576-.444.754.754,0,0,1,.695.266.616.616,0,0,1,.059.688l-3.816,8.328a.712.712,0,0,1-.52.391Z" transform="translate(-211.247 -177.101)"/><path class="n" d="M288.77,242.08l3.614-1.893c.723-.384,1.33-.073,1.33.708v3.787a2.679,2.679,0,0,1-1.33,2.112l-3.614,1.893c-.723.391-1.33.073-1.33-.7V244.2A2.665,2.665,0,0,1,288.77,242.08Z" transform="translate(-214.507 -175.801)"/><path class="o" d="M221.133,280.121c2.168-1.139,3.9-.212,3.9,2.066a7.794,7.794,0,0,1-3.9,6.2c-2.168,1.139-3.9.212-3.9-2.066A7.84,7.84,0,0,1,221.133,280.121Z" transform="translate(-195.043 -189.189)"/><path class="n" d="M232.49,274.638l3.614-1.893c.723-.391,1.33-.073,1.33.7v3.787a2.614,2.614,0,0,1-1.33,2.112l-3.614,1.9c-.723.384-1.33.073-1.33-.708V276.75a2.665,2.665,0,0,1,1.33-2.112Z" transform="translate(-198.905 -186.804)"/><path class="i" d="M223.241,287.541a.759.759,0,0,1-.5-.185l-2.891-2.562a.634.634,0,0,1-.267-.661.692.692,0,0,1,.534-.507.762.762,0,0,1,.73.221l2.891,2.555a.623.623,0,0,1,0,.934A.754.754,0,0,1,223.241,287.541Z" transform="translate(-195.692 -190.531)"/><path class="i" d="M220.177,288.429a.715.715,0,0,1-.3-.066.639.639,0,0,1-.34-.874l3.144-6.111a.753.753,0,0,1,.961-.311.639.639,0,0,1,.34.874l-3.144,6.111A.731.731,0,0,1,220.177,288.429Z" transform="translate(-195.663 -189.651)"/></g><g transform="translate(267.294 48.023)"><path class="c" d="M385.23,115.584l-2.371-4.091,1.9-5.071V103.33l-5.84,3.092v3.092l2.515,3.972a.359.359,0,0,0,.166.139h0Z" transform="translate(-368.859 -74.871)"/><path class="p" d="M385.23,115.584l-2.371-4.091,1.9-5.071V103.33l-5.84,3.092v3.092l2.515,3.972a.359.359,0,0,0,.166.139h0Z" transform="translate(-368.859 -74.871)"/><path class="c" d="M395.362,64.26a3.516,3.516,0,0,0-1.756-2.781l-1.446-.755a4.208,4.208,0,0,0-3.505,0L366.769,72.317A3.488,3.488,0,0,0,365.02,75.1V97.144a3.488,3.488,0,0,0,1.749,2.781l1.446.755a4.193,4.193,0,0,0,3.5,0l7.04-3.721,2.508,3.972a.387.387,0,0,0,.36.169.372.372,0,0,0,.319-.229l2.631-6.991,9.006-4.78a3.5,3.5,0,0,0,1.785-2.787Z" transform="translate(-365.006 -60.342)"/><path class="p" d="M365,103.868a3.488,3.488,0,0,0,1.749,2.781l1.446.755a4.245,4.245,0,0,0,3.2.132,1.009,1.009,0,0,1-1.446-1.059V84.431a3.061,3.061,0,0,1,.513-1.582l-4.929-2.608a3.11,3.11,0,0,0-.513,1.582Z" transform="translate(-365 -67.067)"/><path class="q" d="M395.475,63.807c-.2-.662-.882-.894-1.691-.47L371.9,74.929a3.367,3.367,0,0,0-1.229,1.2l-4.929-2.6a3.367,3.367,0,0,1,1.229-1.2l21.878-11.592a4.209,4.209,0,0,1,3.505,0l1.446.755a3.535,3.535,0,0,1,1.677,2.317Z" transform="translate(-365.205 -60.346)"/><path class="i" d="M393.551,74.1a2.088,2.088,0,0,0-2.631.986l-7.6,16.551-1.807-1.609a2.147,2.147,0,0,0-2.848.04,1.737,1.737,0,0,0,.043,2.608l3.925,3.5a2.118,2.118,0,0,0,1.4.516,2.689,2.689,0,0,0,.4,0,1.97,1.97,0,0,0,1.446-1.092l8.775-19.08a1.7,1.7,0,0,0,0-1.417A1.941,1.941,0,0,0,393.551,74.1Z" transform="translate(-368.63 -64.943)"/></g><g transform="translate(245.007 98.759)"><path class="r" d="M406.82,187c5.146,0,7.726,1.562,9.873,5.866,2.053,4.111,7.04,18.6,6.729,21.5s-11.34,15.439-11.34,15.439l-4.618-5.171,7.488-11.142-7.018-13.406Z" transform="translate(-354.307 -153.884)"/><path class="g" d="M401.019,373.3,397,378.386a10.4,10.4,0,0,0,5.941,1.768c3.578.126,4.561-1.112,4.691-1.37.34-.662.188-2.039.065-3.423-.094-1.046-.065-2.84-.723-2.84Z" transform="translate(-351.585 -216.583)"/><path class="g" d="M387.871,375.78s-7.792,1.053-9.62.874a50.005,50.005,0,0,0-6.187.563c-2.4.629-.911,3.972,3.614,5.078,2.891.715,7.632.761,10.6,1.576s5.059,2.039,8.543,1.139a2.82,2.82,0,0,0,2.226-3.628c-.383-2.125-.448-4.184-1.706-4.409C393.79,376.687,387.871,375.78,387.871,375.78Z" transform="translate(-344.356 -217.684)"/><path class="r" d="M414.6,246.847c-.672-5.343-3.845-9.533-7.184-14.287l-8.623,23.264-2.168,7.282s.152,16.716.434,20.715,3.209,36.518,3.209,36.518l.528,6.422c4.965,1.258,6.006.066,6.057-.927s.593-4.952.593-4.952,4.712-23.78,4.9-27.223a28.713,28.713,0,0,0-1.836-11.85C411.466,273.467,416.026,258.135,414.6,246.847Z" transform="translate(-351.479 -169.281)"/><path class="o" d="M400.946,355.19l.528,6.422c4.965,1.258,6.006.066,6.057-.927,0-.225.051-.616.1-1.072-.8,1.642-2.443,1.165-3.383-1.178s-5.059-22.774-5.059-22.774C400.05,345.233,400.946,355.19,400.946,355.19Z" transform="translate(-352.192 -204.125)"/><path class="r" d="M399.2,232.56l-25.261,2.648s-6.238,40.854-6.715,44.708a18.744,18.744,0,0,0,2.479,12.446c1.684,3.145,15.041,30.05,16.624,35,0,0-6.5.662-9.15.867-3.05.728-1.7,1.708-.773,2.291,1.156.722,3.578.662,6.23.834,2.826.192,5.276.079,7.69.106,4.156.046,4.337-1.721,4.337-1.721h0c-.614-2.483-1.142-4.979-1.561-7.488-1.265-7.488-3.968-22.708-5.782-27.627-1.388-3.813-5.2-8.474-5.2-8.474l8.449-30.341c9.548-2.6,12.67-6.336,13.769-11.652C405.254,239.789,400.976,235.228,399.2,232.56Z" transform="translate(-343.273 -169.281)"/><path class="r" d="M390.19,179.685l1.041,9.937,9.7-.549-.781-11.023Z" transform="translate(-349.697 -150.859)"/><path class="c" d="M403.89,191.247c-.983-2.648-2.992-4.171-7.43-4.217l-1.633.046c-.311,1.463-5.059,2.648-9.808,1.152a45.288,45.288,0,0,0-6.078.98,29.646,29.646,0,0,0-4.987,14.8c-.123,2.893.246,6.1.911,12.1-1.12,6.839-3.737,19.908-5.414,33.8a4.631,4.631,0,0,0,3.686-1.225c1.077-1.053,2.291-2.992,3.527-9.586,0,8.335,2.313,11.255,5.479,13.1a16.259,16.259,0,0,0,8.666,2.092c11.875-.834,14.159-2.648,15.706-5.919,1.633-10.811,1.727-16.088.86-19.292s-2.732-5.866-5.175-9.931c-1.026-1.728-2.429-4.932-2.168-5.919,1.33-4.76,3.484-9.361,4.091-13.625C404.6,196.04,404.541,193.015,403.89,191.247Z" transform="translate(-343.947 -153.894)"/><g class="s" transform="translate(25.503 33.136)"><path d="M403.89,191.247c-.983-2.648-2.992-4.171-7.43-4.217l-1.633.046c-.311,1.463-5.059,2.648-9.808,1.152a45.288,45.288,0,0,0-6.078.98,29.646,29.646,0,0,0-4.987,14.8c-.123,2.893.246,6.1.911,12.1-1.12,6.839-3.737,19.908-5.414,33.8a4.631,4.631,0,0,0,3.686-1.225c1.077-1.053,2.291-2.992,3.527-9.586,0,8.335,2.313,11.255,5.479,13.1a16.259,16.259,0,0,0,8.666,2.092c11.875-.834,14.159-2.648,15.706-5.919,1.633-10.811,1.727-16.088.86-19.292s-2.732-5.866-5.175-9.931c-1.026-1.728-2.429-4.932-2.168-5.919,1.33-4.76,3.484-9.361,4.091-13.625C404.6,196.04,404.541,193.015,403.89,191.247Z" transform="translate(-369.45 -187.03)"/></g><path class="r" d="M369.158,190.32c-5.2.225-7.488,4.773-7.7,9.043-.4,7.885-.969,14.982-2.168,18.319-1.315,3.575-9.736,10.93-12.287,11.592s-5.927-.662-6.83.49,2.747,1.589,2.891,2.191-4.6,1.893-7.285,1.47-2,3.787,2.031,5.449,9.266.344,14.145-2.906,13.79-9.752,16.031-14.684a50.1,50.1,0,0,0,4.373-15.048C374.658,191.922,369.158,190.32,369.158,190.32Z" transform="translate(-334.165 -155.006)"/><path class="g" d="M372.976,146.7a4.019,4.019,0,0,1,0-1.41,4.268,4.268,0,0,1,2.24-2.906,5,5,0,0,1,3.868-.319,4.1,4.1,0,0,1,2.58-4.555,6.271,6.271,0,0,1,4.46.159,3.487,3.487,0,0,1,1.944,1.529,5.041,5.041,0,0,1,4.873-2.178,4.767,4.767,0,0,1,4.068,3.284c1.446-.3,3.556.3,4.221,1.642.723,1.529-.173,3.416.173,5.018.224,1.033.723,1.986.918,3.059a23.446,23.446,0,0,1,.361,3.549c.21,4.906-12.222,8.1-11.976,11.46l-6.628-7.388c0-.3-.94-1.073-1.149-1.324-.4-.49-.723-1.013-1.113-1.523a10.333,10.333,0,0,0-4.568-3.31,8.246,8.246,0,0,1-3.267-2.45A5.131,5.131,0,0,1,372.976,146.7Z" transform="translate(-344.907 -136.979)"/><path class="o" d="M379.511,164.05s-2.168,2.926-1.872,3.231a5.433,5.433,0,0,0,1.648.662Z" transform="translate(-346.21 -146.128)"/><path class="r" d="M386.674,149.668c-2.089.973-5.7,2.767-6.628,9.692-.947,7.1.81,9.573,1.886,10.507.723.662,4.474.854,6.425.311,2.45-.662,7.748-3.045,10.234-6.713,2.891-4.316,3.527-10.063.152-12.321A13.808,13.808,0,0,0,386.674,149.668Z" transform="translate(-346.809 -141.008)"/><path class="o" d="M383,180.3a11.474,11.474,0,0,0,5.233.377l-.058-1.278a14.549,14.549,0,0,1-2.472.741A9.964,9.964,0,0,1,383,180.3Z" transform="translate(-347.703 -151.316)"/><path class="g" d="M386.716,148.717a8.263,8.263,0,0,0-2.428,1.278,3.139,3.139,0,0,0-.86,1.013,2.146,2.146,0,0,0-.173,1.145,3.092,3.092,0,0,0,1.951,2.469,2.762,2.762,0,0,0-.528,2.469,5.978,5.978,0,0,0,1.908,2.529.592.592,0,0,0,.159.106.445.445,0,0,0,.347-.1c1.308-.8,2.118-2.185,3.975-1.629,2.429.728,2.313,3.482.4,5.2a4.31,4.31,0,0,1-2.544,1.1,2.125,2.125,0,0,1-1.337-.437,5.807,5.807,0,0,0,3.469,5.012,14.7,14.7,0,0,0,7.271.079c1.279-1.5,3.433-3.4,5.2-5.111,5.84-5.614,6.172-13.784-2.436-16.359-.3-.093-.593-.172-.9-.245a19.941,19.941,0,0,0-8.464-.166,19.727,19.727,0,0,0-4.033,1.245C387.4,148.459,387.041,148.584,386.716,148.717Z" transform="translate(-347.769 -140.262)"/><path class="g" d="M387.2,168.361a1.756,1.756,0,0,1-1.037-.847,1.522,1.522,0,0,1-.069-1.271,1.9,1.9,0,0,1,2.349-.993Z" transform="translate(-348.533 -146.5)"/></g></g></svg>