<svg xmlns="http://www.w3.org/2000/svg" width="32.079" height="35.292" viewBox="0 0 32.079 35.292"><defs><style>.a{fill:#e26777;}.b{fill:#fff;}</style></defs><g transform="translate(-40.997)"><ellipse class="a" cx="5.3" cy="4.813" rx="5.3" ry="4.813" transform="translate(50.991 12.833)"/><path class="b" d="M194.638,200.472h-.994v-.9a1,1,0,0,0-1.988,0v.9h-.994a.907.907,0,1,0,0,1.8h.994v.9a1,1,0,0,0,1.988,0v-.9h.994a.907.907,0,1,0,0-1.8Z" transform="translate(-136.359 -183.728)"/><g transform="translate(42.157 6.417)"><ellipse class="a" cx="2.209" cy="2.005" rx="2.209" ry="2.005" transform="translate(0 21.656)"/><ellipse class="a" cx="2.209" cy="2.005" rx="2.209" ry="2.005" transform="translate(25.619)"/></g><path d="M73.077,8.422a2.938,2.938,0,0,0-2.915-2.791,3.759,3.759,0,0,0-.268-.291c-1.582-1.437-4.248-1.663-7.578-.683C60.748,1.762,58.645,0,56.292,0,53.918,0,51.8,1.793,50.226,4.734c-3.44-1.06-6.2-.864-7.818.606-2.572,2.336-1.468,7.259,2.347,12.48a24.586,24.586,0,0,0-2.676,4.513c-1.214,2.755-1.4,5.078-.587,6.729a2.551,2.551,0,0,0-.218,1.018,2.963,2.963,0,0,0,3.092,2.807,3.161,3.161,0,0,0,2.624-1.34,14.881,14.881,0,0,0,3.4-.695c1.555,2.766,3.611,4.441,5.9,4.441,2.272,0,4.312-1.643,5.861-4.363A13.465,13.465,0,0,0,66,31.58a5.625,5.625,0,0,0,3.892-1.286c1.767-1.6,1.884-4.432.329-7.963a24.591,24.591,0,0,0-2.676-4.513,20.4,20.4,0,0,0,3.431-6.752A2.839,2.839,0,0,0,73.077,8.422Zm-1.767,0a1.331,1.331,0,0,1-2.65,0,1.331,1.331,0,0,1,2.65,0Zm-8.294,4.309c-.207-.195-.405-.392-.618-.585a41.549,41.549,0,0,0-4.7-3.685,26.659,26.659,0,0,1,3.691-1.776A24.421,24.421,0,0,1,63.016,12.731Zm.265,2.641c.046.739.079,1.492.079,2.275,0,.915-.043,1.791-.106,2.645-.655.686-1.347,1.375-2.105,2.063a39.542,39.542,0,0,1-5,3.864,39.525,39.525,0,0,1-5-3.864c-.642-.583-1.232-1.165-1.8-1.747-.079-.951-.128-1.934-.128-2.961,0-.894.041-1.752.1-2.588.583-.6,1.186-1.2,1.827-1.777a39.542,39.542,0,0,1,5-3.864,39.524,39.524,0,0,1,5,3.864C61.9,13.964,62.608,14.664,63.281,15.371ZM56.292,1.6c1.534,0,3.112,1.31,4.391,3.613a29.3,29.3,0,0,0-4.531,2.255,29.579,29.579,0,0,0-4.3-2.162C53.139,2.951,54.739,1.6,56.292,1.6ZM51.15,6.782A26.932,26.932,0,0,1,54.6,8.461a41.617,41.617,0,0,0-4.7,3.685c-.1.09-.19.182-.288.273A24.252,24.252,0,0,1,51.15,6.782Zm-7.493-.308a3.864,3.864,0,0,1,2.65-.815,11.481,11.481,0,0,1,3.215.545,27.706,27.706,0,0,0-1.914,8.2c-.627.665-1.214,1.336-1.767,2.012C42.673,11.892,41.959,8.015,43.657,6.474ZM47.48,18.557c-.208-.247-.393-.49-.587-.735q.281-.357.578-.713c0,.18-.013.355-.013.537C47.458,17.954,47.473,18.253,47.48,18.557ZM44.366,31.281a1.209,1.209,0,1,1,1.325-1.2A1.27,1.27,0,0,1,44.366,31.281Zm3.07-1.4a2.979,2.979,0,0,0-3.07-2.609,3.288,3.288,0,0,0-1.5.368,8.128,8.128,0,0,1,.854-4.711,22.225,22.225,0,0,1,2.124-3.7c.553.677,1.153,1.354,1.792,2.028a26.932,26.932,0,0,0,2.022,8.131A13.463,13.463,0,0,1,47.436,29.88Zm2.253-6.6c.074.068.141.137.216.205a41.527,41.527,0,0,0,4.7,3.685A27.13,27.13,0,0,1,51.278,28.8,23.435,23.435,0,0,1,49.688,23.283Zm6.6,10.4c-1.493,0-3.032-1.233-4.291-3.423a29.814,29.814,0,0,0,4.149-2.1,29.49,29.49,0,0,0,4.375,2.192C59.277,32.485,57.763,33.688,56.292,33.688ZM61.265,28.9A26.686,26.686,0,0,1,57.7,27.173a41.528,41.528,0,0,0,4.7-3.685c.192-.174.368-.351.555-.526A23.676,23.676,0,0,1,61.265,28.9Zm7.317-5.971c1.258,2.855,1.281,5.127.063,6.233-1.072.972-3.134,1.072-5.754.306a27.121,27.121,0,0,0,2.082-8.529c.526-.569,1.019-1.14,1.485-1.71A22.221,22.221,0,0,1,68.582,22.928Zm-3.46-5.459c.1.118.193.236.287.355-.1.124-.2.246-.3.371,0-.184.013-.363.013-.548C65.126,17.586,65.122,17.528,65.122,17.469Zm1.339-1.052c-.463-.566-.944-1.131-1.46-1.69a27.864,27.864,0,0,0-1.972-8.6A11.136,11.136,0,0,1,66,5.659a4.334,4.334,0,0,1,2.178.5,2.729,2.729,0,0,0-1.28,2.263,2.865,2.865,0,0,0,2.279,2.7A18.872,18.872,0,0,1,66.461,16.416Z" transform="translate(0 0)"/></g></svg>