<svg xmlns="http://www.w3.org/2000/svg" width="55" height="51" viewBox="0 0 55 51"><defs><style>.a{fill:#e0e0e2;}.b{fill:#898890;}.c{fill:#186a7b;}.d{fill:#2488ff;}.e{fill:#c0ab91;}.f{fill:#ffdaaa;}.g{fill:#ffc477;}.h{fill:#ffde55;}.i{fill:#ffcd00;}.j{fill:#c6c5ca;}.k{fill:#787680;}</style></defs><g transform="translate(-2 -2)"><path class="a" d="M60,34v3.4c0,.935-2.97,1.7-5.5,1.7S49,38.335,49,37.4V34c0,.935,2.97,1.7,5.5,1.7S60,34.935,60,34Z" transform="translate(-3.917 -4.8)"/><path class="a" d="M60,30v3.4c0,.935-2.97,1.7-5.5,1.7S49,34.335,49,33.4V30c0,.935,2.97,1.7,5.5,1.7S60,30.935,60,30Z" transform="translate(-3.917 -4.2)"/><path class="a" d="M60,26v3.4c0,.935-2.97,1.7-5.5,1.7S49,30.335,49,29.4V26c0,.935,2.97,1.7,5.5,1.7S60,26.935,60,26Z" transform="translate(-3.917 -3.6)"/><ellipse class="b" cx="5.5" cy="1.5" rx="5.5" ry="1.5" transform="translate(45 21)"/><path class="c" d="M51.167,58.45H9C9,50.469,15.977,44,24.583,44h11C44.19,44,51.167,50.469,51.167,58.45Z" transform="translate(-0.583 -6.3)"/><path class="d" d="M53.417,58.45H51.583C51.583,50.469,44.606,44,36,44h1.833C46.44,44,53.417,50.469,53.417,58.45Z" transform="translate(-2.833 -6.3)"/><path class="e" d="M43.75,29.7v.85a1.776,1.776,0,0,1-1.833,1.7H41V28h.917a1.776,1.776,0,0,1,1.833,1.7Z" transform="translate(-3.25 -3.9)"/><path class="c" d="M42,21.876v1.7l-2.75,2.55v-2.55l-10.083-2.55-6.417,2.55v2.55L20,23.576v-1.7a6.831,6.831,0,0,1,4.767-6.366H37.233A6.831,6.831,0,0,1,42,21.876Z" transform="translate(-1.5 -2.026)"/><path class="d" d="M43.4,21.876v1.7l-2.75,2.55v-1.7l.917-.85v-1.7A6.831,6.831,0,0,0,36.8,15.51h1.833A6.831,6.831,0,0,1,43.4,21.876Z" transform="translate(-2.9 -2.026)"/><path class="f" d="M39.5,27.1v4.25c0,4.225-3.694,7.65-8.25,7.65S23,35.575,23,31.35v-6.8L29.417,22,39.5,24.55Z" transform="translate(-1.75 -3)"/><path class="g" d="M40.018,24.55v6.8c0,4.225-3.694,7.65-8.25,7.65a8.16,8.16,0,0,1-.917-.051,7.88,7.88,0,0,0,7.333-7.6v-6.8L29.22,22.28l.715-.28Z" transform="translate(-2.268 -3)"/><path class="h" d="M38.667,11.5l-1.815.417.962,1.488L35.22,15.809l-1.6-.892L33.167,16.6H29.5l-.449-1.683-1.6.892L24.852,13.4l.962-1.488L24,11.5V8.1l1.815-.416L24.852,6.2l2.594-2.405,1.6.893L29.5,3h3.667l.449,1.683,1.6-.893L37.814,6.2l-.962,1.488,1.815.416Z" transform="translate(-1.833 -0.15)"/><path class="i" d="M39.583,11.639l-1.815.417.962,1.488-2.594,2.405-1.146-.637L36.9,13.543l-.963-1.488,1.815-.417V8.24l-1.815-.417L36.9,6.335,34.99,4.568l1.146-.637L38.73,6.335l-.962,1.488,1.815.417Z" transform="translate(-2.749 -0.29)"/><path class="h" d="M37,44l-1.861,9.35H27.861L26,44Z" transform="translate(-2 -6.3)"/><path class="i" d="M37.664,44,35.8,53.35H33.97L35.831,44Z" transform="translate(-2.664 -6.3)"/><circle class="a" cx="2.5" cy="2.5" r="2.5" transform="translate(27 7)"/><path class="e" d="M22.75,28v4.25h-.917A1.776,1.776,0,0,1,20,30.55V29.7A1.776,1.776,0,0,1,21.833,28Z" transform="translate(-1.5 -3.9)"/><path class="a" d="M14,34v3.4c0,.935-2.97,1.7-5.5,1.7S3,38.335,3,37.4V34c0,.935,2.97,1.7,5.5,1.7S14,34.935,14,34Z" transform="translate(-0.083 -4.8)"/><path class="a" d="M14,30v3.4c0,.935-2.97,1.7-5.5,1.7S3,34.335,3,33.4V30c0,.935,2.97,1.7,5.5,1.7S14,30.935,14,30Z" transform="translate(-0.083 -4.2)"/><path class="a" d="M14,26v3.4c0,.935-2.97,1.7-5.5,1.7S3,30.335,3,29.4V26c0,.935,2.97,1.7,5.5,1.7S14,26.935,14,26Z" transform="translate(-0.083 -3.6)"/><g transform="translate(7.5 7.1)"><path class="j" d="M60.417,34v3.4c0,.935-2.97,1.7-5.5,1.7-.3,0-.6-.008-.917-.034,2.283-.153,4.583-.842,4.583-1.666V35.207C59.656,34.9,60.417,34.476,60.417,34Z" transform="translate(-11.833 -11.9)"/><path class="j" d="M60.833,30v3.4c0,.476-.761.9-1.833,1.207v-3.4C60.073,30.9,60.833,30.476,60.833,30Z" transform="translate(-12.25 -11.3)"/><path class="j" d="M60.833,26v3.4c0,.476-.761.9-1.833,1.207v-3.4C60.073,26.9,60.833,26.476,60.833,26Z" transform="translate(-12.25 -10.7)"/><path class="j" d="M34.667,10.55a2.656,2.656,0,0,1-2.75,2.55A2.719,2.719,0,0,1,31,12.947a2.56,2.56,0,0,0,1.834-2.4A2.56,2.56,0,0,0,31,8.153,2.719,2.719,0,0,1,31.917,8,2.656,2.656,0,0,1,34.667,10.55Z" transform="translate(-9.917 -8)"/><path class="j" d="M14.417,34v3.4c0,.935-2.97,1.7-5.5,1.7-.3,0-.6-.008-.917-.034,2.283-.153,4.583-.842,4.583-1.666V35.207q.22-.064.412-.128a6.34,6.34,0,0,0,.642-.264A2.332,2.332,0,0,0,14,34.595a.622.622,0,0,0,.119-.093.668.668,0,0,0,.293-.5Z" transform="translate(-8 -11.9)"/><path class="j" d="M14.833,30v3.4a.668.668,0,0,1-.293.5.622.622,0,0,1-.119.094,2.331,2.331,0,0,1-.367.221,6.342,6.342,0,0,1-.642.263q-.192.064-.412.128v-3.4c1.073-.306,1.833-.731,1.833-1.207Z" transform="translate(-8.417 -11.3)"/><path class="j" d="M14.833,26v3.4c0,.476-.761.9-1.833,1.207v-3.4C14.073,26.9,14.833,26.476,14.833,26Z" transform="translate(-8.417 -10.7)"/></g><ellipse class="b" cx="5.5" cy="1.5" rx="5.5" ry="1.5" transform="translate(3 21)"/><path class="k" d="M60.417,25.7c0,.935-2.97,1.7-5.5,1.7-.3,0-.6-.009-.917-.034,2.283-.153,4.583-.842,4.583-1.666s-2.3-1.513-4.583-1.666c.312-.026.614-.034.917-.034C57.447,24,60.417,24.765,60.417,25.7Z" transform="translate(-4.333 -3.3)"/><path class="k" d="M14.417,25.7c0,.935-2.97,1.7-5.5,1.7-.3,0-.6-.009-.917-.034,2.283-.153,4.583-.842,4.583-1.666S10.283,24.187,8,24.034c.312-.026.614-.034.917-.034C11.447,24,14.417,24.765,14.417,25.7Z" transform="translate(-0.5 -3.3)"/><path d="M40.037,29.2h.047a2.656,2.656,0,0,0,2.75-2.55V25.8a2.554,2.554,0,0,0-1.674-2.346l1.405-1.3a.82.82,0,0,0,.269-.6v-1.7a7.627,7.627,0,0,0-4.559-6.817.783.783,0,0,0-.092-.214l-.325-.5.613-.142a.865.865,0,0,0,.7-.825V7.95a.865.865,0,0,0-.694-.824l-.613-.142.325-.5a.8.8,0,0,0-.138-1.039l-2.592-2.4a.971.971,0,0,0-1.12-.128l-.542.3-.153-.569A.907.907,0,0,0,32.75,2H29.083a.907.907,0,0,0-.889.643l-.153.569-.542-.3a.971.971,0,0,0-1.12.128l-2.592,2.4a.8.8,0,0,0-.138,1.039l.325.5-.613.142a.865.865,0,0,0-.694.825v3.4a.865.865,0,0,0,.694.824l.613.142-.325.5a.783.783,0,0,0-.092.214A7.627,7.627,0,0,0,19,19.85v1.7a.82.82,0,0,0,.268.6l1.405,1.3A2.554,2.554,0,0,0,19,25.8v.85a2.656,2.656,0,0,0,2.75,2.55H21.8a8.937,8.937,0,0,0,9.121,7.651A8.937,8.937,0,0,0,40.038,29.2ZM41,26.65a.885.885,0,0,1-.917.85V24.95A.885.885,0,0,1,41,25.8ZM24.5,8.614l1.119-.255a.9.9,0,0,0,.624-.5.8.8,0,0,0-.061-.763l-.593-.917,1.58-1.465.989.55a.98.98,0,0,0,.823.057.872.872,0,0,0,.539-.579L29.795,3.7H32.03L32.3,4.741a.872.872,0,0,0,.539.579.98.98,0,0,0,.823-.057l.989-.55,1.58,1.465-.593.917a.8.8,0,0,0-.061.763.9.9,0,0,0,.624.5l1.119.255v2.072l-1.119.255a.9.9,0,0,0-.624.5.8.8,0,0,0,.061.763l.593.917-1.58,1.465-.989-.55a.98.98,0,0,0-.822-.057.872.872,0,0,0-.539.579l-.27,1.042H29.8l-.275-1.038a.872.872,0,0,0-.539-.579.98.98,0,0,0-.822.057l-.989.55-1.58-1.465.593-.917a.8.8,0,0,0,.061-.763.9.9,0,0,0-.624-.5L24.5,10.686ZM20.833,19.85a5.94,5.94,0,0,1,3.65-5.346l1.9,1.758a.971.971,0,0,0,1.12.128l.542-.3.153.569a.907.907,0,0,0,.889.643H32.75a.907.907,0,0,0,.889-.643l.153-.569.542.3a.971.971,0,0,0,1.12-.128l1.9-1.758A5.94,5.94,0,0,1,41,19.85V21.2l-.917.85v-.5a.863.863,0,0,0-.676-.82L29.324,18.18a.993.993,0,0,0-.6.039l-6.417,2.55a.851.851,0,0,0-.556.781v.5l-.917-.85Zm0,6.8V25.8a.885.885,0,0,1,.917-.85V27.5A.885.885,0,0,1,20.833,26.65Zm10.083,8.5a7.09,7.09,0,0,1-7.333-6.8V22.11L29.15,19.9l9.1,2.3V28.35a7.09,7.09,0,0,1-7.333,6.8Z" transform="translate(-1.417)"/><path d="M31.667,13.8a3.541,3.541,0,0,0,3.667-3.4A3.677,3.677,0,0,0,28,10.4,3.541,3.541,0,0,0,31.667,13.8Zm0-5.1A1.77,1.77,0,0,1,33.5,10.4a1.839,1.839,0,0,1-3.667,0A1.77,1.77,0,0,1,31.667,8.7Z" transform="translate(-2.167 -0.75)"/><path d="M14.833,35.75V25.55c0-2.082-4.752-2.55-6.417-2.55S2,23.468,2,25.55v10.2c0,2.082,4.752,2.55,6.417,2.55S14.833,37.832,14.833,35.75Zm-11-4.988a14.994,14.994,0,0,0,4.583.738A14.994,14.994,0,0,0,13,30.762v1.465a9.125,9.125,0,0,1-4.583.972,9.125,9.125,0,0,1-4.583-.972Zm0-3.4a14.994,14.994,0,0,0,4.583.738A14.994,14.994,0,0,0,13,27.362v1.465a9.125,9.125,0,0,1-4.583.972,9.125,9.125,0,0,1-4.583-.972ZM8.417,24.7a10.548,10.548,0,0,1,4.426.85,10.548,10.548,0,0,1-4.426.85,10.548,10.548,0,0,1-4.426-.85,10.548,10.548,0,0,1,4.426-.85ZM3.833,34.162a14.994,14.994,0,0,0,4.583.738A14.994,14.994,0,0,0,13,34.162v1.477a9.391,9.391,0,0,1-4.583.96,9.391,9.391,0,0,1-4.583-.96Z" transform="translate(0 -3.15)"/><path d="M54.417,23C52.752,23,48,23.468,48,25.55v10.2c0,2.082,4.752,2.55,6.417,2.55s6.417-.468,6.417-2.55V25.55C60.833,23.468,56.081,23,54.417,23ZM59,28.828a9.125,9.125,0,0,1-4.583.972,9.125,9.125,0,0,1-4.583-.972V27.362a14.605,14.605,0,0,0,9.167,0Zm0,3.4a9.125,9.125,0,0,1-4.583.972,9.125,9.125,0,0,1-4.583-.972V30.762a14.605,14.605,0,0,0,9.167,0ZM54.417,24.7a10.548,10.548,0,0,1,4.426.85,11.946,11.946,0,0,1-8.851,0,10.548,10.548,0,0,1,4.426-.85Zm0,11.9a9.391,9.391,0,0,1-4.583-.96V34.162a14.605,14.605,0,0,0,9.167,0v1.477A9.391,9.391,0,0,1,54.417,36.6Z" transform="translate(-3.833 -3.15)"/><path d="M35.5,43h-11C15.392,43.01,8.011,49.854,8,58.3a.885.885,0,0,0,.917.85H51.083A.885.885,0,0,0,52,58.3c-.011-8.446-7.392-15.29-16.5-15.3Zm-1.1,1.7-1.526,7.65H27.128L25.6,44.7ZM9.862,57.45c.479-6.89,6.446-12.356,13.882-12.716l1.72,8.621a.9.9,0,0,0,.9.7h7.269a.9.9,0,0,0,.9-.7l1.72-8.621c7.436.36,13.4,5.826,13.882,12.716Z" transform="translate(-0.5 -6.15)"/><path d="M8,19H9.833v1.7H8Z" transform="translate(-0.5 -2.55)"/><path d="M9.833,11.7H19.917V10h-11A.885.885,0,0,0,8,10.85v5.1H9.833Z" transform="translate(-0.5 -1.2)"/><path d="M54,19h1.833v1.7H54Z" transform="translate(-4.333 -2.55)"/><path d="M53.083,15.95h1.833v-5.1A.885.885,0,0,0,54,10H43v1.7H53.083Z" transform="translate(-3.417 -1.2)"/></g></svg>