<svg xmlns="http://www.w3.org/2000/svg" width="30.424" height="29.139" viewBox="0 0 30.424 29.139"><defs><style>.a{fill:#e26777;}.b{fill:#f7dadc;}.c{fill:#fff;}</style></defs><g transform="translate(-53.334)"><g transform="translate(54.229 0.662)"><path class="a" d="M92.634,278.587H64v-6.623c0-2.926,3.205-5.3,7.159-5.3H85.476c3.953,0,7.159,2.372,7.159,5.3Z" transform="translate(-64 -250.773)"/><path class="a" d="M160.071,176.627h-7.159c-1.977,0-3.579-1.186-3.579-2.649v-3.311H163.65v3.311C163.65,175.441,162.048,176.627,160.071,176.627Z" transform="translate(-142.174 -160.733)"/><path class="a" d="M163.65,15.3H149.333V13.315c0-1.463,1.6-2.649,3.579-2.649h7.159c1.977,0,3.579,1.186,3.579,2.649Z" transform="translate(-142.174 -10.666)"/></g><g transform="translate(58.703 5.298)"><rect class="b" width="14.317" height="5.298" transform="translate(2.684)"/><path class="b" d="M120.017,106.849a2.269,2.269,0,0,0-.895-.183c-.989,0-1.79.593-1.79,1.324s.8,1.324,1.79,1.324a2.27,2.27,0,0,0,.895-.183Z" transform="translate(-117.333 -105.342)"/><path class="b" d="M320,106.849a2.269,2.269,0,0,1,.895-.183c.989,0,1.79.593,1.79,1.324s-.8,1.324-1.79,1.324a2.27,2.27,0,0,1-.895-.183Z" transform="translate(-302.998 -105.342)"/></g><path d="M75.7,15.894h-.023a2.786,2.786,0,0,0,.918-1.987V9.934c1.48,0,2.684-.891,2.684-1.987S78.079,5.96,76.6,5.96V3.311C76.6,1.485,74.592,0,72.125,0H64.967C62.5,0,60.493,1.485,60.493,3.311V5.96c-1.48,0-2.684.891-2.684,1.987s1.2,1.987,2.684,1.987v3.974a2.786,2.786,0,0,0,.918,1.987h-.023c-4.441,0-8.053,2.673-8.053,5.96v6.623c0,.366.4.662.895.662H82.863c.495,0,.895-.3.895-.662V21.854C83.758,18.567,80.145,15.894,75.7,15.894ZM62.282,9.088V5.96H74.81V9.934H62.282ZM77.494,7.947c0,.366-.4.662-.895.662V7.285C77.093,7.285,77.494,7.581,77.494,7.947ZM62.282,3.311c0-1.1,1.2-1.987,2.684-1.987h7.159c1.48,0,2.684.891,2.684,1.987V4.636H62.282ZM59.6,7.947c0-.366.4-.662.895-.662V8.609C60,8.609,59.6,8.313,59.6,7.947Zm2.684,5.96V11.258H74.81v2.649c0,1.1-1.2,1.987-2.684,1.987H64.967C63.487,15.894,62.282,15,62.282,13.907ZM81.968,27.814H76.6v-5.96c0-.366-.4-.662-.895-.662s-.895.3-.895.662v5.96H62.282v-5.96c0-.366-.4-.662-.895-.662s-.895.3-.895.662v5.96H55.124v-5.96c0-2.556,2.811-4.636,6.264-4.636H75.7c3.453,0,6.264,2.08,6.264,4.636Z" transform="translate(0 0)"/><ellipse class="c" cx="1.79" cy="1.324" rx="1.79" ry="1.324" transform="translate(69.441 21.192)"/></g></svg>