<svg xmlns="http://www.w3.org/2000/svg" width="59.021" height="43.823" viewBox="0 0 59.021 43.823"><defs><style>.a{opacity:0.5;}.b{fill:#fff;}.c{fill:#186a7b;}</style></defs><g class="a" transform="translate(18.779)"><path class="b" d="M197.559,89.189c0,1.1-1.2,1.992-2.683,1.992H162.684c-1.482,0-2.683-.891-2.683-1.992V55.326c0-1.1,1.2-1.992,2.683-1.992h32.193c1.482,0,2.683.891,2.683,1.992Z" transform="translate(-158.659 -48.354)"/><path d="M185.55,82.506H153.357c-2.219,0-4.024-1.341-4.024-2.988V45.655c0-1.647,1.805-2.988,4.024-2.988H185.55c2.219,0,4.024,1.341,4.024,2.988V79.518C189.574,81.165,187.769,82.506,185.55,82.506ZM153.357,44.659c-.74,0-1.341.447-1.341,1V79.518c0,.549.6,1,1.341,1H185.55c.74,0,1.341-.447,1.341-1V45.655c0-.549-.6-1-1.341-1Z" transform="translate(-149.333 -38.683)"/><path class="c" d="M229.494,18.635H202.667V16.643c0-3.3,3.6-5.976,8.048-5.976h10.731c4.445,0,8.048,2.675,8.048,5.976Z" transform="translate(-195.96 -9.671)"/><path d="M220.169,9.96H193.341c-.742,0-1.341-.446-1.341-1V6.972C192,3.127,196.213,0,201.39,0h10.731c5.176,0,9.39,3.127,9.39,6.972V8.964C221.51,9.514,220.911,9.96,220.169,9.96ZM194.683,7.968h24.145v-1c0-2.746-3.009-4.98-6.707-4.98H201.39c-3.7,0-6.707,2.234-6.707,4.98v1Z" transform="translate(-186.634)"/><ellipse cx="1.341" cy="0.996" rx="1.341" ry="0.996" transform="translate(18.779 3.984)"/><g transform="translate(8.048 12.948)"><path d="M236.136,140.658H214.674c-.742,0-1.341-.446-1.341-1s.6-1,1.341-1h21.462c.742,0,1.341.446,1.341,1S236.878,140.658,236.136,140.658Z" transform="translate(-213.333 -138.666)"/><path d="M225.405,193.992H214.674c-.742,0-1.341-.446-1.341-1s.6-1,1.341-1h10.731c.742,0,1.341.446,1.341,1S226.147,193.992,225.405,193.992Z" transform="translate(-213.333 -187.02)"/><path d="M348.04,193.992h-5.366c-.742,0-1.341-.446-1.341-1s.6-1,1.341-1h5.366c.742,0,1.341.446,1.341,1S348.782,193.992,348.04,193.992Z" transform="translate(-325.236 -187.02)"/><path d="M310.739,247.325H300.008c-.742,0-1.341-.446-1.341-1s.6-1,1.341-1h10.731c.742,0,1.341.446,1.341,1S311.481,247.325,310.739,247.325Z" transform="translate(-287.936 -235.373)"/><path d="M220.04,247.325h-5.366c-.742,0-1.341-.446-1.341-1s.6-1,1.341-1h5.366c.742,0,1.341.446,1.341,1S220.782,247.325,220.04,247.325Z" transform="translate(-213.333 -235.373)"/><path d="M310.739,353.991H300.008c-.742,0-1.341-.446-1.341-1s.6-1,1.341-1h10.731c.742,0,1.341.446,1.341,1S311.481,353.991,310.739,353.991Z" transform="translate(-287.936 -332.08)"/><path d="M220.04,353.991h-5.366c-.742,0-1.341-.446-1.341-1s.6-1,1.341-1h5.366c.742,0,1.341.446,1.341,1S220.782,353.991,220.04,353.991Z" transform="translate(-213.333 -332.08)"/><path d="M225.405,300.658H214.674c-.742,0-1.341-.446-1.341-1s.6-1,1.341-1h10.731c.742,0,1.341.446,1.341,1S226.147,300.658,225.405,300.658Z" transform="translate(-213.333 -283.726)"/><path d="M348.04,300.658h-5.366c-.742,0-1.341-.446-1.341-1s.6-1,1.341-1h5.366c.742,0,1.341.446,1.341,1S348.782,300.658,348.04,300.658Z" transform="translate(-325.236 -283.726)"/></g></g><ellipse class="c" cx="6.707" cy="4.98" rx="6.707" ry="4.98" transform="translate(40.241 19.92)"/><ellipse cx="1.341" cy="0.996" rx="1.341" ry="0.996" transform="translate(45.607 23.903)"/><path d="M55,34.569c0-3.3-3.61-5.976-8.048-5.976S38.9,31.274,38.9,34.569c0,2.955,2.907,5.409,6.707,5.886v8.057c0,1.647-1.805,2.988-4.024,2.988H40.241c-2.219,0-4.024-1.341-4.024-2.988V44.529c0-2.746-3.009-4.98-6.707-4.98H28.169c-3.7,0-6.707,2.234-6.707,4.98v3.984c0,1.647-1.805,2.988-4.024,2.988H16.1c-2.219,0-4.024-1.341-4.024-2.988v-17c5.285-.493,9.39-3.843,9.39-7.9V12.658c0-1.1-1.2-1.992-2.683-1.992H16.1c-.742,0-1.341.446-1.341,1s.6,1,1.341,1h2.683V19.63c0,3.3-3.61,5.976-8.048,5.976s-8.048-2.68-8.048-5.976V12.658H5.365c.742,0,1.341-.446,1.341-1s-.6-1-1.341-1H2.683C1.2,10.666,0,11.559,0,12.658V23.614c0,4.056,4.1,7.406,9.39,7.9v17c0,2.746,3.009,4.98,6.707,4.98h1.341c3.7,0,6.707-2.234,6.707-4.98V44.529c0-1.647,1.805-2.988,4.024-2.988H29.51c2.219,0,4.024,1.341,4.024,2.988v3.984c0,2.746,3.009,4.98,6.707,4.98h1.341c3.7,0,6.707-2.234,6.707-4.98V40.456C52.09,39.978,55,37.524,55,34.569ZM2.943,25.095a12.676,12.676,0,0,0,7.788,2.5,12.676,12.676,0,0,0,7.788-2.5c-.891,2.58-4.04,4.495-7.788,4.495S3.834,27.674,2.943,25.095ZM46.948,38.553c-2.959,0-5.366-1.787-5.366-3.984s2.406-3.984,5.366-3.984,5.366,1.787,5.366,3.984S49.907,38.553,46.948,38.553Z" transform="translate(0 -9.67)"/></svg>