<svg xmlns="http://www.w3.org/2000/svg" xmlns:xlink="http://www.w3.org/1999/xlink" width="687.5" height="684.5" viewBox="0 0 687.5 684.5"><defs><style>.a,.d,.e,.l{fill:#fff;}.a,.f,.i,.j,.m{stroke:#263238;}.a,.i,.j,.m,.n{stroke-linecap:round;stroke-linejoin:round;}.b,.t{opacity:0.22;}.c,.g{fill:#ff4f5a;}.d{opacity:0.7;}.f,.j,.n{fill:none;}.f,.g{stroke-miterlimit:10;}.g{stroke:#ff4f5a;}.h{clip-path:url(#a);}.i,.q,.v{opacity:0.15;}.k{clip-path:url(#b);}.l,.s{opacity:0.5;}.m{fill:#263238;}.n{stroke:#fff;}.o{clip-path:url(#c);}.p{clip-path:url(#d);}.r{clip-path:url(#e);}.u{clip-path:url(#f);}.w{clip-path:url(#g);}.x{clip-path:url(#h);}.y{clip-path:url(#i);}.z{clip-path:url(#j);}.aa{clip-path:url(#k);}.ab{fill:#7d7d7d;}.ac{clip-path:url(#l);}</style><clipPath id="a"><path class="a" d="M294.871,159.5s.342,9.641-1.712,15.342-.993,17.853-.325,19.979-2,9.293-2,9.293l6.336,9.275s7.329-11.786,10.993-18.2,9.058-12.134,7.329-15.709-6.986-10.7-7.329-12.483-3.425-3.556-3.425-3.556l-5.325,12.831s-.993-9.275-.993-13.546S295.881,156.291,294.871,159.5Z" transform="translate(-290.83 -157.961)"/></clipPath><clipPath id="b"><path class="a" d="M316.984,182l13.339,14.261s-42,74.584-46.335,76.71-20.668-12.153-20.668-12.153l-11.01-64.961S267,204.307,272,213.216s8.322,9.77,8.322,9.77Z" transform="translate(-252.31 -182)"/></clipPath><clipPath id="c"><path class="a" d="M230.934,176.584s-15.668,15.342-17,16.5S200.592,215.187,197.27,223.4s-.342,23.554,1.712,36.66,15,55.3,15,55.3l-3.339,106.679s23,10.356,35.958,12.831,33.664,1.43,33.664,1.43l4.332-23.187,5.325,22.106s20.325-2.493,29.657-13.546L308.262,285.72l-6.336-61.02s-1.712-14.664-5-21.043-21.335-18.916-34.006-23.829S230.934,176.584,230.934,176.584Z" transform="translate(-195.78 -176.311)"/></clipPath><clipPath id="d"><path class="a" d="M231.045,134.822s-13.322,6.434-18.989,17.853,2.654,25.332,5.325,28.888a51.552,51.552,0,0,0,6.336,6.782l2.671,3.208.325,16.057,24.3,22.124,6.661-22.839s11.335-2.493,13.014-7.13-3.339-33.177-4.675-38.9-5.325-16.753-5.325-16.753,1.318-5.352-6.336-10.356S231.045,134.822,231.045,134.822Z" transform="translate(-210.12 -131.781)"/></clipPath><clipPath id="e"><path d="M231.045,134.822s-13.322,6.434-18.989,17.853,2.654,25.332,5.325,28.888a51.552,51.552,0,0,0,6.336,6.782l2.671,3.208.325,16.057,24.3,22.124,6.661-22.839s11.335-2.493,13.014-7.13-3.339-33.177-4.675-38.9-5.325-16.753-5.325-16.753,1.318-5.352-6.336-10.356S231.045,134.822,231.045,134.822Z" transform="translate(-210.12 -131.781)"/></clipPath><clipPath id="f"><path class="a" d="M243.613,147.65l-2,3.923s8,7.863,7.671,9.99-6.661,4.656-6.661,4.656" transform="translate(-241.61 -147.65)"/></clipPath><clipPath id="g"><path class="a" d="M262.25,207.288s1.712-12.831,1.712-13.931-.428-19.32-.428-19.32,6.336-14.664,7.346-15.342,11.661-6.415,12.329-3.923-2.329,3.574-3.339,4.637-5.325,3.208-5.668,4.289-2.329,9.275-2.329,9.275,8.664-7.13,10.993-7.13,4.332,5.7,4.332,5.7,3.014,4.637,3.014,7.13.668,5.352-1.01,7.149-2.329,3.208-4.657,3.208-5.342,2.859-5.342,4.986,0,9.275-2,11.419a121.54,121.54,0,0,1-9.657,7.845Z" transform="translate(-262.25 -154.15)"/></clipPath><clipPath id="h"><path class="a" d="M304.419,161.952s-7.329,4.637-7.329,6.782,1.712,2.493,3.99,1.43,6.678-2.511,6.678-5S306.747,161.585,304.419,161.952Z" transform="translate(-297.09 -161.882)"/></clipPath><clipPath id="i"><path class="a" d="M303.642,159.257s-7,1.833-7.329,4.637,8.664.715,10.668,0S308.985,158.194,303.642,159.257Z" transform="translate(-296.305 -159.109)"/></clipPath><clipPath id="j"><path class="a" d="M306.455,165s-8.322,4.289-8.664,5.719-.993,3.556,2.329,3.556,9.674-3.556,10-6.067S309.126,165,306.455,165Z" transform="translate(-297.501 -165)"/></clipPath><clipPath id="k"><path class="a" d="M307.7,167.76s-7.705,3.776-8.014,5.041-.925,3.153,2.157,3.153,8.938-3.153,9.246-5.352S310.17,167.76,307.7,167.76Z" transform="translate(-299.425 -167.76)"/></clipPath><clipPath id="l"><path class="a" d="M224.754,195.682s5,0,11.01,5.719,27.4,28.906,27.4,28.906l41.66-48.537,13.7,13.912-49.434,77.425a18.269,18.269,0,0,1-7.329,1.081c-3.664-.367-59.657-29.969-59.657-29.969" transform="translate(-202.1 -181.77)"/></clipPath></defs><g class="b" transform="translate(-52.257 -58.837)"><g transform="translate(52.257 58.837)"><path class="c" d="M52.468,440.872s3.9,125.467,100.375,200.271S383.012,709.4,491.2,707.13s191.162-76.692,203.542-178.7S624.43,404.6,579.413,294.05,538.318,145.4,443.353,83.716,200.069,79.409,122.416,207.607,52.468,440.872,52.468,440.872Z" transform="translate(-52.257 -58.837)"/><path class="d" d="M52.468,440.872s3.9,125.467,100.375,200.271S383.012,709.4,491.2,707.13s191.162-76.692,203.542-178.7S624.43,404.6,579.413,294.05,538.318,145.4,443.353,83.716,200.069,79.409,122.416,207.607,52.468,440.872,52.468,440.872Z" transform="translate(-52.257 -58.837)"/></g><g transform="translate(560.286 168.29)"><path class="c" d="M393.556,179.973a17.871,17.871,0,0,0-3.681,8.175l-7.346,4.417V171.688l.137.2,11.729-9.165a19.581,19.581,0,0,0,12.346-2.053c6.027-3.464,10.411-15.36,10.411-15.36s-14.349-1.741-19.212,4.711a18.716,18.716,0,0,0-3.99,12.006l-11.421,8.963V155.576a16.8,16.8,0,0,0,8.7-11.254c2.089-8.67-9.024-25.772-9.024-25.772s-11.592,17.578-9.2,26.487a14.65,14.65,0,0,0,8.8,10.521v33.47l-8.253-7.332a17.3,17.3,0,0,0-4.247-12.831c-5.548-6.69-20.359-6.2-20.359-6.2s6.25,13.381,11.558,17.835c4.657,3.9,11.079,2.31,12.62,1.833l8.681,7.753v10.155H368.915l5.257,35.23h15.8l5.257-35.23H382.6v-6.727l8.082-4.839a17.2,17.2,0,0,0,12.654-1.008,41.624,41.624,0,0,0,11.815-10.888S399.549,172.531,393.556,179.973Z" transform="translate(-348.95 -118.55)"/></g><g transform="translate(91.2 144.681)"><rect class="e" width="173.422" height="15.085" transform="translate(243.147 14.884)"/><rect class="e" width="173.422" height="15.085" transform="translate(243.147 37.503)"/><rect class="e" width="173.422" height="15.085" transform="translate(243.147 60.122)"/><rect class="e" width="173.422" height="15.085" transform="translate(243.147 82.759)"/><rect class="e" width="173.422" height="15.085" transform="translate(243.147 105.378)"/><rect class="e" width="173.422" height="15.085" transform="translate(243.147 127.997)"/><rect class="e" width="173.422" height="15.085" transform="translate(243.147 150.616)"/><rect class="e" width="173.422" height="15.085" transform="translate(243.147 173.235)"/><rect class="e" width="173.422" height="15.085" transform="translate(243.147 195.854)"/><rect class="e" width="173.422" height="15.085" transform="translate(243.147 218.473)"/><rect class="e" width="173.422" height="15.085" transform="translate(243.147 241.092)"/><rect class="e" width="173.422" height="15.085" transform="translate(243.147 263.711)"/><rect class="e" width="173.422" height="15.085" transform="translate(243.147 286.348)"/><rect class="e" width="173.422" height="15.085" transform="translate(58.253 14.884)"/><rect class="e" width="173.422" height="15.085" transform="translate(58.253 37.503)"/><rect class="e" width="173.422" height="15.085" transform="translate(58.253 60.122)"/><rect class="e" width="173.422" height="15.085" transform="translate(58.253 82.759)"/><rect class="e" width="173.422" height="15.085" transform="translate(58.253 105.378)"/><rect class="e" width="173.422" height="15.085" transform="translate(58.253 127.997)"/><rect class="e" width="173.422" height="15.085" transform="translate(58.253 150.616)"/><rect class="e" width="173.422" height="15.085" transform="translate(58.253 173.235)"/><rect class="e" width="173.422" height="15.085" transform="translate(58.253 195.854)"/><rect class="e" width="173.422" height="15.085" transform="translate(58.253 218.473)"/><rect class="e" width="173.422" height="15.085" transform="translate(58.253 241.092)"/><rect class="e" width="173.422" height="15.085" transform="translate(58.253 263.711)"/><rect class="e" width="173.422" height="15.085" transform="translate(58.253 286.348)"/><rect class="f" width="375.56" height="10.998" transform="translate(49.623)"/><rect class="f" width="17.123" height="224.852" transform="translate(32.756 373.305)"/><rect class="f" width="17.123" height="224.852" transform="translate(427.734 373.305)"/><path class="g" d="M117.777,279.33H485.118c13.694,0,24.794,11.883,24.794,26.542v39.9H93V305.89c-.009-14.659,11.084-26.55,24.777-26.56Z" transform="translate(-62.178 38.985)"/><line class="f" x2="370.098" transform="translate(65.667 365.514)"/><line class="f" x2="10.257" transform="translate(36.952 365.514)"/><rect class="f" width="17.123" height="116.083" transform="translate(1.935 482.074)"/><rect class="f" width="17.123" height="116.083" transform="translate(117.242 482.074)"/><path class="g" d="M99.777,338.67h87.584c13.693,0,24.794,11.883,24.794,26.542v39.9H75v-39.9c0-14.651,11.09-26.531,24.777-26.542Z" transform="translate(-75 88.414)"/><rect class="f" width="79.913" height="406.921" transform="translate(492.802 158.846)"/><path class="f" d="M449.046,192.33H414.8V599.251h34.246" transform="translate(167.042 -33.484)"/><path class="f" d="M355.47,639.365V182.33H462.763" transform="translate(124.781 -41.814)"/><rect class="f" width="9.127" height="37.888" transform="translate(556.722 338.478)"/><rect class="f" width="9.127" height="37.888" transform="translate(588.691 338.478)"/></g><g transform="translate(298.012 176.774)"><path class="e" d="M294.871,159.5s.342,9.641-1.712,15.342-.993,17.853-.325,19.979-2,9.293-2,9.293l6.336,9.275s7.329-11.786,10.993-18.2,9.058-12.134,7.329-15.709-6.986-10.7-7.329-12.483-3.425-3.556-3.425-3.556l-5.325,12.831s-.993-9.275-.993-13.546S295.881,156.291,294.871,159.5Z" transform="translate(-128.075 -94.206)"/><g class="h" transform="translate(162.755 63.754)"><path class="i" d="M294.871,159.5s.342,9.641-1.712,15.342-.993,17.853-.325,19.979-2,9.293-2,9.293l6.336,9.275s7.329-11.786,10.993-18.2,9.058-12.134,7.329-15.709-6.986-10.7-7.329-12.483-3.425-3.556-3.425-3.556l-5.325,12.831s-.993-9.275-.993-13.546S295.881,156.291,294.871,159.5Z" transform="translate(-290.83 -157.961)"/></g><path class="j" d="M294.871,159.5s.342,9.641-1.712,15.342-.993,17.853-.325,19.979-2,9.293-2,9.293l6.336,9.275s7.329-11.786,10.993-18.2,9.058-12.134,7.329-15.709-6.986-10.7-7.329-12.483-3.425-3.556-3.425-3.556l-5.325,12.831s-.993-9.275-.993-13.546S295.881,156.291,294.871,159.5Z" transform="translate(-128.075 -94.206)"/><path class="e" d="M316.984,182l13.339,14.261s-42,74.584-46.335,76.71-20.668-12.153-20.668-12.153l-11.01-64.961S267,204.307,272,213.216s8.322,9.77,8.322,9.77Z" transform="translate(-155.513 -74.182)"/><g class="k" transform="translate(96.797 107.818)"><path class="c" d="M275.631,236.366c-1.318,0-2.654-6.177-2.654-9.495s-7.089,2.859-7.089,2.859l-7.962-11.383-2.586,1.338,5.822,34.35S277.5,268.3,281.829,266.152s41.8-68.682,45.958-76.032C317.548,199.413,276.8,236.366,275.631,236.366Z" transform="translate(-250.152 -175.236)"/><path class="l" d="M275.631,236.366c-1.318,0-2.654-6.177-2.654-9.495s-7.089,2.859-7.089,2.859l-7.962-11.383-2.586,1.338,5.822,34.35S277.5,268.3,281.829,266.152s41.8-68.682,45.958-76.032C317.548,199.413,276.8,236.366,275.631,236.366Z" transform="translate(-250.152 -175.236)"/></g><path class="j" d="M316.984,182l13.339,14.261s-42,74.584-46.335,76.71-20.668-12.153-20.668-12.153l-11.01-64.961S267,204.307,272,213.216s8.322,9.77,8.322,9.77Z" transform="translate(-155.513 -74.182)"/><path class="j" d="M266.3,227.775c.856-8.248,6.2-23.425,6.2-23.425s-7.055,10.595-9.2,16.094" transform="translate(-147.685 -55.565)"/><path class="a" d="M260.663,416.112a58.346,58.346,0,0,0,18.407,11.456c11.558,4.582,16.695,7.332,18.407,11.456s0,6.415,0,6.415h-73.2s-3.853-6.415,2.568-19.246S260.663,416.112,260.663,416.112Z" transform="translate(-176.298 120.623)"/><path class="j" d="M248.44,417.48s-5.976,2.8-4.11,4,6.712-1.595,6.712-1.595-5.959,4.8-2.979,5.206,7.466-2.4,7.466-2.4-4.109,5.591-2.243,5.994S260,425.014,260,425.014" transform="translate(-161.454 121.968)"/><line class="j" y1="0.642" x2="73.869" transform="translate(47.312 559.647)"/><path class="m" d="M287.559,315.914s-8.562,74.694-9.846,92.565S264.871,457.511,262.73,465.3a194.939,194.939,0,0,0-4.281,29.786,89.6,89.6,0,0,0,2.141,12.831s.856,4.124-7.277,5.957-23.116,4.582-23.116,4.582-5.565-1.833-5.137-19.246,1.284-49.49,5.137-64.612,8.99-39.867,10.274-44.908-1.712-87.983-1.712-87.983l47.945-.458Z" transform="translate(-174.94 25.151)"/><path class="a" d="M240.913,416.112a58.345,58.345,0,0,0,18.407,11.456c11.558,4.582,16.695,7.332,18.407,11.456s0,6.415,0,6.415h-73.2s-3.853-6.415,2.568-19.246S240.913,416.112,240.913,416.112Z" transform="translate(-190.366 120.623)"/><path class="j" d="M233.779,419.45s-9.332,5.591-7.842,6.379,10.822-4,10.822-4-5.223,6.4-2.243,5.994,6.353-4.381,6.353-4.381-3,6.782-.753,5.994a15.429,15.429,0,0,0,4.863-4" transform="translate(-174.413 123.609)"/><line class="j" x2="74.126" y2="1.21" transform="translate(13.237 558.437)"/><path class="m" d="M216.449,298.75s2.568,71.486,2.14,85.234-7.277,28.869-8.133,45.366-6.986,81.366-6.986,88.7.291,8.725.719,10.1,10.976-1.65,16.969-3.941,26.575-4.6,26.575-4.6-3.425-6.855-3.425-11.9-.856-13.289,0-16.039,5.993-60.03,9.418-70.57,9.418-45.366,9.846-58.655,5.565-58.2,5.565-58.2S234.857,305.624,216.449,298.75Z" transform="translate(-190.302 23.068)"/><path class="n" d="M242.69,331.982c.205-2.75.325-5.316.325-7.662" transform="translate(-162.365 44.367)"/><path class="n" d="M229.32,485.911V471.943c0-7,5.8-41.957,10.873-73.026,3.767-23.022,8.733-46.906,11.044-65.327" transform="translate(-171.889 52.089)"/><path class="e" d="M230.934,176.584s-15.668,15.342-17,16.5S200.592,215.187,197.27,223.4s-.342,23.554,1.712,36.66,15,55.3,15,55.3l-3.339,106.679s23,10.356,35.958,12.831,33.664,1.43,33.664,1.43l4.332-23.187,5.325,22.106s20.325-2.493,29.657-13.546L308.262,285.72l-6.336-61.02s-1.712-14.664-5-21.043-21.335-18.916-34.006-23.829S230.934,176.584,230.934,176.584Z" transform="translate(-195.78 -78.921)"/><g class="o" transform="translate(0 97.39)"><path class="c" d="M244.087,269.224l-33.219-18.953,1.4-13.692s-11.575-1.943-8.921-10.008,13.339-23.334,15.514-28.485,14.161-14.664,14.161-14.664l4.777-7.112c-4.127,0-6.849.293-6.849.293s-15.668,15.342-17,16.5-13.339,22.106-16.661,30.318-.342,23.554,1.712,36.66,15,55.3,15,55.3l-3.339,106.679s5.462,2.456,12.568,5.261c-.976-38.969-2.723-113-2.072-114.048.89-1.411,16.387-24.177,20.8-29.328s-19.469,1.411-18.15.477S244.087,269.224,244.087,269.224Z" transform="translate(-195.765 -176.312)"/><path class="l" d="M244.087,269.224l-33.219-18.953,1.4-13.692s-11.575-1.943-8.921-10.008,13.339-23.334,15.514-28.485,14.161-14.664,14.161-14.664l4.777-7.112c-4.127,0-6.849.293-6.849.293s-15.668,15.342-17,16.5-13.339,22.106-16.661,30.318-.342,23.554,1.712,36.66,15,55.3,15,55.3l-3.339,106.679s5.462,2.456,12.568,5.261c-.976-38.969-2.723-113-2.072-114.048.89-1.411,16.387-24.177,20.8-29.328s-19.469,1.411-18.15.477S244.087,269.224,244.087,269.224Z" transform="translate(-195.765 -176.312)"/><path class="a" d="M242.55,217.75s11.455,117.824,8.733,160.881" transform="translate(-162.465 -141.793)"/><path class="j" d="M213.05,272.25l34.674,5.041v9.623l-34.246-5.957Z" transform="translate(-183.478 -96.396)"/><path class="j" d="M268.786,279.5l-10.7,4.124-1.284-9.165,8.562-3.208" transform="translate(-152.315 -97.229)"/></g><path class="j" d="M230.934,176.584s-15.668,15.342-17,16.5S200.592,215.187,197.27,223.4s-.342,23.554,1.712,36.66,15,55.3,15,55.3l-3.339,106.679s23,10.356,35.958,12.831,33.664,1.43,33.664,1.43l4.332-23.187,5.325,22.106s20.325-2.493,29.657-13.546L308.262,285.72l-6.336-61.02s-1.712-14.664-5-21.043-21.335-18.916-34.006-23.829S230.934,176.584,230.934,176.584Z" transform="translate(-195.78 -78.921)"/><path class="a" d="M215.14,180.129S244.8,218.31,249.8,228.3s12.346,22.124,12.346,22.124.325-33.91-4.007-49.6-8.99-18.513-8.99-18.513a20.376,20.376,0,0,0-19.332-6.434C217.143,178.021,215.14,180.129,215.14,180.129Z" transform="translate(-181.989 -79.643)"/><path class="m" d="M249.709,220.649l-7.226-15.929V190.808l-10-11-.993,17.835,7.329,8.927,3.425,25.863c4.161,7.625,8.3,14.462,8.3,14.462S250.616,234.1,249.709,220.649Z" transform="translate(-170.343 -76.006)"/><path class="a" d="M234.922,189.764l9.675,9.275-8.339-21.409S232.593,187.62,234.922,189.764Z" transform="translate(-168.45 -77.822)"/><path class="e" d="M231.045,134.822s-13.322,6.434-18.989,17.853,2.654,25.332,5.325,28.888a51.552,51.552,0,0,0,6.336,6.782l2.671,3.208.325,16.057,24.3,22.124,6.661-22.839s11.335-2.493,13.014-7.13-3.339-33.177-4.675-38.9-5.325-16.753-5.325-16.753,1.318-5.352-6.336-10.356S231.045,134.822,231.045,134.822Z" transform="translate(-185.565 -116.014)"/><g class="p" transform="translate(24.554 15.767)"><g class="q"><path d="M231.045,134.822s-13.322,6.434-18.989,17.853,2.654,25.332,5.325,28.888a51.552,51.552,0,0,0,6.336,6.782l2.671,3.208.325,16.057,24.3,22.124,6.661-22.839s11.335-2.493,13.014-7.13-3.339-33.177-4.675-38.9-5.325-16.753-5.325-16.753,1.318-5.352-6.336-10.356S231.045,134.822,231.045,134.822Z" transform="translate(-210.12 -131.781)"/><g class="r"><path d="M240.074,186.931c-1.336-7.112,3.99-25.662-1.712-37.924-4.572-9.806-17.808-9.165-23.048-8.413a28.477,28.477,0,0,0-3.219,5.059c-5.668,11.419,2.654,25.332,5.325,28.888a51.554,51.554,0,0,0,6.336,6.782l2.671,3.208.325,16.057,6.712,6.1v-4.6c0-3.134,13.288-3.318,16.832-4.729S241.393,194.043,240.074,186.931Z" transform="translate(-210.091 -124.758)"/><path class="s" d="M240.074,186.931c-1.336-7.112,3.99-25.662-1.712-37.924-4.572-9.806-17.808-9.165-23.048-8.413a28.477,28.477,0,0,0-3.219,5.059c-5.668,11.419,2.654,25.332,5.325,28.888a51.554,51.554,0,0,0,6.336,6.782l2.671,3.208.325,16.057,6.712,6.1v-4.6c0-3.134,13.288-3.318,16.832-4.729S241.393,194.043,240.074,186.931Z" transform="translate(-210.091 -124.758)"/></g></g><path class="t" d="M240.074,186.931c-1.336-7.112,3.99-25.662-1.712-37.924-4.572-9.806-17.808-9.165-23.048-8.413a28.477,28.477,0,0,0-3.219,5.059c-5.668,11.419,2.654,25.332,5.325,28.888a51.554,51.554,0,0,0,6.336,6.782l2.671,3.208.325,16.057,6.712,6.1v-4.6c0-3.134,13.288-3.318,16.832-4.729S241.393,194.043,240.074,186.931Z" transform="translate(-210.091 -124.758)"/></g><path class="j" d="M231.045,134.822s-13.322,6.434-18.989,17.853,2.654,25.332,5.325,28.888a51.552,51.552,0,0,0,6.336,6.782l2.671,3.208.325,16.057,24.3,22.124,6.661-22.839s11.335-2.493,13.014-7.13-3.339-33.177-4.675-38.9-5.325-16.753-5.325-16.753,1.318-5.352-6.336-10.356S231.045,134.822,231.045,134.822Z" transform="translate(-185.565 -116.014)"/><path class="j" d="M224.48,164.78s1.336,5.719,3.664,7.149a33.929,33.929,0,0,0,17.671,4.986" transform="translate(-175.336 -88.526)"/><path class="e" d="M243.613,147.65l-2,3.923s8,7.863,7.671,9.99-6.661,4.656-6.661,4.656" transform="translate(-163.135 -102.795)"/><g class="u" transform="translate(78.475 44.855)"><path class="v" d="M243.613,147.65l-2,3.923s8,7.863,7.671,9.99-6.661,4.656-6.661,4.656" transform="translate(-241.61 -147.65)"/></g><path class="j" d="M243.613,147.65l-2,3.923s8,7.863,7.671,9.99-6.661,4.656-6.661,4.656" transform="translate(-163.135 -102.795)"/><path class="j" d="M238.43,151.89l.531,1.43-4.4,1.87,4.623-.11" transform="translate(-168.156 -99.263)"/><path class="j" d="M240.512,149.2s-5.616-1.65-7.962,3.391" transform="translate(-169.588 -101.721)"/><path class="j" d="M247.27,160.51a28.429,28.429,0,0,1-7.859,1.246" transform="translate(-164.702 -92.083)"/><path class="m" d="M240.729,146.242c8.99-5.7,20-2.145,20-2.145s1.318-5.334-6.336-10.338-23.339,1.063-23.339,1.063-13.322,6.434-18.989,17.853,2.654,25.332,5.325,28.888a51.552,51.552,0,0,0,6.336,6.782l2.671,3.208v1.3c5.411-.7,6.3-1.65,6.3-1.65a5.067,5.067,0,0,1-3.99-1.833c-2.329-2.145-6.661-5.719-5.668-10.7s5-5,7-3.226,2,2.145,4.332,1.081-1.01-7.5-1.01-7.5l3.425-2.493c3.339-2.493,4.332-5.352,1.712-7.845S231.705,151.96,240.729,146.242Z" transform="translate(-185.558 -116.014)"/><path class="a" d="M219.815,171.21l-4.675,12.483L241.8,211.169l7-14.627Z" transform="translate(-181.989 -83.17)"/><path class="m" d="M258.74,123.548s17.329,32.829,20,48.519,7.671,36.385,7.671,36.385l43.664-5.352s-6.336-43.515-10.274-58.142-5-17.853-5-17.853S266.034,121.751,258.74,123.548Z" transform="translate(-150.933 -123.179)"/><path class="e" d="M262.25,207.288s1.712-12.831,1.712-13.931-.428-19.32-.428-19.32,6.336-14.664,7.346-15.342,11.661-6.415,12.329-3.923-2.329,3.574-3.339,4.637-5.325,3.208-5.668,4.289-2.329,9.275-2.329,9.275,8.664-7.13,10.993-7.13,4.332,5.7,4.332,5.7,3.014,4.637,3.014,7.13.668,5.352-1.01,7.149-2.329,3.208-4.657,3.208-5.342,2.859-5.342,4.986,0,9.275-2,11.419a121.54,121.54,0,0,1-9.657,7.845Z" transform="translate(-148.433 -97.381)"/><g class="w" transform="translate(113.817 56.769)"><path class="i" d="M262.25,207.288s1.712-12.831,1.712-13.931-.428-19.32-.428-19.32,6.336-14.664,7.346-15.342,11.661-6.415,12.329-3.923-2.329,3.574-3.339,4.637-5.325,3.208-5.668,4.289-2.329,9.275-2.329,9.275,8.664-7.13,10.993-7.13,4.332,5.7,4.332,5.7,3.014,4.637,3.014,7.13.668,5.352-1.01,7.149-2.329,3.208-4.657,3.208-5.342,2.859-5.342,4.986,0,9.275-2,11.419a121.54,121.54,0,0,1-9.657,7.845Z" transform="translate(-262.25 -154.15)"/></g><path class="j" d="M262.25,207.288s1.712-12.831,1.712-13.931-.428-19.32-.428-19.32,6.336-14.664,7.346-15.342,11.661-6.415,12.329-3.923-2.329,3.574-3.339,4.637-5.325,3.208-5.668,4.289-2.329,9.275-2.329,9.275,8.664-7.13,10.993-7.13,4.332,5.7,4.332,5.7,3.014,4.637,3.014,7.13.668,5.352-1.01,7.149-2.329,3.208-4.657,3.208-5.342,2.859-5.342,4.986,0,9.275-2,11.419a121.54,121.54,0,0,1-9.657,7.845Z" transform="translate(-148.433 -97.381)"/><line class="j" x1="11.335" y2="5.719" transform="translate(130.478 81.35)"/><line class="j" x1="10.651" y2="6.782" transform="translate(128.149 74.219)"/><path class="e" d="M304.419,161.952s-7.329,4.637-7.329,6.782,1.712,2.493,3.99,1.43,6.678-2.511,6.678-5S306.747,161.585,304.419,161.952Z" transform="translate(-123.616 -90.94)"/><g class="x" transform="translate(173.474 70.942)"><path class="i" d="M304.419,161.952s-7.329,4.637-7.329,6.782,1.712,2.493,3.99,1.43,6.678-2.511,6.678-5S306.747,161.585,304.419,161.952Z" transform="translate(-297.09 -161.882)"/></g><path class="j" d="M304.419,161.952s-7.329,4.637-7.329,6.782,1.712,2.493,3.99,1.43,6.678-2.511,6.678-5S306.747,161.585,304.419,161.952Z" transform="translate(-123.616 -90.94)"/><path class="e" d="M303.642,159.257s-7,1.833-7.329,4.637,8.664.715,10.668,0S308.985,158.194,303.642,159.257Z" transform="translate(-124.175 -93.25)"/><g class="y" transform="translate(172.13 65.86)"><path class="i" d="M303.642,159.257s-7,1.833-7.329,4.637,8.664.715,10.668,0S308.985,158.194,303.642,159.257Z" transform="translate(-296.305 -159.109)"/></g><path class="j" d="M303.642,159.257s-7,1.833-7.329,4.637,8.664.715,10.668,0S308.985,158.194,303.642,159.257Z" transform="translate(-124.175 -93.25)"/><path class="e" d="M306.455,165s-8.322,4.289-8.664,5.719-.993,3.556,2.329,3.556,9.674-3.556,10-6.067S309.126,165,306.455,165Z" transform="translate(-123.323 -88.343)"/><g class="z" transform="translate(174.177 76.657)"><path class="i" d="M306.455,165s-8.322,4.289-8.664,5.719-.993,3.556,2.329,3.556,9.674-3.556,10-6.067S309.126,165,306.455,165Z" transform="translate(-297.501 -165)"/></g><path class="j" d="M306.455,165s-8.322,4.289-8.664,5.719-.993,3.556,2.329,3.556,9.674-3.556,10-6.067S309.126,165,306.455,165Z" transform="translate(-123.323 -88.343)"/><path class="e" d="M307.7,167.76s-7.705,3.776-8.014,5.041-.925,3.153,2.157,3.153,8.938-3.153,9.246-5.352S310.17,167.76,307.7,167.76Z" transform="translate(-121.953 -86.044)"/><g class="aa" transform="translate(177.472 81.716)"><path class="i" d="M307.7,167.76s-7.705,3.776-8.014,5.041-.925,3.153,2.157,3.153,8.938-3.153,9.246-5.352S310.17,167.76,307.7,167.76Z" transform="translate(-299.425 -167.76)"/></g><path class="j" d="M307.7,167.76s-7.705,3.776-8.014,5.041-.925,3.153,2.157,3.153,8.938-3.153,9.246-5.352S310.17,167.76,307.7,167.76Z" transform="translate(-121.953 -86.044)"/><path class="ab" d="M266.18,125.93s13.9,25.937,16.472,36.476,4.709,39.867,4.709,39.867l27.825-3.666s-.856-26.578-4.709-39.409-6.849-29.328-6.849-29.328Z" transform="translate(-145.633 -120.887)"/><path class="e" d="M280.452,149.074s-3.185,6.342-1.37,9.037,6.147,3.9,6.609,4.637,3.647,21.464,3.647,21.464l9.794-.971s-4.777-19.283-3.647-22.931,3.887-7.075,1.147-10.246-7.072-5.371-9.794-4.894A17.45,17.45,0,0,0,280.452,149.074Z" transform="translate(-136.841 -104.915)"/><path class="e" d="M274.46,127.17s7.979,22,7.294,25.863-2.517,10.246,1.592,11,5.925-3.409,7.294-3.171,3.647,4.876,5.7,2.2,4.092-7.075.685-11.474-5.925-6.819-7.757-11.456q-2.1-5.754-3.647-11.713Z" transform="translate(-139.735 -119.854)"/><path class="e" d="M224.754,195.682s5,0,11.01,5.719,27.4,28.906,27.4,28.906l41.66-48.537,13.7,13.912-49.434,77.425a18.269,18.269,0,0,1-7.329,1.081c-3.664-.367-59.657-29.969-59.657-29.969" transform="translate(-191.278 -74.374)"/><g class="ac" transform="translate(10.822 107.396)"><path class="c" d="M255.113,246.256c-7.534,0-32.774-15.177-40.736-21.812a27.862,27.862,0,0,1-6.575-8.468L202.1,228.2s55.992,29.6,59.657,29.969a18.27,18.27,0,0,0,7.329-1.081L304.8,201C291.928,214.527,261.038,246.256,255.113,246.256Z" transform="translate(-202.1 -165.752)"/><path class="l" d="M255.113,246.256c-7.534,0-32.774-15.177-40.736-21.812a27.862,27.862,0,0,1-6.575-8.468L202.1,228.2s55.992,29.6,59.657,29.969a18.27,18.27,0,0,0,7.329-1.081L304.8,201C291.928,214.527,261.038,246.256,255.113,246.256Z" transform="translate(-202.1 -165.752)"/></g><path class="j" d="M224.754,195.682s5,0,11.01,5.719,27.4,28.906,27.4,28.906l41.66-48.537,13.7,13.912-49.434,77.425a18.269,18.269,0,0,1-7.329,1.081c-3.664-.367-59.657-29.969-59.657-29.969" transform="translate(-191.278 -74.374)"/><line class="j" x1="18.322" y1="0.367" transform="translate(15.154 181.962)"/><path class="j" d="M242.649,207.87S232.084,221.4,230.8,228.729" transform="translate(-170.835 -52.633)"/><path class="j" d="M240.43,208.63s-8.99,8.707-11.13,13.289" transform="translate(-171.903 -52)"/></g><g transform="translate(72.587 742.837)"><line class="j" x2="666.669"/></g></g></svg>