<svg xmlns="http://www.w3.org/2000/svg" width="17" height="12" viewBox="0 0 17 12"><defs><style>.a{fill:#186a7b;}</style></defs><g transform="translate(0 -117.272)"><path class="a" d="M16.384,117.425,8.516,128.066.647,117.425a.307.307,0,0,0-.523.012.633.633,0,0,0,0,.694l8.13,10.994a.306.306,0,0,0,.523,0l8.13-10.994a.631.631,0,0,0,.009-.707.307.307,0,0,0-.523-.012l-.009.012Z" transform="translate(-0.021)"/><path class="a" d="M8.5,129.273a.329.329,0,0,1-.262-.146L.1,118.133a.631.631,0,0,1,.009-.707.305.305,0,0,1,.513,0L8.5,128.067l7.868-10.641a.307.307,0,0,1,.523-.012.631.631,0,0,1,.009.707l-.009.012-8.13,10.994A.33.33,0,0,1,8.5,129.273Z" transform="translate(0 -0.001)"/></g></svg>