<svg xmlns="http://www.w3.org/2000/svg" width="265.484" height="232" viewBox="0 0 265.484 232"><defs><style>.a{fill:#f0f0f0;}.b{fill:#e0e0e0;}.c{fill:#ff4f5a;}.ae,.d{opacity:0.15;}.ah,.aj,.e,.u,.v,.w{fill:#fff;}.f{fill:#e6e6e6;}.g{fill:#263238;}.h{fill:#37474f;}.i{fill:#455a64;}.j,.r{opacity:0.2;}.k{fill:#b16668;}.l{fill:#9a4a4d;}.m{fill:#f28f8f;}.n{fill:#fafafa;}.o{fill:#ebebeb;}.p{opacity:0.35;}.q{opacity:0.25;}.s,.z{opacity:0.1;}.t{fill:#ffa8a7;}.u{opacity:0.9;}.v{opacity:0.8;}.ak,.w{opacity:0.6;}.x{fill:#ffc4c3;}.ah,.y{opacity:0.75;}.aa{opacity:0.4;}.ab{fill:#f5f5f5;}.ac{fill:#ffbda7;}.ad{fill:#f0997a;}.af{opacity:0.3;}.ag{fill:#9e6767;}.ai{fill:#874c4c;}.aj{opacity:0.5;}.al{opacity:0.13;}</style></defs><g transform="translate(-5.964 -22.737)"><ellipse class="a" cx="132.742" cy="74.086" rx="132.742" ry="74.086" transform="translate(5.964 106.565)"/><ellipse class="b" cx="28.762" cy="16.606" rx="28.762" ry="16.606" transform="translate(109.939 131.788)"/><ellipse class="b" cx="28.762" cy="16.606" rx="28.762" ry="16.606" transform="translate(145.336 159.89)"/><ellipse class="b" cx="28.762" cy="16.606" rx="28.762" ry="16.606" transform="translate(176.312 198.211)"/><ellipse class="b" cx="28.762" cy="16.606" rx="28.762" ry="16.606" transform="translate(202.861 149.67)"/><ellipse class="b" cx="28.762" cy="16.606" rx="28.762" ry="16.606" transform="translate(17.016 149.67)"/><ellipse class="b" cx="28.762" cy="16.606" rx="28.762" ry="16.606" transform="translate(72.327 158.613)"/><ellipse class="b" cx="28.762" cy="16.606" rx="28.762" ry="16.606" transform="translate(41.823 201.579)"/><path class="b" d="M125.435,234.275l.266-8.633a1.309,1.309,0,0,0-1.315-1.359h-16.2a1.309,1.309,0,0,1-1.32-1.359l.466-14.858a1.409,1.409,0,0,1,1.4-1.359h16.212a1.42,1.42,0,0,0,1.4-1.359l.266-8.639a1.42,1.42,0,0,1,1.409-1.359h21.383a1.42,1.42,0,0,1,1.409,1.359l.266,8.633a1.42,1.42,0,0,0,1.4,1.365h16.251a1.409,1.409,0,0,1,1.4,1.359l.422,14.858a1.315,1.315,0,0,1-1.32,1.359H153.026a1.309,1.309,0,0,0-1.315,1.359l.266,8.633a1.315,1.315,0,0,1-1.32,1.365H126.75a1.309,1.309,0,0,1-1.315-1.365Z"/><path class="c" d="M249.61,145.714c-.555-3.728,1.021-11.851,4.183-17.261s8.727-9.837,13.266-8.994c4.228.788,4.566,6.136.194,10.347s-13.76,12.167-15.025,18.531l-.727,5.6Z"/><g class="d"><path d="M249.61,145.714c-.555-3.728,1.021-11.851,4.183-17.261s8.727-9.837,13.266-8.994c4.228.788,4.566,6.136.194,10.347s-13.76,12.167-15.025,18.531l-.727,5.6Z"/></g><path class="e" d="M250.082,150.857a.272.272,0,0,0,.216-.255c.633-13.094,9.432-24.967,15.247-28.141a.277.277,0,1,0-.266-.483c-5.937,3.251-14.886,15.3-15.535,28.6a.272.272,0,0,0,.261.289Z"/><path class="c" d="M250,161.865c.289-2.18,2.347-6.014,6.07-9.482,4.117-3.828,9.7-6.1,10.68-8.788,1.171-3.19-1.731-5.62-6.353-4.344s-11.951,8.888-11.834,18.764Z"/><path class="e" d="M248.767,159.79a.272.272,0,0,0,.205-.216c2.308-11.474,10.07-16.523,13.871-17.588a.287.287,0,1,0-.15-.555c-4.178,1.176-11.884,6.292-14.237,18.01a.266.266,0,0,0,.216.322A.211.211,0,0,0,248.767,159.79Z"/><path class="c" d="M28.324,144.46s1.548-7.928-.383-15.069-5.987-12.5-10.747-14.425-10.114,1.315-5.87,6.048S23.857,131.821,24.479,144.7Z"/><g class="d"><path d="M28.324,144.46s1.548-7.928-.383-15.069-5.987-12.5-10.747-14.425-10.114,1.315-5.87,6.048S23.857,131.821,24.479,144.7Z"/></g><path class="e" d="M27.519,142.035h.055a.266.266,0,0,0,.25-.294c-1.11-14.309-9.271-22.7-13.41-25.139a.272.272,0,0,0-.372.094.277.277,0,0,0,.094.377c4.056,2.386,12.023,10.63,13.144,24.712a.272.272,0,0,0,.239.25Z"/><path class="c" d="M6.736,133.868a4.243,4.243,0,0,0,1.8,2.585,4.93,4.93,0,0,1,1.953,2.5c.455,2.125-2.064,4.089-1.52,6.192a3.379,3.379,0,0,0,1.781,1.981,21.638,21.638,0,0,0,2.086.893,8.977,8.977,0,0,0,1.049.25,4.882,4.882,0,0,1,2.857,1.282c1.165,1.259,1.015,3.2,1.431,4.866a7.107,7.107,0,0,0,3.817,4.561c1.542.738,4.078,1.16,4.727.583.494-.438.078-2.38.261-3.018a26.632,26.632,0,0,0,.949-4.993,9.587,9.587,0,0,1,.4-2.275c.272-.821.555-1.664.8-2.469a7.246,7.246,0,0,0,.694-2.53,9.526,9.526,0,0,0-.638-2.774q-.455-1.343-.938-2.663a13.471,13.471,0,0,0-1.4-3.018,7.1,7.1,0,0,0-4.76-3c-1.581-.233-3.329.133-4.844-.444a42.808,42.808,0,0,0-4.394-1.848,5.631,5.631,0,0,0-4.866.821A2.974,2.974,0,0,0,6.736,133.868Z"/><path class="e" d="M26.693,155.124h0a.244.244,0,0,0,.255-.233c.816-15.23-13.316-22.06-16.833-22.931a.25.25,0,0,0-.294.178.244.244,0,0,0,.178.294c3.457.854,17.266,7.529,16.467,22.437a.233.233,0,0,0,.227.255Z"/><path class="e" d="M12.589,142.69a.233.233,0,0,0,.144-.028A12.916,12.916,0,0,1,23.7,143.1a.25.25,0,0,0,.327-.111.244.244,0,0,0-.111-.327,13.382,13.382,0,0,0-11.407-.427.239.239,0,0,0-.105.327.244.244,0,0,0,.183.128Z"/><path class="f" d="M224.449,66.157c-1.426,3.168-6.558,15.3-6.558,15.3l6.558,5.043c.555-.816,3.978-10.825,3.978-10.825l2.58-13.726C227.706,62.035,225.764,63.25,224.449,66.157Z"/><path class="g" d="M229.037,154.13c-.122.083-.411.416-.921.888a18.41,18.41,0,0,1-1.665,1.271,30.157,30.157,0,0,1-3.656,2.291c-1.509.832-2.868,1.337-4.672,2.153a1.431,1.431,0,0,0-.5.333,1.037,1.037,0,0,0-.222.449,1.87,1.87,0,0,0,.755,1.8,4.993,4.993,0,0,0,1.886.8,9.726,9.726,0,0,0,4.7.139,13.367,13.367,0,0,0,3.778-1.748,8.478,8.478,0,0,1,3.235-1.387,7.281,7.281,0,0,0,3.135-.7c.977-.671.588-2.108.311-3.329-.3-1.348-.372-3.4-.982-3.357l-.05.555c-.05.583-1.459.849-2.552.849-.9,0-2.613-.233-2.608-.66Z"/><path class="g" d="M244.794,161.587l-.083-.716c-.261,0-.377.294-.483.927a13.661,13.661,0,0,1-1.265,3.884,19.17,19.17,0,0,1-2.874,4.361,18.311,18.311,0,0,0-1.526,1.764c-.3.555-.405,2,.1,2.336a8.515,8.515,0,0,0,6.658.694,3.845,3.845,0,0,0,2.9-3.262,9.771,9.771,0,0,1,1.42-4.317,8.779,8.779,0,0,0,1.11-1.476,5.1,5.1,0,0,0-.183-3.157c-.227-.871-.477-1.825-.777-1.748v.555a4.8,4.8,0,0,1-2.724.832C246.381,162.27,244.789,162.137,244.794,161.587Z"/><path class="h" d="M249.777,96.246c.094,4.627,1.071,35.209,1.071,35.209a67.6,67.6,0,0,1,.61,7.535c.128,6.1-.239,21.943-.239,21.943-.394,2.58-7.141,2.125-7.768.932,0,0-1.664-22.631-2.441-28.684-.666-5.276-2.863-22.531-2.863-22.531l-1.726,16.961a51.8,51.8,0,0,1-.133,5.937c-.194,2.774-1.11,21.472-1.11,21.472,0,1.026-6.713,2.192-7.645-.2,0,0-.488-25.7-.555-28.268-.055-2.924.35-30.615.35-30.615Z"/><path class="g" d="M237.6,104.174a15.424,15.424,0,0,1-5.2-3.329,9.475,9.475,0,0,0,4.228,4.439l-.222,21.083,1.714-15.707Z"/><path class="i" d="M242.1,61.341c.866.205,3.606.943,5.831,1.731a6.192,6.192,0,0,1,2.807,2.147c1.615,2.358.161,7.6-1.032,17.477.094,6.375.277,14.3.277,14.3-2.935,2.136-16.611,3.584-22.781-.921,0,0-.205-23.93.205-27.042.777-5.953,3.113-7.546,7.923-7.829Z"/><path class="c" d="M233.7,68.332c-.433,1.487-2.991,11.956-2.63,15.641a22.892,22.892,0,0,0,1.52,5.5c1.11,2.624,1.848.277,2.469-1.271a19.7,19.7,0,0,0,1.038-4.477c.205-1.975-.588-7.989-.283-15.036a1.515,1.515,0,0,0-2.114-.361Z"/><path class="j" d="M233.7,68.332c-.433,1.487-2.991,11.956-2.63,15.641a22.892,22.892,0,0,0,1.52,5.5c1.11,2.624,1.848.277,2.469-1.271a19.7,19.7,0,0,0,1.038-4.477c.205-1.975-.588-7.989-.283-15.036a1.515,1.515,0,0,0-2.114-.361Z"/><path class="c" d="M233.581,64.97c-1.015.866.094,3.362.094,3.362a2.868,2.868,0,0,1,2.114.361s2.02-.866,2.025-2.358c0-1.365-1.448-.927-2.475-1.11S233.726,64.243,233.581,64.97Z"/><path class="j" d="M233.581,64.97c-1.015.866.094,3.362.094,3.362a2.868,2.868,0,0,1,2.114.361s2.02-.866,2.025-2.358c0-1.365-1.448-.927-2.475-1.11S233.726,64.243,233.581,64.97Z"/><path class="j" d="M233.7,68.332c.166-.588.96-.555,1.6-.732a1.714,1.714,0,0,0,.854-.732c.327-.555,0-1.5-.46-1.6h0c.988.072,2.147-.15,2.147,1.071,0,1.492-2.025,2.358-2.025,2.358a2.869,2.869,0,0,0-2.114-.361Z"/><path class="g" d="M240.622,46.816a6.436,6.436,0,1,1-6.281-6.586,6.436,6.436,0,0,1,6.281,6.586Z"/><path class="g" d="M245.2,51.5a56.482,56.482,0,0,1-1.592,5.665,2.219,2.219,0,0,1-1.309,1l.155-3.445Z"/><path class="g" d="M244.062,44.453a2.413,2.413,0,0,1,1.981.749c.838.9.294,3.634-.843,6.3l-1.97.178Z"/><path class="k" d="M242.642,51.671c.388.244.971-.5,1.47-1a1.7,1.7,0,0,1,2.846.555c.749,1.709-.788,3.928-2.047,4.289-2.169.621-2.458-.766-2.458-.766l-.366,8.783h0c-1.537,1.875-5.149,1.981-6.935,1.615-1.431-.289-1.454-1.3-.044-2.857l.067-2.519a13.71,13.71,0,0,1-2.9.083c-1.576-.283-2.547-1.554-2.979-3.279-.666-2.635-.827-5.576-.166-10.392.816-5.914,7.768-5.809,11.424-3.373S242.642,51.671,242.642,51.671Z"/><path class="g" d="M242.625,52.331c.2,0,.982-1.226,1.487-1.664.694-.6-.05-6.22-.05-6.22a2.713,2.713,0,0,0-.394-3.029,6.261,6.261,0,0,0-5.249-2c-.755,0-1.5.083-2.253.094a8.256,8.256,0,0,1-2.641-.455c-1.154-.372-2.269-.871-3.451-1.148a1.143,1.143,0,0,0-1.11.144,1.032,1.032,0,0,0-.183.849,3.567,3.567,0,0,0,.827,1.859,4.993,4.993,0,0,0-1.221-.061,1.664,1.664,0,0,0-1.11.516,1.559,1.559,0,0,0-.189,1.637,2.774,2.774,0,0,0,1.187,1.226,4.572,4.572,0,0,0,3.235.51,2.269,2.269,0,0,0,1.365,1.254,7.213,7.213,0,0,0,5.842-.055,8.128,8.128,0,0,0,.666.866,4.438,4.438,0,0,0,.91.688,4.009,4.009,0,0,0,.488.244,3.257,3.257,0,0,1,.555.189c.205.155.183.555.222.827.105.7.194,1.415.327,2.119a3.329,3.329,0,0,0,.472,1.454.377.377,0,0,0,.266.161Z"/><path class="g" d="M244.045,44.891l2.413-1.221a1.315,1.315,0,0,0-1.781-.644,1.426,1.426,0,0,0-.633,1.864Z"/><path class="l" d="M235.174,59.749a27.159,27.159,0,0,0,4.8-1.254,4.078,4.078,0,0,0,1.748-1.664A5.631,5.631,0,0,1,240.7,58.8c-.927,1.11-5.548,1.942-5.548,1.942Z"/><path d="M236.356,50.805a.71.71,0,1,0,.671-.771.721.721,0,0,0-.671.771Z"/><path d="M236.822,48.142l1.554.755a.91.91,0,0,0-.416-1.187.843.843,0,0,0-1.137.433Z"/><path d="M229.5,48.825l1.664-.555a.838.838,0,0,0-1.082-.555.9.9,0,0,0-.583,1.11Z"/><path d="M230.3,50.606a.71.71,0,1,0,.777-.671.727.727,0,0,0-.777.671Z"/><path class="l" d="M234.131,50.2l-.255,4.256-2.219-.766Z"/><path class="l" d="M236.533,55.183l-2.774.76a1.42,1.42,0,0,0,1.748,1.065,1.509,1.509,0,0,0,1.026-1.825Z"/><path class="m" d="M236.539,55.888a1.26,1.26,0,0,0-.383-.067,1.32,1.32,0,0,0-1.309,1.193h.05a1.376,1.376,0,0,0,.6,0A1.5,1.5,0,0,0,236.539,55.888Z"/><path class="h" d="M235.152,65.125c1.964-.411,6.6-2.219,7.052-4.5l.061-1.248c.76,0,1.11.854,1.487,2.069.155,3.212-3.229,6.142-6.63,6.93a5.915,5.915,0,0,0-.749-2.108,2.863,2.863,0,0,0-1.221-1.143Z"/><path class="n" d="M242.187,61.031s-1.448,7.274-2.081,12.206-.5,18.809-.172,27.63c.244,6.425,1.2,18.309,1.2,18.309a17.159,17.159,0,0,0,5.415-.311,14.98,14.98,0,0,0,5.6-1.92s-.6-18.054-1.06-24.357c-.422-5.809-.405-9.01-.405-9.01l1.37-13.266s-.105-8.322-2.7-8.689C246.681,61.208,242.187,61.031,242.187,61.031Z"/><path class="c" d="M244.678,72.937a17.338,17.338,0,0,1,.083-1.792c.255-4.067-.117-9.948-1.487-10.242l-.122.555c1,.216,1.16,7.673,1.038,9.648-.055.849-.1,1.52-.083,1.859Z"/><path class="k" d="M249.444,104.862c.71-1.21.749-2.108,1.82-3.19a3.573,3.573,0,0,0,.965-1.615,11.817,11.817,0,0,0,.388-3.035l6.214.289a39.248,39.248,0,0,1-.76,6.874c-1.187,5.177-2.3,7.335-4.555,7.89-3.556.8-4.439-.727-3.185-3.3a12.761,12.761,0,0,0,1.143-3.39,6.335,6.335,0,0,1-1.326,1.182,1.248,1.248,0,0,1-1.692-.183C248.3,106.138,248.883,105.794,249.444,104.862Z"/><path class="a" d="M248.318,61.586s3.074-.044,4.8,1.509,2.658,5.7,3.767,9.87a81.072,81.072,0,0,1,2.4,11.1c.25,2.419-.15,14.98-.15,14.98s-4.267.9-6.974-.555l.222-14.126-4.472-14.187a13.343,13.343,0,0,1,.405-8.589Z"/><path class="o" d="M242.287,58.628c.405-.078.777.133,1.11.694s1.054,1.737,1.054,1.737.372,3.884,0,4.877c-.322.843-2.48,4.821-2.48,4.821s.144,3.884.178,4.993-2.219,5.964-2.447,8.2c0,0-.111-9.088.216-11.612.555-4.389,1.309-9.887,2.286-11.69Z"/><path class="i" d="M243.829,85.759a3.074,3.074,0,0,1-1.753.51l.05-.4a2.463,2.463,0,0,0,1.348-.372,4.9,4.9,0,0,1-1-1.082c-.555-.888-1.476-6.952-.921-8.322.455-1.11,1.8-3.551,2.813-3.551h.028c1.021.044,2.164,2.613,2.53,3.784.438,1.387-.977,7.357-1.626,8.195a4.767,4.767,0,0,1-1.11.988A2.558,2.558,0,0,0,245.5,86V86.4h-.05a3.2,3.2,0,0,1-1.62-.644ZM241.9,76.266c-.51,1.237.355,7.107.888,7.934a4.7,4.7,0,0,0,1.038,1.076,4.438,4.438,0,0,0,1.11-.988c.6-.771,1.959-6.552,1.559-7.829-.488-1.565-1.565-3.473-2.164-3.5h0C243.757,72.965,242.536,74.757,241.9,76.266Z"/><path class="g" d="M241.51,86.048a.588.588,0,1,0,.616-.555A.588.588,0,0,0,241.51,86.048Z"/><path class="g" d="M244.933,86.192a.594.594,0,1,0,.616-.555.594.594,0,0,0-.616.555Z"/><path class="c" d="M241.449,78.741h.338a.133.133,0,0,0,.122-.139,6.775,6.775,0,0,1,.1-2.275c.594-1.448,1.825-3.262,2.358-3.24s1.6,1.936,2.075,3.429a6.885,6.885,0,0,1-.1,2.269.133.133,0,0,0,.105.15l.338.05a.133.133,0,0,0,.15-.111A6.846,6.846,0,0,0,247,76.327c-.25-.8-1.431-3.8-2.619-3.85s-2.624,2.841-2.941,3.617a6.763,6.763,0,0,0-.15,2.541.133.133,0,0,0,.155.105Z"/><path class="n" d="M235.163,60.071c-.555.044-.766.777-1.986,1.11-2.275.677-4.056.943-4.993,2.175-1.526,2.036-1.226,3.7-1.609,14.009s-.5,39.664-.5,39.664a7.912,7.912,0,0,0,3.479.7s-.089-32.4.128-39.687,1.32-10.836,2.9-13.238a8.877,8.877,0,0,1,2.513-4.278Z"/><path class="o" d="M232.588,64.837c-1.576,2.4-2.68,5.953-2.9,13.238-.028.871-.05,2.086-.072,3.551h0s-1.3-6.6-1.065-8.006a22.065,22.065,0,0,1,1.748-4.311,13.027,13.027,0,0,1,1.287-6.8,4.632,4.632,0,0,1,.8-1.054,8.028,8.028,0,0,1,.982-.666,3.556,3.556,0,0,1,1.787-.721v.5a8.833,8.833,0,0,0-2.574,4.261Z"/><path class="h" d="M235.152,60.576a6.613,6.613,0,0,0-1.709,1.465,5.626,5.626,0,0,0-.638,5.648,4.744,4.744,0,0,1,1.01-1.709,3.013,3.013,0,0,1,1.337-.854c-.627-.666-.383-1.831-.044-2.857Z"/><path class="c" d="M211.067,74.741l17.971,6.342,4.943,21.383-.4.427-17.089-6.38-5.831-21.344Z"/><path class="p" d="M228.632,81.509l4.949,21.383.4-.427-4.943-21.383Z"/><path class="q" d="M210.662,75.168l17.971,6.342,4.949,21.383-17.089-6.38Z"/><g class="r"><path d="M219.156,92.168a3.952,3.952,0,0,1-3.534,1.176l-.35-1.243Z"/></g><g class="s"><path d="M216.077,79.551l-.15-.721c-.078-.394.977-.189,2.358.466l3.246.982c1.382.655,2.685,1.137,2.774,1.537l.15.716Z"/></g><path class="h" d="M215.011,76.305c-.055-.25.355-.194.932-.044l1.032.355s-.422-1.043,2.031-.377c2.691.727,2.774,2.075,2.774,2.075a11.887,11.887,0,0,0,1.259.472c.893.288.993.466,1.065.716l.133.455-9.16-3.224S215.061,76.566,215.011,76.305Z"/><path class="h" d="M215.971,77.676c.849.383,1.2.555,1.326,1.182.144.7.178.988.178.988l4.771,1.881s-.261-1.026-.322-1.365.555-.35,1.393.033l-.2-.854L215.7,76.766Z"/><path class="h" d="M215.827,79.562l-.15-.716c-.083-.4.971-.189,2.358.461l3.24.982c1.382.655,2.691,1.11,2.774,1.537l.144.716Z"/><path class="k" d="M212.664,82.486s.633,2.341.8,2.935,3.113,1.953,4.588,2.136c2.819.35,3.135.965,2.458,2.963-.627,1.848-2.458,2.541-4.993,2.219a4.605,4.605,0,0,1-3.49-3.046c-.821-2.358-.377-4.877-.7-6.253S211.943,81.665,212.664,82.486Z"/><path class="t" d="M198.3,204.575c.061-1.664-1.154-18.115-1.154-18.115l8,5.8c-1.664,9.8-1.992,12.112-2.02,13.715h0a1.531,1.531,0,0,1,.044.411c0,1.9-2.158,2.929-3.834,4.2a31.5,31.5,0,0,1-4.533,2.963c-1.215.61-3.69.666-3.995-.117a58.176,58.176,0,0,0,6.625-5.67C198.211,206.917,198.245,206.245,198.3,204.575Z"/><path class="i" d="M187.331,215.483a1.631,1.631,0,0,0,.305,1.665,7.013,7.013,0,0,0,5.127,1.165,8.854,8.854,0,0,0,4.938-1.97,10.6,10.6,0,0,1,3.59-2.308,6.891,6.891,0,0,0,2.574-1.049c.338-.327.294-1.8.294-1.8Z"/><path class="c" d="M203.144,205.513a.405.405,0,0,1,.383.344c.083.4.166,1.581.333,2.247a11.918,11.918,0,0,1,.25,3.568c-.139.755-1.881,1.276-3,1.7a14.093,14.093,0,0,0-3.606,2.28,10.148,10.148,0,0,1-5.365,2c-1.959,0-4.167-.649-4.677-1.559-.621-1.11-.133-1.775,2.774-3.124.555-.255,2.486-1.4,3.146-1.814a10.73,10.73,0,0,0,4.366-4.672,1.11,1.11,0,0,1,.416-.6.9.9,0,0,1,.555-.05,4.772,4.772,0,0,1,1.4.422c.388.183.943.4.932.9a1.482,1.482,0,0,1-.111.51c-.033.1-.061.239.028.294a.23.23,0,0,0,.272-.072,7.63,7.63,0,0,0,.788-.943,2.441,2.441,0,0,1,.46-.466,5.04,5.04,0,0,0,.494-.322C203.177,205.968,203.138,205.746,203.144,205.513Z"/><path class="u" d="M203.144,205.513a.405.405,0,0,1,.383.344c.083.4.166,1.581.333,2.247a11.918,11.918,0,0,1,.25,3.568c-.139.755-1.881,1.276-3,1.7a14.093,14.093,0,0,0-3.606,2.28,10.148,10.148,0,0,1-5.365,2c-1.959,0-4.167-.649-4.677-1.559-.621-1.11-.133-1.775,2.774-3.124.555-.255,2.486-1.4,3.146-1.814a10.73,10.73,0,0,0,4.366-4.672,1.11,1.11,0,0,1,.416-.6.9.9,0,0,1,.555-.05,4.772,4.772,0,0,1,1.4.422c.388.183.943.4.932.9a1.482,1.482,0,0,1-.111.51c-.033.1-.061.239.028.294a.23.23,0,0,0,.272-.072,7.63,7.63,0,0,0,.788-.943,2.441,2.441,0,0,1,.46-.466,5.04,5.04,0,0,0,.494-.322C203.177,205.968,203.138,205.746,203.144,205.513Z"/><path class="c" d="M197.518,215.649c.51-.416,1.049-.821,1.587-1.182h0s-3.418,2.081-4.8,1.11a1.237,1.237,0,0,1-.444-1.587,7.76,7.76,0,0,0-3.04-1.348h0c-.244.133-.444.244-.555.3-2.907,1.348-3.4,2-2.774,3.124.51.91,2.108,1.62,4.644,1.62A10.279,10.279,0,0,0,197.518,215.649Z"/><path class="v" d="M197.518,215.649c.51-.416,1.049-.821,1.587-1.182h0s-3.418,2.081-4.8,1.11a1.237,1.237,0,0,1-.444-1.587,7.76,7.76,0,0,0-3.04-1.348h0c-.244.133-.444.244-.555.3-2.907,1.348-3.4,2-2.774,3.124.51.91,2.108,1.62,4.644,1.62A10.279,10.279,0,0,0,197.518,215.649Z"/><path class="c" d="M194.089,213.325c-1.809.727-1.038,1.065-.555,1.137s3.551-1.709,5.4-3.174,3.157-3.207,3.884-3.773c.266-.211.555-.466.816-.7-.05-.4-.089-.766-.128-.954a.405.405,0,0,0-.383-.344c0,.233.033.455-.144.632a5.031,5.031,0,0,1-.494.322,2.442,2.442,0,0,0-.46.466,7.629,7.629,0,0,1-.788.943,23.5,23.5,0,0,1-7.152,5.448Z"/><path class="n" d="M193.684,214.2a.189.189,0,0,0,.117-.044.183.183,0,0,0,0-.25,4.278,4.278,0,0,0-3.329-1.3.179.179,0,1,0,.039.355,3.989,3.989,0,0,1,3,1.176A.178.178,0,0,0,193.684,214.2Z"/><path class="n" d="M195.26,213.225a.211.211,0,0,0,.117-.039.178.178,0,0,0,0-.255,4.317,4.317,0,0,0-3.329-1.3.179.179,0,0,0,.039.355,3.978,3.978,0,0,1,3,1.176A.183.183,0,0,0,195.26,213.225Z"/><path class="n" d="M196.841,212.3a.172.172,0,0,0,.111-.039.183.183,0,0,0,0-.255,4.311,4.311,0,0,0-3.329-1.3.183.183,0,0,0-.161.2.178.178,0,0,0,.2.155,3.989,3.989,0,0,1,3,1.176A.166.166,0,0,0,196.841,212.3Z"/><path class="n" d="M198.3,211.255a.189.189,0,0,0,.116-.044.183.183,0,0,0,0-.25,4.289,4.289,0,0,0-3.329-1.3.179.179,0,1,0,.039.355,3.989,3.989,0,0,1,3,1.176.183.183,0,0,0,.178.067Z"/><path class="n" d="M199.737,210.207a.189.189,0,0,0,.144-.294,4.394,4.394,0,0,0-3.617-1.32.172.172,0,0,0-.161.194.183.183,0,0,0,.2.161,4.067,4.067,0,0,1,3.3,1.187.183.183,0,0,0,.139.072Z"/><path class="t" d="M213.746,192.319l8.073-.144c-.117,5.387-.977,11.368-1.11,16.428-.028.949,0,7.4-.333,9.354-.555,2.941-4.034,2.547-4.222.782s.227-9.282.216-10.059c0-3.246-1.492-8.716-2.286-14.542C214.04,193.856,213.785,192.6,213.746,192.319Z"/><path class="i" d="M214.834,219.966a8,8,0,0,0,.588,3.967,2.547,2.547,0,0,0,2.824,1.326,3.891,3.891,0,0,0,3.251-2.269,9.482,9.482,0,0,0,.411-4.095Z"/><path class="c" d="M220.726,207.982c.472.089.383,2.408.427,4.749.05,2.508.688,3.606.743,5.665.072,2.352-.155,3.373-1.11,4.7s-3.973,2.408-5.188.255c-.993-1.753-.854-3.579-.516-5.887a58.39,58.39,0,0,0,.7-5.887c.083-1.748.128-3.44.555-3.6v.843c0,.255-.039,1.137.227,1.176a4.3,4.3,0,0,0,.072-.655.771.771,0,0,1,.189-.555.877.877,0,0,1,.555-.183,14.068,14.068,0,0,1,1.448-.078,6.389,6.389,0,0,1,.727.044,2.014,2.014,0,0,1,.6.144.433.433,0,0,1,.233.261.749.749,0,0,1,0,.272,2.006,2.006,0,0,0,0,.483c0,.067.05.155.122.144s.083-.072.089-.128c.033-.283,0-.488.039-.816v-.51C220.637,208.276,220.721,208.132,220.726,207.982Z"/><path class="u" d="M220.726,207.982c.472.089.383,2.408.427,4.749.05,2.508.688,3.606.743,5.665.072,2.352-.155,3.373-1.11,4.7s-3.973,2.408-5.188.255c-.993-1.753-.854-3.579-.516-5.887a58.39,58.39,0,0,0,.7-5.887c.083-1.748.128-3.44.555-3.6v.843c0,.255-.039,1.137.227,1.176a4.3,4.3,0,0,0,.072-.655.771.771,0,0,1,.189-.555.877.877,0,0,1,.555-.183,14.068,14.068,0,0,1,1.448-.078,6.389,6.389,0,0,1,.727.044,2.014,2.014,0,0,1,.6.144.433.433,0,0,1,.233.261.749.749,0,0,1,0,.272,2.006,2.006,0,0,0,0,.483c0,.067.05.155.122.144s.083-.072.089-.128c.033-.283,0-.488.039-.816v-.51C220.637,208.276,220.721,208.132,220.726,207.982Z"/><path class="c" d="M221.858,217.725c0,.338.072,2.585-.555,2.924s-.882-1.415-.882-1.415a5.855,5.855,0,0,0-3.812.133c.078.366-.383,1.52-.971,1.21s-.555-2.88-.555-2.913c-.316,2.219-.416,3.984.555,5.687,1.215,2.153,4.233,1.065,5.188-.255s1.182-2.347,1.11-4.7A5.939,5.939,0,0,1,221.858,217.725Z"/><path class="v" d="M221.858,217.725c0,.338.072,2.585-.555,2.924s-.882-1.415-.882-1.415a5.855,5.855,0,0,0-3.812.133c.078.366-.383,1.52-.971,1.21s-.555-2.88-.555-2.913c-.316,2.219-.416,3.984.555,5.687,1.215,2.153,4.233,1.065,5.188-.255s1.182-2.347,1.11-4.7A5.939,5.939,0,0,1,221.858,217.725Z"/><path class="c" d="M220.216,219.367c-.072.838.782.638.938-.555s-.211-4.061,0-6.1c-.044-2.341.044-4.661-.427-4.749a.477.477,0,0,0,0,.089l-.055,1.176a3.221,3.221,0,0,1-.028.51c-.155,1.709-.25,5.043-.261,6.619a25.815,25.815,0,0,1-.166,3.013Z"/><path class="c" d="M216.853,219.367a28.632,28.632,0,0,1-.161-2.991c0-1.565-.1-4.86-.261-6.58a4.684,4.684,0,0,1-.067-.971c0-.239,0-.555,0-.788v-.05c-.316.111-.427,1.038-.5,2.219,0,.677,0,1.515.067,2.536.211,2.036-.161,4.932,0,6.1S216.937,220.2,216.853,219.367Z"/><path class="n" d="M216.537,219.428h.067a5.659,5.659,0,0,1,3.74,0,.183.183,0,0,0,.128-.338,5.975,5.975,0,0,0-4,0,.183.183,0,0,0-.1.233.189.189,0,0,0,.166.105Z"/><path class="n" d="M216.321,217.564h.061a6.985,6.985,0,0,1,4.183,0,.183.183,0,0,0,.228-.117.178.178,0,0,0-.111-.227,7.3,7.3,0,0,0-4.439,0,.178.178,0,0,0,.061.344Z"/><path class="n" d="M220.626,215.827a.172.172,0,0,0,.161-.105.183.183,0,0,0-.089-.239,6.147,6.147,0,0,0-4.411,0,.178.178,0,0,0-.1.233.183.183,0,0,0,.233.1,6.014,6.014,0,0,1,4.128,0,.194.194,0,0,0,.078.011Z"/><path class="n" d="M220.665,214.163a.172.172,0,0,0,.161-.105.178.178,0,0,0-.083-.239,5.548,5.548,0,0,0-4.5-.05.178.178,0,0,0-.083.239.183.183,0,0,0,.239.089,5.265,5.265,0,0,1,4.189.044A.139.139,0,0,0,220.665,214.163Z"/><path class="o" d="M220.7,212.315a.183.183,0,0,0,.078-.344,5.78,5.78,0,0,0-4.533,0,.179.179,0,0,0,.144.327,5.564,5.564,0,0,1,4.233,0A.128.128,0,0,0,220.7,212.315Z"/><path class="c" d="M217.774,136.554a33.078,33.078,0,0,1,2.536,9.51c.921,11.934.422,29.062.422,29.062.105,1.248.9,4.078,1.426,9.565.633,6.486-.155,28.457-.155,28.457s-3.884,2.308-6.9-.322c0,0-3.512-30.2-4.322-36.618-.71-5.626-2.7-17.8-2.7-17.8l-2.319,18s.216,5.066.067,8.322c-.178,3.806-1.243,23.2-1.243,23.2s-5.326,1.8-7.707-.76c0,0-.555-26.892-.649-31.475-.155-8.983,0-25.35,1.459-34.771Z"/><path class="w" d="M217.774,136.554a33.078,33.078,0,0,1,2.536,9.51c.921,11.934.422,29.062.422,29.062.105,1.248.9,4.078,1.426,9.565.633,6.486-.155,28.457-.155,28.457s-3.884,2.308-6.9-.322c0,0-3.512-30.2-4.322-36.618-.71-5.626-2.7-17.8-2.7-17.8l-2.319,18s.216,5.066.067,8.322c-.178,3.806-1.243,23.2-1.243,23.2s-5.326,1.8-7.707-.76c0,0-.555-26.892-.649-31.475-.155-8.983,0-25.35,1.459-34.771Z"/><path class="j" d="M208.087,158.38l-.832-5.731s-4.838-.644-7.03-2.7a7.956,7.956,0,0,0,5.7,3.6l.854,5.177-.738,15.491Z"/><path class="c" d="M211.494,127.8a12.5,12.5,0,0,0,2.885-.117,4.76,4.76,0,0,0,3.368-2.219,4.848,4.848,0,0,1,.588-1.049,5.846,5.846,0,0,1,1.664-.893,3.551,3.551,0,0,0,1.725-2.652,6.225,6.225,0,0,0-.516-3.174c-.405-1.01-1.221-1.931-1.709-2.907a13.371,13.371,0,0,1-1.77-5.676c-.155-1.947-.089-3.961-.155-5.926-.072-2.219-.122-5.337-2.8-7.768a4.072,4.072,0,0,0-2.4-1.038,7.078,7.078,0,0,0-5.182-3.24,14.426,14.426,0,0,0-4.7.078,8.028,8.028,0,0,0-4.189,2,5.9,5.9,0,0,0-1.787,3.973,4.838,4.838,0,0,0,1.171,3.329,2.669,2.669,0,0,0-.793,1.332,2.757,2.757,0,0,0,2.025,3.14l2.73,2.536a27.5,27.5,0,0,0-.86,5.459c0,1.182,0,2.369.111,3.545.294,3.518,1.215,7.684,4.4,9.837a8.022,8.022,0,0,0,3.068,1.215,7.838,7.838,0,0,0,1.348.155C210.279,127.737,210.895,127.771,211.494,127.8Z"/><g class="r"><path d="M211.494,127.8a12.5,12.5,0,0,0,2.885-.117,4.76,4.76,0,0,0,3.368-2.219,4.848,4.848,0,0,1,.588-1.049,5.846,5.846,0,0,1,1.664-.893,3.551,3.551,0,0,0,1.725-2.652,6.225,6.225,0,0,0-.516-3.174c-.405-1.01-1.221-1.931-1.709-2.907a13.371,13.371,0,0,1-1.77-5.676c-.155-1.947-.089-3.961-.155-5.926-.072-2.219-.122-5.337-2.8-7.768a4.072,4.072,0,0,0-2.4-1.038,7.078,7.078,0,0,0-5.182-3.24,14.426,14.426,0,0,0-4.7.078,8.028,8.028,0,0,0-4.189,2,5.9,5.9,0,0,0-1.787,3.973,4.838,4.838,0,0,0,1.171,3.329,2.669,2.669,0,0,0-.793,1.332,2.757,2.757,0,0,0,2.025,3.14l2.73,2.536a27.5,27.5,0,0,0-.86,5.459c0,1.182,0,2.369.111,3.545.294,3.518,1.215,7.684,4.4,9.837a8.022,8.022,0,0,0,3.068,1.215,7.838,7.838,0,0,0,1.348.155C210.279,127.737,210.895,127.771,211.494,127.8Z"/></g><path class="x" d="M194.228,143.062l3.778,4.683s2.63-4.361,2.524-4.361S197.2,138.1,197.2,138.1Z"/><path class="i" d="M201.868,113.018c-2.968-.044-4.561,1.287-6.741,4.7-1.853,2.913-6.153,9.887-7.363,11.99-1.365,2.375-1.559,3.329-.488,5.115,1.015,1.664,7.5,9.144,7.5,9.144a11.1,11.1,0,0,0,3.235-4.771l-3.778-6.319,7.263-10.736Z"/><path class="c" d="M202.056,112.885a5.664,5.664,0,0,0-4.771,1.587c-1.293,1.254-7.951,12.417-7.951,12.417s.316,1.992,5.937,4.993L201.4,124.7Z"/><path class="w" d="M202.056,112.885a5.664,5.664,0,0,0-4.771,1.587c-1.293,1.254-7.951,12.417-7.951,12.417s.316,1.992,5.937,4.993L201.4,124.7Z"/><path class="c" d="M198.073,127.932c.211,2.352.266,6.958.266,6.958-.854,6.014-1.332,11.929-1.332,11.929,8.983,4.8,22.343.877,24.046-1.11-.843-5.892-2.7-9.56-3.917-12.877l2.253-10.026s-3.884-3.224-3.529-9.765l-5.31-.555-5.066.144-3.6.255a30.431,30.431,0,0,0-4.7,5.865A7.182,7.182,0,0,0,198.073,127.932Z"/><g class="y"><path class="e" d="M198.073,127.932c.211,2.352.266,6.958.266,6.958-.854,6.014-1.332,11.929-1.332,11.929,8.983,4.8,22.343.877,24.046-1.11-.843-5.892-2.7-9.56-3.917-12.877l2.253-10.026s-3.884-3.224-3.529-9.765l-5.31-.555-5.066.144-3.6.255a30.431,30.431,0,0,0-4.7,5.865A7.182,7.182,0,0,0,198.073,127.932Z"/></g><path class="z" d="M204.958,127.7a6.037,6.037,0,0,0,5.226,1.254,4.816,4.816,0,0,0,3.445-3.251,4.255,4.255,0,0,1-3.529,4.106A4.661,4.661,0,0,1,204.958,127.7Z"/><path class="x" d="M201.252,95.9c-1.11.588-2.735,2.73-2.5,8.65.183,4.638,1.531,5.826,2.308,6.175a8.889,8.889,0,0,0,3.784,0l-.072,2.774s-2.713,4.577-1.187,6.458a12.417,12.417,0,0,0,5.975-3.44,4.818,4.818,0,0,0,1.664-3.046l.122-6.059s.843.832,2.347-.372c1.243-.993,1.692-2.7.771-3.651a2.164,2.164,0,0,0-3.384.555s-1.664.072-1.942-3.007a13.278,13.278,0,0,1-3.823-.915A7.458,7.458,0,0,1,201.252,95.9Z"/><path class="i" d="M207.172,115.509c-2.513,0-2.774-.7-2.5-1.875-.455.821-2.452,4.622-1.11,6.3a12.467,12.467,0,0,0,5.992-3.418,5.11,5.11,0,0,0,1.664-2.813A4.468,4.468,0,0,1,207.172,115.509Z"/><path class="m" d="M204.841,110.682c2.125-.51,4.771-1.559,5.3-2.774a4.993,4.993,0,0,1-1.409,2.025,17.949,17.949,0,0,1-3.923,1.664Z"/><path d="M205.635,102.41a.694.694,0,0,0,.621.732.66.66,0,0,0,.749-.555.688.688,0,0,0-.621-.727.66.66,0,0,0-.749.549Z"/><path class="m" d="M205.435,106.793l-2.369.583a1.21,1.21,0,0,0,1.476.9A1.237,1.237,0,0,0,205.435,106.793Z"/><path class="t" d="M205.4,107.475a.86.86,0,0,0-.555-.2.877.877,0,0,0-.877.877.556.556,0,0,0,0,.133,1.187,1.187,0,0,0,.522,0,1.237,1.237,0,0,0,.91-.81Z"/><path d="M199.826,100.817l1.265-.866a.766.766,0,0,0-1.265.866Z"/><path d="M205.984,100.335l1.409.644a.7.7,0,0,0-.344-.988A.838.838,0,0,0,205.984,100.335Z"/><path d="M200.087,102.088a.682.682,0,0,0,.616.727.655.655,0,0,0,.749-.555.694.694,0,0,0-.6-.727.649.649,0,0,0-.76.555Z"/><path class="t" d="M203.582,101.96l-.338,3.756-2.025-.738Z"/><path class="x" d="M223.8,139.594a17.615,17.615,0,0,1-1.276,1.842,2.591,2.591,0,0,1-1.531,1.043,19.418,19.418,0,0,0-3.756.882c-1.071.338-1.748.25-1.787.522-.044.355.144.766,1.11.971a9.46,9.46,0,0,0,2.142,0,13.827,13.827,0,0,1-2.935,2.613c-2.169,1.431-2.907,2.513-.649,3.884,1.664,1,4.522.732,8.489-2.968a42.776,42.776,0,0,0,5.165-6.1Z"/><path class="i" d="M228.588,142.873c6.386-7.962,6.491-9.31,4.611-12.1-11.174-16.545-11.135-16.406-16.722-17.588-2.43,4.183,0,8.261,2.025,10.542l8.134,10.065c-1.071,2.269-2.219,4.439-3.04,5.9h0A10.1,10.1,0,0,0,228.588,142.873Z"/><path class="c" d="M215.827,113.051c3.063.139,5.315.555,7.468,3.2,2.3,2.807,7.64,10.542,7.64,10.542s-1.431,4.405-7.179,5.887l-7.24-9.3S213.885,118.178,215.827,113.051Z"/><path class="w" d="M215.827,113.051c3.063.139,5.315.555,7.468,3.2,2.3,2.807,7.64,10.542,7.64,10.542s-1.431,4.405-7.179,5.887l-7.24-9.3S213.885,118.178,215.827,113.051Z"/><path class="c" d="M211.771,112.63c.949.205,1.2,4.194.977,9.033-.039.8-.094,1.431-.078,1.748h.555c0-.289.028-.91.078-1.664.239-3.823.266-9.377-1.4-9.632a2.175,2.175,0,0,0-.677-.061v.555Z"/><path class="j" d="M211.771,112.63c.949.205,1.2,4.194.977,9.033-.039.8-.094,1.431-.078,1.748h.555c0-.289.028-.91.078-1.664.239-3.823.266-9.377-1.4-9.632a2.175,2.175,0,0,0-.677-.061v.555Z"/><path class="i" d="M212.426,135.449a2.924,2.924,0,0,1-1.664.477l.044-.372a2.43,2.43,0,0,0,1.276-.355,4.477,4.477,0,0,1-.949-1.015c-.555-.832-1.387-6.541-.866-7.812.433-1.054,1.692-3.329,2.647-3.329h.028c.96.039,2.036,2.458,2.38,3.556.411,1.309-.921,6.924-1.531,7.707a4.561,4.561,0,0,1-1.026.932A2.38,2.38,0,0,0,214,135.7v.377h-.044A2.968,2.968,0,0,1,212.426,135.449Zm-1.8-8.949c-.477,1.165.333,6.686.832,7.462a4.439,4.439,0,0,0,.982,1.015,4.439,4.439,0,0,0,1.06-.927c.555-.732,1.848-6.164,1.47-7.368-.46-1.47-1.476-3.268-2.036-3.29h0C212.354,123.41,211.205,125.1,210.628,126.5Z"/><path class="g" d="M210.24,135.716a.555.555,0,1,0,.555-.555A.555.555,0,0,0,210.24,135.716Z"/><path class="g" d="M213.463,135.854a.555.555,0,1,0,.555-.555A.555.555,0,0,0,213.463,135.854Z"/><path class="c" d="M210.184,128.847h.316a.128.128,0,0,0,.117-.133,6.513,6.513,0,0,1,.094-2.142c.555-1.359,1.714-3.068,2.219-3.046s1.509,1.82,1.953,3.224a6.4,6.4,0,0,1-.089,2.142.133.133,0,0,0,.105.144l.316.05a.128.128,0,0,0,.139-.111,6.392,6.392,0,0,0,.067-2.391c-.239-.755-1.348-3.573-2.469-3.623s-2.463,2.669-2.774,3.4a6.4,6.4,0,0,0-.139,2.391A.122.122,0,0,0,210.184,128.847Z"/><g class="r"><path d="M210.184,128.847h.316a.128.128,0,0,0,.117-.133,6.513,6.513,0,0,1,.094-2.142c.555-1.359,1.714-3.068,2.219-3.046s1.509,1.82,1.953,3.224a6.4,6.4,0,0,1-.089,2.142.133.133,0,0,0,.105.144l.316.05a.128.128,0,0,0,.139-.111,6.392,6.392,0,0,0,.067-2.391c-.239-.755-1.348-3.573-2.469-3.623s-2.463,2.669-2.774,3.4a6.4,6.4,0,0,0-.139,2.391A.122.122,0,0,0,210.184,128.847Z"/></g><path class="c" d="M204.8,111.908c-.849.117-3.473,1.409-4.716,5.3s-1.165,9.987-1.11,11.707.155,2.991.155,2.991h.8s-.139-1.9-.178-2.991.1-8.927,1.049-11.4c1.137-2.946,2.425-4.084,4-4.833Z"/><path class="j" d="M204.8,111.908c-.849.117-3.473,1.409-4.716,5.3s-1.165,9.987-1.11,11.707.155,2.991.155,2.991h.8s-.139-1.9-.178-2.991.1-8.927,1.049-11.4c1.137-2.946,2.425-4.084,4-4.833Z"/><path class="i" d="M201.723,132.2a2.219,2.219,0,1,1-2.219-2.219A2.219,2.219,0,0,1,201.723,132.2Z"/><circle class="h" cx="1.254" cy="1.254" r="1.254" transform="translate(198.267 130.944)"/><path class="i" d="M152.061,178.809a1.665,1.665,0,0,0,.305,1.664,6.985,6.985,0,0,0,5.11,1.165,8.854,8.854,0,0,0,4.927-1.964,10.593,10.593,0,0,1,3.584-2.3,6.969,6.969,0,0,0,2.563-1.043c.338-.333.294-1.8.294-1.8Z"/><path class="c" d="M167.829,168.872a.4.4,0,0,1,.388.338c.078.405.161,1.581.327,2.219a11.857,11.857,0,0,1,.25,3.556c-.139.749-1.875,1.271-2.985,1.7a13.871,13.871,0,0,0-3.6,2.269,10.17,10.17,0,0,1-5.354,1.992c-1.953,0-4.156-.644-4.661-1.554-.627-1.11-.139-1.77,2.774-3.113.555-.255,2.48-1.4,3.135-1.809a10.708,10.708,0,0,0,4.355-4.661,1.11,1.11,0,0,1,.416-.6.938.938,0,0,1,.555-.05,4.7,4.7,0,0,1,1.393.422c.394.183.943.4.938.9a1.792,1.792,0,0,1-.111.5c-.033.1-.061.239.028.3s.194,0,.272-.078a8.546,8.546,0,0,0,.782-.938,2.586,2.586,0,0,1,.455-.466,4.527,4.527,0,0,0,.5-.322C167.868,169.322,167.824,169.105,167.829,168.872Z"/><path class="u" d="M167.829,168.872a.4.4,0,0,1,.388.338c.078.405.161,1.581.327,2.219a11.857,11.857,0,0,1,.25,3.556c-.139.749-1.875,1.271-2.985,1.7a13.871,13.871,0,0,0-3.6,2.269,10.17,10.17,0,0,1-5.354,1.992c-1.953,0-4.156-.644-4.661-1.554-.627-1.11-.139-1.77,2.774-3.113.555-.255,2.48-1.4,3.135-1.809a10.708,10.708,0,0,0,4.355-4.661,1.11,1.11,0,0,1,.416-.6.938.938,0,0,1,.555-.05,4.7,4.7,0,0,1,1.393.422c.394.183.943.4.938.9a1.792,1.792,0,0,1-.111.5c-.033.1-.061.239.028.3s.194,0,.272-.078a8.546,8.546,0,0,0,.782-.938,2.586,2.586,0,0,1,.455-.466,4.527,4.527,0,0,0,.5-.322C167.868,169.322,167.824,169.105,167.829,168.872Z"/><path class="c" d="M162.214,178.975c.5-.416,1.043-.821,1.581-1.182h0s-3.412,2.07-4.788,1.11a1.237,1.237,0,0,1-.444-1.581,7.656,7.656,0,0,0-3.035-1.343h0c-.239.133-.438.239-.555.3-2.9,1.343-3.39,1.992-2.774,3.113.5.91,2.1,1.615,4.627,1.615A10.231,10.231,0,0,0,162.214,178.975Z"/><path class="v" d="M162.214,178.975c.5-.416,1.043-.821,1.581-1.182h0s-3.412,2.07-4.788,1.11a1.237,1.237,0,0,1-.444-1.581,7.656,7.656,0,0,0-3.035-1.343h0c-.239.133-.438.239-.555.3-2.9,1.343-3.39,1.992-2.774,3.113.5.91,2.1,1.615,4.627,1.615A10.231,10.231,0,0,0,162.214,178.975Z"/><path class="c" d="M158.8,176.662c-1.8.721-1.038,1.054-.555,1.11s3.54-1.7,5.393-3.163,3.146-3.2,3.884-3.762a10.746,10.746,0,0,0,.816-.7c-.05-.394-.089-.755-.122-.949a.405.405,0,0,0-.388-.338c0,.233.039.449-.139.627a4.525,4.525,0,0,1-.5.322,2.587,2.587,0,0,0-.455.466,8.546,8.546,0,0,1-.782.938A23.289,23.289,0,0,1,158.8,176.662Z"/><path class="n" d="M158.4,177.544a.169.169,0,0,0,.117-.294,4.3,4.3,0,0,0-3.3-1.3.183.183,0,0,0-.161.2.172.172,0,0,0,.2.155,3.961,3.961,0,0,1,2.985,1.176A.183.183,0,0,0,158.4,177.544Z"/><path class="n" d="M159.973,176.556a.172.172,0,0,0,.111-.039.178.178,0,0,0,.028-.25,4.289,4.289,0,0,0-3.329-1.3.179.179,0,0,0,.039.355,3.973,3.973,0,0,1,2.991,1.171A.166.166,0,0,0,159.973,176.556Z"/><path class="n" d="M161.543,175.641a.172.172,0,0,0,.117-.039.183.183,0,0,0,0-.255,4.272,4.272,0,0,0-3.329-1.3.179.179,0,0,0,.039.355,3.961,3.961,0,0,1,2.985,1.171.183.183,0,0,0,.189.067Z"/><path class="n" d="M163,174.592a.172.172,0,0,0,.111-.039.178.178,0,0,0,.028-.25,4.289,4.289,0,0,0-3.329-1.3.179.179,0,0,0,.039.355,3.961,3.961,0,0,1,2.985,1.171.183.183,0,0,0,.166.067Z"/><path class="n" d="M164.428,173.544a.161.161,0,0,0,.111-.039.178.178,0,0,0,.033-.25,4.383,4.383,0,0,0-3.606-1.32.183.183,0,0,0-.161.2.178.178,0,0,0,.194.155,4.067,4.067,0,0,1,3.29,1.187A.183.183,0,0,0,164.428,173.544Z"/><path class="i" d="M179.486,183.281a8.034,8.034,0,0,0,.588,3.956,2.541,2.541,0,0,0,2.813,1.32,3.859,3.859,0,0,0,3.246-2.264,9.488,9.488,0,0,0,.411-4.078Z"/><path class="c" d="M185.362,171.33c.472.089.383,2.4.427,4.738.05,2.5.682,3.6.743,5.648.072,2.341-.155,3.362-1.11,4.683s-3.956,2.4-5.171.255c-.988-1.748-.854-3.568-.516-5.865.35-2.38.61-4.05.7-5.876.078-1.742.128-3.429.555-3.584v.838c0,.25-.039,1.137.227,1.176a3.239,3.239,0,0,0,.072-.655.76.76,0,0,1,.189-.555.877.877,0,0,1,.555-.183,12.527,12.527,0,0,1,1.448-.078,6.187,6.187,0,0,1,.716.039,1.865,1.865,0,0,1,.6.15.427.427,0,0,1,.239.261.716.716,0,0,1,0,.266,2.008,2.008,0,0,0,0,.483c0,.067.05.155.122.15a.144.144,0,0,0,.094-.133c.028-.283,0-.488.033-.816v-.5C185.284,171.619,185.356,171.48,185.362,171.33Z"/><path class="u" d="M185.362,171.33c.472.089.383,2.4.427,4.738.05,2.5.682,3.6.743,5.648.072,2.341-.155,3.362-1.11,4.683s-3.956,2.4-5.171.255c-.988-1.748-.854-3.568-.516-5.865.35-2.38.61-4.05.7-5.876.078-1.742.128-3.429.555-3.584v.838c0,.25-.039,1.137.227,1.176a3.239,3.239,0,0,0,.072-.655.76.76,0,0,1,.189-.555.877.877,0,0,1,.555-.183,12.527,12.527,0,0,1,1.448-.078,6.187,6.187,0,0,1,.716.039,1.865,1.865,0,0,1,.6.15.427.427,0,0,1,.239.261.716.716,0,0,1,0,.266,2.008,2.008,0,0,0,0,.483c0,.067.05.155.122.15a.144.144,0,0,0,.094-.133c.028-.283,0-.488.033-.816v-.5C185.284,171.619,185.356,171.48,185.362,171.33Z"/><path class="c" d="M186.488,181.045c0,.338.078,2.574-.555,2.913s-.877-1.4-.877-1.4a5.858,5.858,0,0,0-3.806.128c.078.366-.383,1.515-.965,1.2s-.555-2.868-.555-2.9c-.316,2.219-.416,3.973.555,5.67,1.215,2.147,4.222,1.06,5.171-.255s1.182-2.341,1.11-4.683C186.527,181.478,186.51,181.256,186.488,181.045Z"/><path class="v" d="M186.488,181.045c0,.338.078,2.574-.555,2.913s-.877-1.4-.877-1.4a5.858,5.858,0,0,0-3.806.128c.078.366-.383,1.515-.965,1.2s-.555-2.868-.555-2.9c-.316,2.219-.416,3.973.555,5.67,1.215,2.147,4.222,1.06,5.171-.255s1.182-2.341,1.11-4.683C186.527,181.478,186.51,181.256,186.488,181.045Z"/><path class="c" d="M184.857,182.682c-.078.838.777.638.932-.555s-.211-4.045,0-6.1c-.044-2.336.044-4.649-.427-4.738v.089l-.055,1.176v.5c-.161,1.7-.255,5.027-.261,6.6a28.476,28.476,0,0,1-.189,3.024Z"/><path class="c" d="M181.5,182.682a28.482,28.482,0,0,1-.161-2.979c0-1.565-.1-4.844-.255-6.564a4.366,4.366,0,0,1-.072-.971c0-.233,0-.555,0-.782v-.05c-.316.111-.427,1.038-.494,2.219,0,.677,0,1.515.067,2.536.211,2.031-.161,4.916,0,6.1S181.578,183.52,181.5,182.682Z"/><path class="n" d="M181.189,182.743h.067a5.643,5.643,0,0,1,3.723,0,.183.183,0,0,0,.233-.105.172.172,0,0,0-.105-.227,5.937,5.937,0,0,0-3.984,0,.178.178,0,0,0-.1.233.183.183,0,0,0,.166.1Z"/><path class="n" d="M180.973,180.873h.055a7.013,7.013,0,0,1,4.178,0,.183.183,0,0,0,.222-.111.178.178,0,0,0-.111-.227,7.318,7.318,0,0,0-4.405,0,.178.178,0,0,0-.111.227A.183.183,0,0,0,180.973,180.873Z"/><path class="n" d="M185.262,179.131a.172.172,0,0,0,.161-.105.183.183,0,0,0-.089-.239,6.153,6.153,0,0,0-4.4-.028.178.178,0,0,0-.094.233.172.172,0,0,0,.227.1,5.966,5.966,0,0,1,4.117,0A.194.194,0,0,0,185.262,179.131Z"/><path class="n" d="M185.312,177.489a.172.172,0,0,0,.161-.1.178.178,0,0,0-.083-.239,5.548,5.548,0,0,0-4.483-.05.183.183,0,0,0-.089.239.178.178,0,0,0,.239.083,5.3,5.3,0,0,1,4.178.05Z"/><path class="o" d="M185.339,175.647a.178.178,0,0,0,.161-.094.183.183,0,0,0-.083-.244,5.777,5.777,0,0,0-4.522,0,.18.18,0,0,0,.15.327,5.509,5.509,0,0,1,4.217,0,.177.177,0,0,0,.078.011Z"/><path class="c" d="M182.421,100.107a32.923,32.923,0,0,1,2.524,9.488c.921,11.9.422,28.973.422,28.973.105,1.243.893,4.067,1.426,9.537.627,6.464-.161,28.374-.161,28.374s-3.884,2.308-6.874-.316c0,0-3.5-30.116-4.311-36.546-.7-5.609-2.685-17.754-2.685-17.754l-2.314,17.954s.211,5.043.061,8.322c-.172,3.8-1.232,23.131-1.232,23.131s-5.315,1.8-7.69-.755c0,0-.555-26.82-.644-31.386-.155-8.955,0-25.278,1.454-34.671Z"/><path class="j" d="M182.421,100.107a32.923,32.923,0,0,1,2.524,9.488c.921,11.9.422,28.973.422,28.973.105,1.243.893,4.067,1.426,9.537.627,6.464-.161,28.374-.161,28.374s-3.884,2.308-6.874-.316c0,0-3.5-30.116-4.311-36.546-.7-5.609-2.685-17.754-2.685-17.754l-2.314,17.954s.211,5.043.061,8.322c-.172,3.8-1.232,23.131-1.232,23.131s-5.315,1.8-7.69-.755c0,0-.555-26.82-.644-31.386-.155-8.955,0-25.278,1.454-34.671Z"/><path class="j" d="M172.761,121.873l-.638-4.394s-4.161.061-6.342-1.992c0,0,.849,2.741,5.077,3.079l.6,3.651-.732,15.452Z"/><path class="m" d="M167.607,77.121c-1.853-.083-4.355.172-5.72,1.792-1.626,1.931-2.07,3.179-3.556,8.877-.982,3.773-2.6,12.151-1.193,13.5s4.938.854,4.938.854Z"/><path class="c" d="M168.545,77c-2.031-.327-5.676-.355-7.5,2.536s-5.177,13.044-5.177,13.044a10.131,10.131,0,0,0,6.447,1.165C166.054,93.211,168.545,77,168.545,77Z"/><path class="z" d="M168.545,77c-2.031-.327-5.676-.355-7.5,2.536s-5.177,13.044-5.177,13.044a10.131,10.131,0,0,0,6.447,1.165C166.054,93.211,168.545,77,168.545,77Z"/><path class="c" d="M176.551,76.793c2.131.205,6.969.743,8.65,1.076,1.465.6,1.11,1.609,1.11,3.373.144,6.064-2.264,18.725-2.264,18.725l1.7,11.862c-2.924,2.918-18.415,4.55-25.472-.122,0,0,1.2-17.316,2.547-25.949.96-6.181,3.185-8.666,5.443-8.761Z"/><path class="j" d="M174.6,88.689l5.97.239v1.148l-6.053-.255Z"/><path class="n" d="M176.529,88.766l.139-1.687h3.906l-.166,1.842Z"/><path class="i" d="M174.87,88.7c.094-1.947.305-2.913.46-3.035a.361.361,0,0,1,.46,0,9.248,9.248,0,0,1,.244,3.079Z"/><path class="i" d="M175.325,88.528c0,.743-.055,2.164.205,2.186s.239-1.376.244-2.186Z"/><path class="z" d="M179.88,77.148c-1.287-.15-2.508-.277-3.329-.355l-5.748.144a7.936,7.936,0,0,0-.111,7.252,17.921,17.921,0,0,0,6.242-3.545C178.837,78.913,179.619,77.864,179.88,77.148Z"/><path class="i" d="M179.364,58.728a3.156,3.156,0,0,1,2.286,1.409c.555,1.06.433,3.667-.189,6.519a26.2,26.2,0,0,1-1.62,5.376,2.186,2.186,0,0,1-1.232,1.038V69.708l.055-2.347a9.654,9.654,0,0,1-1.77-3.7,6.009,6.009,0,0,1,.161-3.057Z"/><path class="i" d="M177.256,62.6a6.281,6.281,0,1,1-6.43-6.1A6.281,6.281,0,0,1,177.256,62.6Z"/><path class="m" d="M178.72,66.934c.377.222.91-.5,1.37-.993a1.634,1.634,0,0,1,2.741.416c.771,1.587-.638,3.778-1.825,4.167-2.053.66-2.375-.655-2.375-.655l-.083,7.651h0a16.672,16.672,0,0,1-7.213,5.171,6.541,6.541,0,0,1,.488-5.548V74.885a12.967,12.967,0,0,1-2.774.166,3.777,3.777,0,0,1-2.952-3.04c-.76-2.624-1.06-4.749-.477-9.926.633-5.681,7.213-5.8,10.814-3.584.755.466.233,1.37.61,2.1a6.913,6.913,0,0,0,1.676,6.336Z"/><path class="k" d="M171.829,74.9a25.941,25.941,0,0,0,4.55-1.348,3.884,3.884,0,0,0,1.615-1.631,5.3,5.3,0,0,1-.91,1.914c-.854,1.11-5.249,1.964-5.249,1.964Z"/><path d="M172.551,66.146a.677.677,0,1,0,.671-.716.7.7,0,0,0-.671.716Z"/><path d="M173.261,63.583l1.454.777a.871.871,0,0,0-.35-1.154.8.8,0,0,0-1.1.377Z"/><path class="k" d="M172.617,70.269l-2.219.866a1.182,1.182,0,0,0,1.537.732,1.265,1.265,0,0,0,.682-1.6Z"/><path d="M166.509,64.2l1.309-1.026a.8.8,0,0,0-1.148-.166.877.877,0,0,0-.161,1.193Z"/><path d="M166.93,66.024a.677.677,0,1,0,.671-.71.688.688,0,0,0-.671.71Z"/><path class="k" d="M170.376,65.331l-.189,4.072-2.131-.7Z"/><path class="h" d="M164.705,56.037a.266.266,0,0,1,.222-.178.338.338,0,0,1,.211.083,9.433,9.433,0,0,0,1.4.888,4.849,4.849,0,0,1-.078-1.875c.061-.383.144-1.265.61-1.37.277-.067.555.161.743.35,1.936,1.72,4.378.832,6.658.843,1.9,0,4.217.721,5.127,2.547a1.755,1.755,0,0,1-.25,2.33,5.36,5.36,0,0,1-2.3.932c-3.767.76-8.833,2.219-11.729-1.259a3.329,3.329,0,0,1-.81-1.726,2.774,2.774,0,0,1,.183-1.542S164.7,56.065,164.705,56.037Z"/><path class="g" d="M165.338,59.366a3.329,3.329,0,0,1-.81-1.726,2.774,2.774,0,0,1,.183-1.542c-.4,1.065-.178,2.774,2.264,3.756s5.493.372,7.152.189a5.165,5.165,0,0,1,2.941.555C173.283,61.369,168.217,62.806,165.338,59.366Z"/><path class="m" d="M183.22,96.451l-.843-7.923c-.9-6.336,1.171-10.192,2.042-10.8,2.475.433,3.973.522,5.387,5.942.522,2.008.555,4.439.849,8.228.233,2.991.239,6.064.183,9.565-.033,2.519-1.11,3-4.261,3.163-2.608.133-10.808-.838-15.391-1.709-1.853-.35-4.572-1.071-6.009-1.459-1.049-.283-5.049-1.143-4.877-2.719a1.426,1.426,0,0,1,.766-1.032,3.717,3.717,0,0,1,1.271-.361,20.612,20.612,0,0,1,5.842,0c1.454.2,2.846.461,4.311.555s4.439-1.726,5.826-1.664C180.962,96.34,183.22,96.451,183.22,96.451Z"/><path class="c" d="M183.78,77.637c2.18-.067,3.684.449,4.616,1.942s1.664,2.774,2.258,7.03c.827,5.981.932,8.811.932,8.811s-4.738,1.936-8.716,0l-.888-7.973S181.334,81.16,183.78,77.637Z"/><path class="z" d="M183.78,77.637c2.18-.067,3.684.449,4.616,1.942s1.664,2.774,2.258,7.03c.827,5.981.932,8.811.932,8.811s-4.738,1.936-8.716,0l-.888-7.973S181.334,81.16,183.78,77.637Z"/><path class="k" d="M187.165,99.658s-.194-2.219-3.945-3.207c0,0-2.258-.111-4.9-.216-1.409-.055-4.439,1.781-5.826,1.664s-2.857-.377-4.311-.555a20.612,20.612,0,0,0-5.842,0,3.717,3.717,0,0,0-1.271.361,1.426,1.426,0,0,0-.766,1.032c-.172,1.576,3.828,2.436,4.877,2.719.755.205,1.875.5,3.029.788,4.211-1.459,13.393-5.343,15.014-5.043A5.47,5.47,0,0,1,187.165,99.658Z"/><path class="m" d="M181.539,96.645c-3.457.627-15.119,5.376-20.5,5.582-1.664-.433-1.886-1.265-2.469-3.49s1.892-4.766,3.484-4.993c15.935,0,21.083,2.175,21.083,2.175l.072.555S182.537,96.5,181.539,96.645Z"/><path class="k" d="M183.148,95.918l.072.533-.7.067.055-.793Z"/><path class="k" d="M161.781,93.81a5.752,5.752,0,0,0-3.04,2.536,4.788,4.788,0,0,1,1.542-2.5A9.8,9.8,0,0,0,161.781,93.81Z"/><path class="h" d="M129.313,36.79a104.4,104.4,0,0,1-4.4,20.767H144.2c1.248-6.519,1.92-13.227,0-20.767Z"/><path class="f" d="M142.956,44.53c2.9.078,3.728,1.243,5.476,3.74S154.8,60.848,154.8,60.848s.816,5.071-2.83,4.328a4.327,4.327,0,0,1-2.58-2.069c-.472-.71-4.161-6.53-4.161-6.53Z"/><path class="b" d="M140.737,44.608c2.741-.688,3.95.849,4.866,2.524,1.465,2.68,2.341,8.156,2.463,18.171.083,6.436,2.319,14.22,2.719,20.323.6,9.177.893,16.323.893,16.323a117.155,117.155,0,0,0-16.373-.971Z"/><path class="t" d="M124.919,137.968s-1.664-11.269-.96-17.871c.594-5.665,1.426-8.039,1.542-9.327,0,0,.954-13.316.694-24.568-.122-5.343.15-11.23,3.95-17.532l.139-.25c.338,2.069,3.518,3.407,6.358,3.723q4.106.449,10.214-1.626c.9,5.343,1.936,15.535,2.985,26.632.516,5.426.427,9.987.516,13.477.122,4.733-.305,23.269-.305,23.269v.782a7.017,7.017,0,0,0,.843,2.835,16.7,16.7,0,0,0,3.118,4.8c.411.411,3.212,2.7,3.59,3.2,1.215,1.326-1.187,2.175-3,1.992-1.909-.189-4.882-.81-5.754-1.942-.588-.749-1.11-3.44-1.692-4.2-2.02-2.569-2.852-3.678-2.9-4.516a8.712,8.712,0,0,1,.588-3.007c-.216-1.792-3.85-11.152-4.089-16.378a54.518,54.518,0,0,1,.433-6.908L138.007,92.4c-.71,5.1-2.058,16.611-2.547,20.273-.671,5.043-3.163,13.577-4.733,20.279a35.244,35.244,0,0,0-1.026,5.282s-.039.555-.039.588c0,.743-.072,8.683-.311,10.364-.5,3.518-3.617,3.179-4.211.372-.5-2.391-.222-9.854-.239-10.764Z"/><path class="h" d="M124.836,137.918c-.877.044-.189,3.418-.344,5.609-.161,2.341-.871,4.078-1.026,6a7.723,7.723,0,0,0,.893,4.882c.655,1.382,3.789,3.2,4.888,1.154a11.23,11.23,0,0,0,1.065-6.514c-.211-2.219-.4-3.884-.5-5.6-.089-1.509.954-5.1-.183-5.282l-.039.594c-.383.827-4.25,1.52-4.76-.033Z"/><path class="g" d="M144.049,138.634a19.735,19.735,0,0,0,.144,4.089,3.984,3.984,0,0,0,2.219,1.664l.621-4.189Z"/><path d="M146.407,144.371l3.678-1.343.788-3.329-4.106,2.253Z"/><path class="h" d="M149.953,134.623v-.782c.516.227,1.759,4.256,3.357,7,1.454,2.5,4.217,3.828,5.138,4.91,1.232,1.443-1,3.429-4.71,2.774-1.842-.333-4.649-1.409-5.437-2.619s-1.11-3.468-1.764-4.35-2.136-1.886-2.48-2.907a5.653,5.653,0,0,1-.089-2.852c.255-.949.472-2.092.793-2l.05.71c.261.494,1.171,1.054,3.035,1.11A2.1,2.1,0,0,0,149.953,134.623Z"/><path class="c" d="M140.282,119.454a38.837,38.837,0,0,1,.311-8.567l-2.68-17.86s-1.831,17.005-2.136,19.641-5.2,31.07-5.2,31.07a8.325,8.325,0,0,1-7.817-.1c0-11.5.361-23.014.777-26.2a54.113,54.113,0,0,1,1.492-6.475s.266-16.772.25-23.136.466-10.63,1.664-13.493a41,41,0,0,1,3.329-5.97s.932,3.14,8.322,3.151,8.189-1.864,8.189-1.864a98.277,98.277,0,0,1,2.88,18.931c.555,9.177.71,13.355.882,17.444.15,3.484.244,7.512.322,14.559.05,5.36.816,17.011.816,17.011s-3.6,1.892-9.543-.261C142.135,137.347,140.648,124.042,140.282,119.454Z"/><path class="aa" d="M140.282,119.454a38.837,38.837,0,0,1,.311-8.567l-2.68-17.86s-1.831,17.005-2.136,19.641-5.2,31.07-5.2,31.07a8.325,8.325,0,0,1-7.817-.1c0-11.5.361-23.014.777-26.2a54.113,54.113,0,0,1,1.492-6.475s.266-16.772.25-23.136.466-10.63,1.664-13.493a41,41,0,0,1,3.329-5.97s.932,3.14,8.322,3.151,8.189-1.864,8.189-1.864a98.277,98.277,0,0,1,2.88,18.931c.555,9.177.71,13.355.882,17.444.15,3.484.244,7.512.322,14.559.05,5.36.816,17.011.816,17.011s-3.6,1.892-9.543-.261C142.135,137.347,140.648,124.042,140.282,119.454Z"/><path class="j" d="M137.913,93.028l1.459-10.8a9.243,9.243,0,0,0,5.637-2.73,7.425,7.425,0,0,1-4.283,4.089l-1.953,9.476,1.426,15.208Z"/><path class="c" d="M134.462,45.363l-3.473.366c-2.3.555-3.329,1.581-3.579,3.623a15.912,15.912,0,0,0,.122,6.658c.732,2.874,2.674,9.909,2.674,9.909s-4.483,5.837-5.293,15.862c8.195,5.343,20.756,2.463,24.152-.766-.289-3.057-2.219-11.452-2.486-14.181,0,0,.178-4.256.516-6.1a6.236,6.236,0,0,0,1.11-7.718c-2.147-4.028-5.393-7.568-6.436-7.562Z"/><path class="w" d="M134.462,45.363l-3.473.366c-2.3.555-3.329,1.581-3.579,3.623a15.912,15.912,0,0,0,.122,6.658c.732,2.874,2.674,9.909,2.674,9.909s-4.483,5.837-5.293,15.862c8.195,5.343,20.756,2.463,24.152-.766-.289-3.057-2.219-11.452-2.486-14.181,0,0,.178-4.256.516-6.1a6.236,6.236,0,0,0,1.11-7.718c-2.147-4.028-5.393-7.568-6.436-7.562Z"/><path class="o" d="M140.776,42.921c1.026,0,1.143.172,2.031,1.354.527.71,3.856,6.2,3.856,6.2s-2.652-3.484-4.649-4.538a4.388,4.388,0,0,0-1.232-.488Z"/><path class="n" d="M134.268,45.363s2.863,7.518,3.512,12.622-1.587,19.347-2.541,29.605c-.621,6.63-1.554,16.384-1.554,16.384a33.845,33.845,0,0,1-5.92-.5c-3.368-.632-4.638-1.52-5.215-2.219,0,0,1.664-16.711,2.48-23.208A40.022,40.022,0,0,1,129.091,65.9l-3.956-16.351a4.112,4.112,0,0,1,2.774-3.529A25.935,25.935,0,0,1,134.268,45.363Z"/><path class="a" d="M136.709,74.413l-10.264-2.286c-.355,1.065-.694,2.219-.965,3.407a67.185,67.185,0,0,0,10.78,2.73Q136.487,76.327,136.709,74.413Z"/><path class="a" d="M129.208,60.648s.311-1.565.782-4.938c.555-3.884.344-5.809-.244-7.041l-3.3,6.3L129.086,65.9h0A41.573,41.573,0,0,0,125.3,76.344h0c2.585-7.318,5.421-9.515,5.421-9.515Z"/><path class="c" d="M133.191,54.6c0-.316-.033-1-.089-1.864-.266-4.211-.388-8.017,1.032-8.322l.128.555c-1.043.222-.694,5.665-.555,7.712.055.877.1,1.57.089,1.92Z"/><path class="h" d="M128.431,26.942l2.219,1.814a1.348,1.348,0,0,0-.189-1.947A1.481,1.481,0,0,0,128.431,26.942Z"/><path class="h" d="M134.229,43.193c0-1.393-3.246-3.473-4.916-6.4s-.843-7.734,1.454-8.494c0,0,.078-.616.089-.66a5.493,5.493,0,0,1,.638-1.559,6.946,6.946,0,0,1,4.76-3.113c7.263-1.06,10.6,1.759,11.934,4.866a7.479,7.479,0,0,1,.555,3.329,3.8,3.8,0,0,1-2.935,3.529Z"/><path class="t" d="M144.293,26.787c1.426.621,2.774,2.774,2.774,8.877,0,5.16-1.6,6.469-2.4,6.852s-2.358.189-3.884-.044V45.44s1.11,1.11.738,1.82-1.875,1.293-4.161.555a4.705,4.705,0,0,1-3.19-2.547l-.05-6.491s-.871.921-2.408-.427c-1.265-1.11-1.725-3.013-.771-4.056a2.046,2.046,0,0,1,3.279.039l.793-.422A15.369,15.369,0,0,0,140,32.74C143.922,30.782,144.321,28.618,144.293,26.787Z"/><path class="h" d="M134.229,33.517v2.868A1.343,1.343,0,0,0,135.6,35a1.481,1.481,0,0,0-1.376-1.481Z"/><path d="M144.427,33.916a.688.688,0,1,0,1.37.05.686.686,0,1,0-1.37-.05Z"/><path d="M138.967,34.222a.738.738,0,1,0,.76-.738.755.755,0,0,0-.76.738Z"/><path d="M146.241,32.646l-1.764-.7a.91.91,0,0,1,1.221-.555.982.982,0,0,1,.544,1.259Z"/><path class="m" d="M142.757,33.362l-.089,4.228,2.275-.51Z"/><path class="k" d="M140.082,38.449l2.219.688a1.11,1.11,0,0,1-1.415.849,1.271,1.271,0,0,1-.8-1.537Z"/><path class="m" d="M141.308,40.025a1.171,1.171,0,0,0-1.171-1.16h-.089a1.237,1.237,0,0,0,.832,1.11A1.027,1.027,0,0,0,141.308,40.025Z"/><path class="m" d="M140.776,42.477c-1.6-.189-4.9-1.11-5.432-2.447a3.484,3.484,0,0,0,1.182,1.7c.993.854,4.25,1.742,4.25,1.742Z"/><path class="o" d="M134.151,42.938c-.422-.083-.793.1-1.11.677s-1.11,1.8-1.11,1.8-.388,4.05,0,5.054c.333.877,4.039,4.15,4.039,4.15a37.671,37.671,0,0,0-1,4.833c-.033,1.193,2.219,5.726,2.491,8.045,0,0,.8-7.29.455-9.909A46.128,46.128,0,0,0,134.173,45.3Z"/><path class="i" d="M132.337,68.682h-.05v-.416a2.7,2.7,0,0,0,1.365-.5,4.883,4.883,0,0,1-1.11-1.026c-.671-.866-2.136-7.052-1.664-8.494.377-1.21,1.565-3.884,2.624-3.917h.028c1.054,0,2.441,2.519,2.918,3.678.555,1.4-.366,7.69-.96,8.605a5.1,5.1,0,0,1-1.038,1.11,2.558,2.558,0,0,0,1.4.388l.05.416a3.251,3.251,0,0,1-1.814-.555,3.329,3.329,0,0,1-1.748.716ZM133.5,54.739h0c-.621,0-1.737,2-2.219,3.623-.416,1.326.993,7.313,1.615,8.117a4.766,4.766,0,0,0,1.171,1.021,4.816,4.816,0,0,0,1.076-1.11c.555-.854,1.448-6.941.921-8.223-.688-1.576-1.936-3.429-2.563-3.429Z"/><path class="g" d="M136.487,68.3a.611.611,0,1,1-.635-.585A.611.611,0,0,1,136.487,68.3Z"/><path class="g" d="M132.908,68.449a.611.611,0,1,1-.638-.583A.611.611,0,0,1,132.908,68.449Z"/><path class="c" d="M136.52,60.731h-.35a.133.133,0,0,1-.122-.144,7.213,7.213,0,0,0-.111-2.358c-.616-1.5-1.886-3.384-2.441-3.357s-1.664,2-2.153,3.551a7.285,7.285,0,0,0,.094,2.358.144.144,0,0,1-.111.161l-.35.05a.139.139,0,0,1-.155-.117,7.14,7.14,0,0,1-.072-2.641c.261-.827,1.487-3.934,2.719-3.989s2.719,2.941,3.046,3.745a7.107,7.107,0,0,1,.155,2.635.144.144,0,0,1-.15.105Z"/><path class="c" d="M156.011,56.27l-15.779,5.565L137.913,83l.35.372,15-5.6,3.1-21.128Z"/><path class="j" d="M140.587,62.213l-2.325,21.161-.35-.372,2.319-21.167Z"/><path class="q" d="M156.361,56.648l-15.774,5.565-2.325,21.161,15-5.6Z"/><g class="s"><path d="M151.612,60.476s.055-.283.128-.632-.854-.166-2.07.411l-2.846.86c-1.215.555-2.358,1-2.43,1.348l-.133.627Z"/></g><path class="h" d="M152.544,57.646c.05-.222-.311-.178-.816-.044l-.91.311s.372-.91-1.775-.327c-2.369.638-2.419,1.82-2.419,1.82a10.542,10.542,0,0,1-1.11.416c-.782.255-.871.405-.938.627l-.111.4,8.039-2.83A1.737,1.737,0,0,1,152.544,57.646Z"/><path class="h" d="M151.7,58.85c-.743.338-1.054.5-1.165,1.038-.128.616-.155.866-.155.866L146.2,62.418s.227-.9.283-1.2-.5-.305-1.226.033l.172-.755,6.514-2.419Z"/><path class="h" d="M151.828,60.476l.128-.627c.072-.35-.854-.166-2.07.411l-2.857.882c-1.215.555-2.358,1-2.43,1.348l-.133.627Z"/><path class="i" d="M153.487,61.63,141.958,66l-1.848,17.96,11.685-4.511Z"/><path class="ab" d="M142.069,66.463l11.368-4.328a3.8,3.8,0,0,0,1.953,1.326L144.1,67.777a8.938,8.938,0,0,1-2.036-1.315Z"/><path class="g" d="M144.97,67.827a1.914,1.914,0,0,1-1.731-.161l-1.431-1.021a.555.555,0,0,1,.094-1l11.23-4.272.355.255-11.1,4.228a.316.316,0,0,0-.055.6l1.332.938a1.154,1.154,0,0,0,1.043.1l11.1-4.222.4.289Z"/><path class="i" d="M156.2,63.561l-1.664,17.821-11.23,4.267a1.914,1.914,0,0,1-1.731-.161l-1.437-1.021a.616.616,0,0,1-.311-.555l1.653-17.8a.6.6,0,0,0,.311.555l1.431,1.021a1.914,1.914,0,0,0,1.731.161Z"/><path class="h" d="M144.088,67.955a1.759,1.759,0,0,1-.849-.289l-1.431-1.021a.6.6,0,0,1-.311-.555l-1.681,17.843a.616.616,0,0,0,.311.555l1.437,1.021a1.8,1.8,0,0,0,.843.289Z"/><path class="t" d="M155.961,66.113c.943.638,1.015,1.77,1.015,2.974s0,3.085-.777,4.106-2.28,2.48-3.251,2-.9-3.934.239-5.182a19.626,19.626,0,0,1,2.619-2.291Z"/><path class="t" d="M144.221,71.484a12.206,12.206,0,0,1-3.384.078,5.836,5.836,0,0,0,1.443-.871,1.182,1.182,0,0,0,.311-1.581c-.161-.205-.633.233-1.664.466-1.3.305-2.125.083-3.4.749a3.462,3.462,0,0,1-1.692.272,19.178,19.178,0,0,1-4.8-1.143,56.3,56.3,0,0,1-6.136-2.5l3.823-11.124s2.219-7.412-.8-9.815c-3.529,0-4.561,1.664-5.643,4.833-.988,2.857-4.311,16.212-4.494,18.237s.732,2.83,2.746,3.706,6.658,2,10.908,3.151A36.153,36.153,0,0,0,137.9,77.2c5.032.388,7.329,0,8.411-1.9C148.044,72.3,146.9,71.073,144.221,71.484Z"/><path class="n" d="M128.431,45.878c-2.1-.094-3.95-.2-5.326,2.28S119.67,58.3,118.561,63.8s-1.9,7.684.638,8.805,11.024,3.235,11.024,3.235a8.591,8.591,0,0,1,2.031-6.014l-6.946-2.963,3.717-10.886S131.377,48.991,128.431,45.878Z"/><path class="i" d="M123.46,172.728a1.631,1.631,0,0,1-.305,1.664,7.013,7.013,0,0,1-5.11,1.16,8.908,8.908,0,0,1-4.921-1.964,10.76,10.76,0,0,0-3.584-2.3,7.013,7.013,0,0,1-2.563-1.049c-.344-.333-.294-1.8-.294-1.8Z"/><path class="c" d="M107.692,162.791a.4.4,0,0,0-.383.338c-.078.405-.161,1.581-.333,2.219a11.856,11.856,0,0,0-.25,3.556c.144.755,1.881,1.276,2.991,1.7a14.237,14.237,0,0,1,3.6,2.269,10.1,10.1,0,0,0,5.349,1.992c1.959,0,4.161-.644,4.666-1.553.621-1.11.133-1.77-2.774-3.113-.555-.255-2.475-1.4-3.129-1.809a10.721,10.721,0,0,1-4.361-4.661,1.11,1.11,0,0,0-.416-.6.915.915,0,0,0-.555-.05,4.689,4.689,0,0,0-1.4.422c-.388.183-.943.4-.932.9a1.448,1.448,0,0,0,.111.5c.033.1.061.239-.028.3s-.2,0-.272-.078a7.456,7.456,0,0,1-.782-.938,2.818,2.818,0,0,0-.461-.466,5.034,5.034,0,0,1-.494-.322C107.636,163.241,107.7,163.024,107.692,162.791Z"/><path class="u" d="M107.692,162.791a.4.4,0,0,0-.383.338c-.078.405-.161,1.581-.333,2.219a11.856,11.856,0,0,0-.25,3.556c.144.755,1.881,1.276,2.991,1.7a14.237,14.237,0,0,1,3.6,2.269,10.1,10.1,0,0,0,5.349,1.992c1.959,0,4.161-.644,4.666-1.553.621-1.11.133-1.77-2.774-3.113-.555-.255-2.475-1.4-3.129-1.809a10.721,10.721,0,0,1-4.361-4.661,1.11,1.11,0,0,0-.416-.6.915.915,0,0,0-.555-.05,4.689,4.689,0,0,0-1.4.422c-.388.183-.943.4-.932.9a1.448,1.448,0,0,0,.111.5c.033.1.061.239-.028.3s-.2,0-.272-.078a7.456,7.456,0,0,1-.782-.938,2.818,2.818,0,0,0-.461-.466,5.034,5.034,0,0,1-.494-.322C107.636,163.241,107.7,163.024,107.692,162.791Z"/><path class="c" d="M113.312,172.895c-.5-.416-1.043-.821-1.581-1.182h0s3.407,2.075,4.788,1.11a1.232,1.232,0,0,0,.444-1.576,7.578,7.578,0,0,1,3.029-1.348h0c.239.133.444.239.555.3,2.9,1.343,3.39,1.992,2.774,3.113-.5.91-2.1,1.615-4.627,1.615A10.3,10.3,0,0,1,113.312,172.895Z"/><path class="v" d="M113.312,172.895c-.5-.416-1.043-.821-1.581-1.182h0s3.407,2.075,4.788,1.11a1.232,1.232,0,0,0,.444-1.576,7.578,7.578,0,0,1,3.029-1.348h0c.239.133.444.239.555.3,2.9,1.343,3.39,1.992,2.774,3.113-.5.91-2.1,1.615-4.627,1.615A10.3,10.3,0,0,1,113.312,172.895Z"/><path class="c" d="M116.724,170.581c1.8.721,1.032,1.06.555,1.11s-3.54-1.7-5.387-3.168c-1.931-1.526-3.151-3.2-3.884-3.756-.266-.211-.555-.466-.81-.71.044-.394.083-.755.122-.949a.4.4,0,0,1,.383-.338c0,.233-.033.449.144.627a5.033,5.033,0,0,0,.494.322,2.818,2.818,0,0,1,.461.466,7.456,7.456,0,0,0,.782.938A23.06,23.06,0,0,0,116.724,170.581Z"/><path class="n" d="M117.124,171.441a.183.183,0,0,1-.139-.294,4.305,4.305,0,0,1,3.329-1.3.183.183,0,0,1,.155.2.172.172,0,0,1-.194.155,3.978,3.978,0,0,0-2.991,1.176.178.178,0,0,1-.161.067Z"/><path class="n" d="M115.553,170.476a.172.172,0,0,1-.117-.039.178.178,0,0,1,0-.25,4.294,4.294,0,0,1,3.3-1.3.179.179,0,0,1-.039.355,3.962,3.962,0,0,0-2.985,1.171A.183.183,0,0,1,115.553,170.476Z"/><path class="n" d="M113.978,169.56a.172.172,0,0,1-.111-.039.178.178,0,0,1,0-.25,4.266,4.266,0,0,1,3.329-1.3.179.179,0,0,1-.039.355,3.973,3.973,0,0,0-2.991,1.171.178.178,0,0,1-.189.067Z"/><path class="n" d="M112.519,168.512a.172.172,0,0,1-.111-.039.178.178,0,0,1,0-.25,4.305,4.305,0,0,1,3.329-1.3.179.179,0,1,1-.039.355,3.967,3.967,0,0,0-2.991,1.176A.183.183,0,0,1,112.519,168.512Z"/><path class="n" d="M111.093,167.468a.205.205,0,0,1-.111-.039.183.183,0,0,1-.028-.255,4.361,4.361,0,0,1,3.606-1.315.178.178,0,0,1-.039.35,4.072,4.072,0,0,0-3.29,1.187.183.183,0,0,1-.139.072Z"/><path class="i" d="M96.035,177.2a7.958,7.958,0,0,1-.588,3.956,2.536,2.536,0,0,1-2.813,1.32,3.844,3.844,0,0,1-3.24-2.264,9.432,9.432,0,0,1-.411-4.078Z"/><path class="c" d="M90.165,165.255c-.477.083-.388,2.4-.433,4.733-.044,2.5-.682,3.6-.743,5.648-.067,2.341.161,3.368,1.11,4.683s3.961,2.4,5.171.255c.993-1.748.854-3.568.522-5.865a58.486,58.486,0,0,1-.7-5.87c-.083-1.742-.133-3.434-.555-3.584v.832c0,.277.039,1.11-.227,1.176a4.3,4.3,0,0,1-.072-.655.788.788,0,0,0-.183-.555.888.888,0,0,0-.555-.183,12.669,12.669,0,0,0-1.448-.078,4.491,4.491,0,0,0-.721.039,1.864,1.864,0,0,0-.6.15.433.433,0,0,0-.233.261.86.86,0,0,0,0,.266,2.009,2.009,0,0,1,0,.483c0,.072-.05.155-.122.15s-.083-.078-.089-.133c-.033-.277,0-.488-.033-.81v-.51C90.253,165.538,90.17,165.4,90.165,165.255Z"/><path class="u" d="M90.165,165.255c-.477.083-.388,2.4-.433,4.733-.044,2.5-.682,3.6-.743,5.648-.067,2.341.161,3.368,1.11,4.683s3.961,2.4,5.171.255c.993-1.748.854-3.568.522-5.865a58.486,58.486,0,0,1-.7-5.87c-.083-1.742-.133-3.434-.555-3.584v.832c0,.277.039,1.11-.227,1.176a4.3,4.3,0,0,1-.072-.655.788.788,0,0,0-.183-.555.888.888,0,0,0-.555-.183,12.669,12.669,0,0,0-1.448-.078,4.491,4.491,0,0,0-.721.039,1.864,1.864,0,0,0-.6.15.433.433,0,0,0-.233.261.86.86,0,0,0,0,.266,2.009,2.009,0,0,1,0,.483c0,.072-.05.155-.122.15s-.083-.078-.089-.133c-.033-.277,0-.488-.033-.81v-.51C90.253,165.538,90.17,165.4,90.165,165.255Z"/><path class="c" d="M89.033,174.964c0,.338-.072,2.58.555,2.918s.877-1.409.877-1.409a5.844,5.844,0,0,1,3.8.128c-.078.372.383,1.515.971,1.2s.555-2.868.555-2.9c.311,2.219.411,3.973-.555,5.67-1.21,2.147-4.222,1.065-5.171-.255s-1.176-2.341-1.11-4.683C89,175.4,89.011,175.18,89.033,174.964Z"/><path class="v" d="M89.033,174.964c0,.338-.072,2.58.555,2.918s.877-1.409.877-1.409a5.844,5.844,0,0,1,3.8.128c-.078.372.383,1.515.971,1.2s.555-2.868.555-2.9c.311,2.219.411,3.973-.555,5.67-1.21,2.147-4.222,1.065-5.171-.255s-1.176-2.341-1.11-4.683C89,175.4,89.011,175.18,89.033,174.964Z"/><path class="c" d="M90.67,176.6c.072.838-.782.638-.938-.555s.211-4.045,0-6.075c.044-2.336-.044-4.649.433-4.738a.449.449,0,0,0,0,.089l.055,1.176a3.927,3.927,0,0,0,0,.5c.161,1.709.25,5.027.261,6.6A27,27,0,0,0,90.67,176.6Z"/><path class="c" d="M94.021,176.6a27,27,0,0,0,.161-2.979c0-1.565.1-4.844.261-6.564a4.644,4.644,0,0,0,.067-.971v-.832c.316.111.427,1.038.5,2.219,0,.671,0,1.509-.067,2.53-.211,2.031.155,4.916,0,6.1S93.949,177.439,94.021,176.6Z"/><path class="n" d="M94.32,176.662h-.067a5.7,5.7,0,0,0-3.728,0,.178.178,0,1,1-.128-.333,5.964,5.964,0,0,1,3.989,0,.189.189,0,0,1,.1.233.178.178,0,0,1-.166.1Z"/><path class="n" d="M94.553,174.809h-.061a7.041,7.041,0,0,0-4.172,0,.183.183,0,0,1-.227-.111.178.178,0,0,1,.111-.227,7.335,7.335,0,0,1,4.411,0,.178.178,0,0,1,.105.227.172.172,0,0,1-.166.111Z"/><path class="n" d="M90.265,173.05a.18.18,0,0,1-.078-.344,6.1,6.1,0,0,1,4.4,0,.172.172,0,0,1,.1.227.178.178,0,0,1-.233.1,5.962,5.962,0,0,0-4.117,0,.172.172,0,0,1-.072.017Z"/><path class="n" d="M90.22,171.441a.182.182,0,0,1-.078-.344,5.548,5.548,0,0,1,4.489-.044.172.172,0,0,1,.083.233.183.183,0,0,1-.239.089,5.265,5.265,0,0,0-4.178.044A.127.127,0,0,1,90.22,171.441Z"/><path class="o" d="M90.181,169.571a.178.178,0,0,1-.155-.1.172.172,0,0,1,.078-.239,5.72,5.72,0,0,1,4.522,0,.179.179,0,1,1-.144.327,5.509,5.509,0,0,0-4.217,0,.155.155,0,0,1-.083.011Z"/><path class="c" d="M93.105,94.032a32.884,32.884,0,0,0-2.53,9.482c-.915,11.9-.422,28.973-.422,28.973-.105,1.243-.893,4.067-1.42,9.537-.627,6.469.155,28.374.155,28.374s3.884,2.308,6.88-.316c0,0,3.5-30.116,4.305-36.546.71-5.609,2.685-17.754,2.685-17.754l2.319,17.949s-.216,5.049-.067,8.322c.172,3.795,1.237,23.125,1.237,23.125s5.31,1.8,7.684-.755c0,0,.555-26.815.644-31.386.161-8.955,0-25.278-1.448-34.671Z"/><path class="j" d="M93.105,94.032a32.884,32.884,0,0,0-2.53,9.482c-.915,11.9-.422,28.973-.422,28.973-.105,1.243-.893,4.067-1.42,9.537-.627,6.469.155,28.374.155,28.374s3.884,2.308,6.88-.316c0,0,3.5-30.116,4.305-36.546.71-5.609,2.685-17.754,2.685-17.754l2.319,17.949s-.216,5.049-.067,8.322c.172,3.795,1.237,23.125,1.237,23.125s5.31,1.8,7.684-.755c0,0,.555-26.815.644-31.386.161-8.955,0-25.278-1.448-34.671Z"/><path class="j" d="M102.759,115.792l.832-5.715s4.821-.644,7.007-2.7a7.917,7.917,0,0,1-5.681,3.584l-.854,5.165.738,15.452Z"/><path class="c" d="M108.962,70.463c2.891.277,3.884,1.021,4.993,3.3s4.05,12.484,4.05,12.484l-7.479,2.83Z"/><path class="z" d="M108.962,70.463c2.891.277,3.884,1.021,4.993,3.3s4.05,12.484,4.05,12.484l-7.479,2.83Z"/><path class="c" d="M112.763,85.443c-.211,2.347-.261,6.935-.261,6.935.849,6,1.531,11.857,1.531,11.857-8.96,4.783-22.482.91-24.185-1.06.838-5.876,2.7-9.532,3.884-12.839L91.513,80.35s3.884-3.212,3.512-9.732l5.3-.555,5.049.139,3.59.255a30.288,30.288,0,0,1,4.694,5.853A7.166,7.166,0,0,1,112.763,85.443Z"/><path class="z" d="M108.862,74.23a15.535,15.535,0,0,0-1.986-3.934l-1.5-.111-5.049-.139-1.975.205c-.139.694,1.664,2.83,3.257,4.111a21.546,21.546,0,0,0,6.913,3.468,4.749,4.749,0,0,0,.344-3.6Z"/><path class="j" d="M103.969,82.009,98,82.247V83.4l6.053-.255Z"/><path class="n" d="M102.043,82.081,101.91,80.4H98l.166,1.842Z"/><path class="i" d="M103.7,82.014c-.094-1.947-.305-2.907-.461-3.029a.355.355,0,0,0-.455,0,8.992,8.992,0,0,0-.25,3.079Z"/><path class="i" d="M103.247,81.848c0,.743.055,2.164-.205,2.186s-.233-1.376-.244-2.186Z"/><path d="M99.219,66.873c0-.9-1.259-2.774-2.408-4.86s-2.391-5.465,0-8.622,7.8-5.038,10.986-3.545a8.365,8.365,0,0,1,4.084,5.138Z"/><path d="M98.509,63.577c1.3,1.393,2.075,2.774.682,4.084a3.451,3.451,0,0,1-4.71-5.038C95.868,61.325,97.205,62.19,98.509,63.577Z"/><path class="c" d="M95.8,59.411a.888.888,0,0,0-.51-.377,1.87,1.87,0,0,0-.743-.117c-.305,0-.877.211-.86.6s.782.516,1.11.5a3.14,3.14,0,0,0,.843-.128,5.593,5.593,0,0,1-.227,1.615,1.72,1.72,0,0,1-.449.621,1.11,1.11,0,0,1-.943.2c-.183-.039-.105.227,0,.266a1.365,1.365,0,0,0,1.587-.71,7.441,7.441,0,0,0,.416-2.219A.2.2,0,0,0,95.8,59.411Zm-1.492.244a.381.381,0,0,1-.244-.094c-.033-.055,0-.083.05-.122a1.043,1.043,0,0,1,1.01-.161,1.475,1.475,0,0,1,.277.089l.144.072.055.028h.033a1.814,1.814,0,0,1-.782.178,1.786,1.786,0,0,1-.527.011Z"/><path class="ac" d="M109.717,52.2c1.2.61,2.868,1.914,2.608,8.006-.2,4.755-1.936,6.946-2.774,7.368a5.893,5.893,0,0,1-3.4.344v2.708s3.079,3.756,1.964,6.225a25.549,25.549,0,0,1-4.993-2.436c-3.429-2.469-3.85-3.817-3.85-3.817l-.083-6.508s-1.06.777-2.713-.5c-1.365-1.054-1.92-2.935-.971-4.022a2.147,2.147,0,0,1,2.008-.671,2.669,2.669,0,0,1,1.831,1.465.51.51,0,0,0,.35.316.388.388,0,0,0,.316-.15.927.927,0,0,0,.161-.322c.338-1.01.183-2.069.422-3.1a5.859,5.859,0,0,1,1.032-2.219,7.368,7.368,0,0,1,4.738-2.774,9.881,9.881,0,0,1,3.357.083Z"/><path class="h" d="M113.406,57.175l-.327-.033a10.675,10.675,0,0,0-3.262.105,11.032,11.032,0,0,1-2,.6,11.964,11.964,0,0,1-2.1-.594,12.134,12.134,0,0,0-3.479-.083l-.35.039-3.445,1.16a7.385,7.385,0,0,0-.444.671,2.086,2.086,0,0,1,.322.172l3.329-1.06.139.172a.727.727,0,0,1,.105.244,8.918,8.918,0,0,0,.361,1.664,1.97,1.97,0,0,0,.422.594,2.22,2.22,0,0,0,.222.178l.128.078a1.9,1.9,0,0,0,.388.166h.277l.344.044h.327a2.512,2.512,0,0,0,2.43-1.243c.377-.632.322-1.52.982-1.52h.122c.483.1.394.915.677,1.5a2.219,2.219,0,0,0,.444.638.949.949,0,0,0,.111.1l.055.05.061.044.055.033.061.039h.078a2.186,2.186,0,0,0,.555.2h.05a3.29,3.29,0,0,0,.694.061,2.1,2.1,0,0,0,2.064-1.16,9.432,9.432,0,0,0,.472-1.664.555.555,0,0,1,.133-.216,1.154,1.154,0,0,0,.333-.461A.483.483,0,0,0,113.406,57.175Zm-6.952,2.369a1.909,1.909,0,0,1-.555.882h0a2.219,2.219,0,0,1-1.576.5,1.753,1.753,0,0,1-1.476-.638l-.05-.061-.039-.061-.033-.061a.227.227,0,0,1-.028-.05v-.044a.089.089,0,0,1,0-.039l-.055-.055h0a1.9,1.9,0,0,1-.067-.183h0l-.033-.111a.831.831,0,0,0-.044-.178v-.083c-.094-.438-.194-1.3.055-1.5a3.14,3.14,0,0,1,1.975-.311h.111a4.705,4.705,0,0,1,.488.072l.183.039a4.765,4.765,0,0,1,.472.139l.144.055a.771.771,0,0,1,.155.067h.028l.055.028a.938.938,0,0,1,.311.233A1.759,1.759,0,0,1,106.454,59.544Zm6.22-.205a1.975,1.975,0,0,1-1.06,1.415,2.086,2.086,0,0,1-.8.155,1.748,1.748,0,0,1-1.57-.655h0l-.028-.039-.033-.05a.461.461,0,0,1-.039-.072.1.1,0,0,0-.044-.078v-.039h0v-.033a2.544,2.544,0,0,1-.094-.327,1.936,1.936,0,0,1,.083-1.332,3.246,3.246,0,0,1,1.77-.655l.488-.033h.566a.593.593,0,0,1,.244.033h.222l.117.044h0a1.109,1.109,0,0,1,.261.15c.2.211.033,1.076-.083,1.542Z"/><path d="M105.322,58.839a.7.7,0,0,1-.616.76.66.66,0,0,1-.749-.588.71.71,0,0,1,.616-.76.666.666,0,0,1,.749.588Z"/><path class="ad" d="M105.228,63.389l2.391.6a1.21,1.21,0,0,1-1.476.932,1.287,1.287,0,0,1-.915-1.537Z"/><path d="M111.331,56.714l-1.5-.372a.738.738,0,0,1,.91-.555.8.8,0,0,1,.594.927Z"/><path d="M104.435,56.27l-1.4.66a.743.743,0,0,1,.344-1.021A.81.81,0,0,1,104.435,56.27Z"/><path d="M110.921,58.811a.7.7,0,0,1-.61.76.666.666,0,0,1-.749-.594.7.7,0,0,1,.616-.755.655.655,0,0,1,.743.588Z"/><path class="ad" d="M107.558,58.662l.255,3.773,2.014-.76Z"/><path class="ad" d="M106.166,67.916c-1.664-.25-5.232-1.143-5.842-2.458a3.884,3.884,0,0,0,1.365,1.881c1.071.81,4.477,1.537,4.477,1.537Z"/><path class="c" d="M111.919,55.127s-.871-1.4-4.849-1.026a15.08,15.08,0,0,0-6.181,2.075A8.877,8.877,0,0,0,98,59.044a2.375,2.375,0,0,0-.488-.15,2.164,2.164,0,0,0-2.014.671h0a6.78,6.78,0,0,1-.982-4.638c.427-2.774,3.174-4.683,6.225-5.981,3.606-1.531,7.557-1.137,9.144.355S111.88,54.983,111.919,55.127Z"/><path class="h" d="M120.8,81.032l-16.023,5.654-2.364,21.5.355.383L118,102.881l3.151-21.466Z"/><path class="g" d="M105.128,87.069l-2.364,21.5-.355-.383,2.364-21.5Z"/><path class="i" d="M121.152,81.415l-16.023,5.654-2.364,21.5L118,102.881Z"/><g class="s"><path d="M116.325,85.321l.133-.638c.072-.355-.866-.172-2.1.411l-2.891.9c-1.232.583-2.4,1.015-2.469,1.37l-.133.638Z"/></g><path class="b" d="M117.279,82.43c.044-.222-.322-.178-.832-.039l-.921.311s.372-.927-1.809-.333c-2.4.649-2.458,1.848-2.458,1.848a9.275,9.275,0,0,1-1.154.422c-.8.261-.882.416-.949.638l-.117.405,8.167-2.874S117.229,82.669,117.279,82.43Z"/><path class="o" d="M116.419,83.657c-.755.344-1.071.51-1.182,1.054a8.215,8.215,0,0,0-.155.882l-4.256,1.664s.227-.915.289-1.221-.51-.305-1.243.033l.172-.766,6.614-2.458Z"/><path class="o" d="M116.547,85.332l.128-.638c.078-.355-.866-.172-2.1.411L111.686,86c-1.237.583-2.4,1.015-2.475,1.37l-.133.638Z"/><path class="ac" d="M108.823,96.484a12.273,12.273,0,0,1-3.445.083,6.225,6.225,0,0,0,1.47-.882,1.21,1.21,0,0,0,.316-1.609c-.166-.205-.644.233-1.664.477-1.32.305-2.158.083-3.457.76a3.5,3.5,0,0,1-1.72.272c-.982.028-2.314-.372-4.877-1.154A43.335,43.335,0,0,1,90.2,92.34L94.082,83c-.616,1.248,3.978-9.8.976-12.406-3.584,0-5.548.877-7.13,5.038C86.819,78.5,82.186,92,82,94.054s.743,2.874,2.774,3.767,6.763,2.025,11.1,3.2a36.4,36.4,0,0,0,6.558,1.276c5.115.4,7.446-.028,8.55-1.936C112.7,97.316,111.52,96.068,108.823,96.484Z"/><path class="c" d="M95.946,70.5c-2.4-.133-5.9-.211-7.917,4.439s-4.095,11.374-4.095,11.374a13.8,13.8,0,0,0,7.94,2.774l3.556-9.338S97.189,73.237,95.946,70.5Z"/><path class="z" d="M95.946,70.5c-2.4-.133-5.9-.211-7.917,4.439s-4.095,11.374-4.095,11.374a13.8,13.8,0,0,0,7.94,2.774l3.556-9.338S97.189,73.237,95.946,70.5Z"/><path class="f" d="M45.285,57.735c2.968.083,3.806,1.271,5.6,3.823S58.75,73.764,58.75,73.764l8.611,3.329-1.11,5.027s-7.29-1.454-11.019-2.219a3.185,3.185,0,0,1-2.341-1.592c-.477-.727-5.265-8.261-5.265-8.261Z"/><path class="b" d="M43.016,57.813c2.774-.7,4.039.866,4.993,2.58,1.492,2.741,2.391,8.322,2.519,18.57.078,6.58,2.369,14.531,2.774,20.773.616,9.377.91,16.678.91,16.678a119.2,119.2,0,0,0-16.745-1.01Z"/><path class="m" d="M26.854,153.226s-1.664-11.513-.982-18.265c.6-5.792,1.454-8.217,1.576-9.532,0,0,.976-13.593.71-25.106-.128-5.448.139-11.479,4.022-17.915l.139-.255c.344,2.108,3.6,3.479,6.5,3.8,2.774.311,6.281-.25,10.436-1.664.927,5.459,1.981,15.862,3.057,27.186.555,5.548.433,10.209.555,13.776.122,4.833-.316,23.78-.316,23.78v.8a6.758,6.758,0,0,0,.86,2.9,17.283,17.283,0,0,0,3.19,4.9c.416.422,3.279,2.774,3.667,3.273,1.243,1.354-1.21,2.219-3.057,2.036-1.953-.194-4.993-.832-5.887-1.986-.594-.766-1.11-3.512-1.726-4.294-2.064-2.624-2.918-3.756-2.957-4.616a8.727,8.727,0,0,1,.6-3.068c-.222-1.831-3.939-11.4-4.183-16.739a55.771,55.771,0,0,1,.449-7.059L40.23,106.637c-.721,5.221-2.1,16.978-2.6,20.723-.688,5.154-3.235,13.871-4.838,20.723a35.093,35.093,0,0,0-1.049,5.4l-.039.6c0,.76-.078,8.877-.322,10.6-.51,3.59-3.7,3.246-4.3.372-.516-2.441-.227-10.065-.244-11Z"/><path class="h" d="M26.748,153.176c-.893.044-.189,3.49-.35,5.726-.166,2.4-.893,4.172-1.054,6.136a7.978,7.978,0,0,0,.915,4.993c.671,1.409,3.884,3.268,4.993,1.182a11.551,11.551,0,0,0,1.11-6.658c-.222-2.3-.416-3.978-.522-5.731-.089-1.542.976-5.21-.189-5.393l-.028.6c-.388.843-4.344,1.554-4.866-.033Z"/><path class="g" d="M46.4,153.909a20.182,20.182,0,0,0,.15,4.178,4,4,0,0,0,2.264,1.664l.632-4.289Z"/><path d="M48.814,159.773,52.57,158.4l.8-3.4-4.194,2.3Z"/><path class="h" d="M52.437,149.8V149c.522.239,1.8,4.355,3.429,7.152,1.487,2.558,4.311,3.917,5.254,4.993,1.254,1.476-1.026,3.507-4.816,2.824-1.881-.333-4.749-1.437-5.548-2.674s-1.143-3.54-1.8-4.439-2.186-1.925-2.536-2.968a5.776,5.776,0,0,1-.089-2.913c.266-.971.483-2.142.816-2.047l.044.727c.272.51,1.2,1.076,3.1,1.11A2.023,2.023,0,0,0,52.437,149.8Z"/><path class="i" d="M42.555,134.307a39.486,39.486,0,0,1,.316-8.755L40.131,107.3s-1.848,17.377-2.18,20.068-5.321,31.747-5.321,31.747a8.483,8.483,0,0,1-7.989-.1c0-11.751.366-23.519.793-26.776a55.982,55.982,0,0,1,1.526-6.586s.272-17.139.255-23.647.477-10.858,1.714-13.782a41.335,41.335,0,0,1,3.412-6.1s.949,3.207,8.483,3.212,8.367-1.9,8.367-1.9a98.958,98.958,0,0,1,2.941,19.341c.594,9.382.732,13.649.91,17.832.15,3.562.244,7.679.327,14.875.061,5.432.827,17.377.827,17.377s-3.673,1.936-9.748-.283C44.447,152.577,42.932,138.995,42.555,134.307Z"/><path class="h" d="M40.131,107.3l1.481-11.041a9.432,9.432,0,0,0,5.765-2.774,7.59,7.59,0,0,1-4.383,4.172l-2,9.687,1.459,15.535Z"/><path class="c" d="M36.618,58.584l-3.551.377c-2.352.555-3.418,1.615-3.656,3.7a16.206,16.206,0,0,0,.122,6.8C30.282,72.4,32.269,79.6,32.269,79.6s-2.585,6.469-3.806,9.732c8.372,5.459,18.7,3.329,22.193,0-.289-3.124-1.4-6.031-1.664-8.822,0,0,.183-4.35.527-6.236,2.652-2.891,2.314-5.654,1.11-7.884-2.219-4.117-5.5-7.734-6.575-7.729Z"/><path class="w" d="M36.618,58.584l-3.551.377c-2.352.555-3.418,1.615-3.656,3.7a16.206,16.206,0,0,0,.122,6.8C30.282,72.4,32.269,79.6,32.269,79.6s-2.585,6.469-3.806,9.732c8.372,5.459,18.7,3.329,22.193,0-.289-3.124-1.4-6.031-1.664-8.822,0,0,.183-4.35.527-6.236,2.652-2.891,2.314-5.654,1.11-7.884-2.219-4.117-5.5-7.734-6.575-7.729Z"/><path class="n" d="M36.408,58.584s2.924,7.684,3.59,12.9-1.62,20.978-1.975,30.316c-.261,6.8-.9,16.595-.9,16.595a24.151,24.151,0,0,1-6.22-.216,14.239,14.239,0,0,1-6.464-2.491s1.7-17.083,2.53-23.724a40.705,40.705,0,0,1,4.15-12.406L27.075,62.862a4.214,4.214,0,0,1,2.852-3.612A26.574,26.574,0,0,1,36.408,58.584Z"/><path class="ab" d="M31.237,74.2s.555-1.986,1.3-5.382a16.636,16.636,0,0,0,.372-6.852l-4.383,6.425,2.585,11.18h0a42.6,42.6,0,0,0-3.884,10.675h0c2.647-7.479,5.548-9.726,5.548-9.726Z"/><path class="o" d="M36.286,56.109c-.427-.089-.8.1-1.154.688s-1.11,1.848-1.11,1.848-.4,4.139,0,5.165c.338.893,4.128,4.239,4.128,4.239a38.286,38.286,0,0,0-1.026,4.938c-.033,1.215,2.347,5.853,2.613,8.223,0,0,.749-7.451.4-10.126a47.282,47.282,0,0,0-3.823-12.567Z"/><path class="m" d="M27.325,102.948c-.555-1.071-.555-1.848-1.431-2.819a3.074,3.074,0,0,1-.766-1.426,10.237,10.237,0,0,1-.211-2.624l-5.027.078a32.316,32.316,0,0,0,.05,5.853c.8,4.516,1.7,6.43,3.584,6.958,3.029.832,3.845-.444,2.874-2.708a10.891,10.891,0,0,1-.838-2.957,5.787,5.787,0,0,0,1.11,1.076,1.076,1.076,0,0,0,1.459-.094C28.252,104.1,27.741,103.786,27.325,102.948Z"/><path class="a" d="M32.23,58.811s-3.251-.2-5.154,1.354-3.085,5.909-4.483,10.264a83.666,83.666,0,0,0-3.1,11.651c-.383,2.547.117,16.046.117,16.046a11.1,11.1,0,0,0,5.815-1.032l1.359-14.425L32.23,67.888A14.126,14.126,0,0,0,32.23,58.811Z"/><path class="c" d="M35.3,68.027c0-.327-.028-1.021-.083-1.9-.277-4.305-.405-8.2,1.054-8.511l.128.594c-1.065.227-.71,5.787-.555,7.879.055.9.1,1.609.083,1.964Z"/><path class="i" d="M34.438,82.419H34.4v-.427a2.724,2.724,0,0,0,1.393-.516,5.21,5.21,0,0,1-1.154-1.026c-.688-.888-2.186-7.213-1.726-8.683.388-1.232,1.6-3.956,2.685-4h0c1.076,0,2.491,2.574,2.979,3.762.588,1.426-.372,7.856-.976,8.794a5.21,5.21,0,0,1-1.065,1.143,2.707,2.707,0,0,0,1.431.4l.05.422a3.329,3.329,0,0,1-1.853-.555,3.4,3.4,0,0,1-1.726.688Zm1.187-14.253h0c-.638,0-1.775,2.053-2.3,3.706-.422,1.354,1.021,7.474,1.664,8.322a4.882,4.882,0,0,0,1.2,1.043,4.949,4.949,0,0,0,1.11-1.143c.555-.871,1.476-7.091.938-8.4C37.556,70.069,36.263,68.166,35.625,68.166Z"/><path class="g" d="M38.644,82.025a.625.625,0,1,1-.649-.6.627.627,0,0,1,.649.6Z"/><path class="g" d="M35.015,82.181a.627.627,0,1,1-.647-.548.627.627,0,0,1,.647.548Z"/><path class="c" d="M38.71,74.291l-.355-.028a.144.144,0,0,1-.133-.15,7.379,7.379,0,0,0-.105-2.408c-.632-1.531-1.931-3.457-2.5-3.434s-1.7,2.053-2.219,3.634a7.14,7.14,0,0,0,.094,2.413.139.139,0,0,1-.117.155l-.355.055a.144.144,0,0,1-.161-.122,7.279,7.279,0,0,1-.072-2.691c.266-.849,1.515-4.028,2.774-4.078s2.774,3,3.113,3.823a7.3,7.3,0,0,1,.155,2.7A.144.144,0,0,1,38.71,74.291Z"/><path class="c" d="M72.588,69.214,56.47,74.9l-4.439,19.18.361.383,15.324-5.726L72.948,69.6Z"/><path class="p" d="M56.825,75.284l-4.433,19.18-.361-.383L56.47,74.9Z"/><path class="q" d="M72.948,69.6,56.825,75.284l-4.433,19.18,15.324-5.726Z"/><g class="r"><path d="M65.32,84.844A3.535,3.535,0,0,0,68.493,85.9l.3-1.11Z"/></g><g class="s"><path d="M68.094,73.525s.055-.289.133-.644-.877-.166-2.114.416L63.2,74.18c-1.237.583-2.413,1.021-2.486,1.376l-.133.644Z"/></g><path class="h" d="M69.048,70.618c.05-.222-.322-.178-.832-.044l-.932.316s.377-.932-1.82-.333c-2.413.655-2.469,1.859-2.469,1.859a9.227,9.227,0,0,1-1.16.422c-.8.261-.893.422-.954.644l-.122.411,8.217-2.874S69,70.84,69.048,70.618Z"/><path class="h" d="M68.188,71.85c-.766.344-1.11.51-1.193,1.06s-.155.888-.155.888l-4.283,1.664s.233-.921.289-1.226-.5-.311-1.248.033l.178-.771,6.658-2.475Z"/><path class="h" d="M68.31,73.537s.061-.289.133-.644-.871-.172-2.108.416l-2.913.882c-1.237.583-2.413,1.021-2.486,1.376l-.133.644Z"/><path class="m" d="M71.156,76.155s-.555,2.108-.721,2.641-2.774,1.748-4.111,1.914c-2.53.316-2.819.86-2.219,2.658.555,1.664,2.219,2.28,4.489,2.008a4.128,4.128,0,0,0,3.129-2.73c.738-2.119.338-4.378.632-5.609S71.8,75.423,71.156,76.155Z"/><path class="c" d="M39.676,35.409H40.6a9.471,9.471,0,0,1,9.471,9.471v9.737a6.247,6.247,0,0,1-6.242,6.247H30.2V44.88A9.471,9.471,0,0,1,39.676,35.409Z"/><path class="ae" d="M39.676,35.409H40.6a9.471,9.471,0,0,1,9.471,9.471v9.737a6.247,6.247,0,0,1-6.242,6.247H30.2V44.88A9.471,9.471,0,0,1,39.676,35.409Z"/><path class="c" d="M33.772,57.546h5.92v7.213A5.643,5.643,0,0,1,34.05,70.4h-.277V57.546Z"/><path class="af" d="M33.772,57.546h5.92v7.213A5.643,5.643,0,0,1,34.05,70.4h-.277V57.546Z"/><path class="m" d="M46.822,40.5c1.337.96,1.792,2.053,1.664,8.167-.133,5.149-1.809,6.425-2.652,6.813s-2.463.144-4.039-.122v3.667a3.135,3.135,0,0,1,1.049,1.82c.105.383-1.165.982-4.3.555a4.1,4.1,0,0,1-3.235-2.114V47.715s0-4.694,3.368-6.536a9.432,9.432,0,0,1,8.145-.677Z"/><path class="c" d="M35.309,47.715s3.068-5.482,7.535-6.147S48.3,43.143,48.3,43.143s-.555-5.066-5.454-4.938C36.108,38.366,35.309,43.526,35.309,47.715Z"/><path class="aa" d="M35.309,47.715s3.068-5.482,7.535-6.147S48.3,43.143,48.3,43.143s-.555-5.066-5.454-4.938C36.108,38.366,35.309,43.526,35.309,47.715Z"/><path d="M41.839,47.338a.649.649,0,1,1-.688-.644A.671.671,0,0,1,41.839,47.338Z"/><path class="k" d="M41.312,51.294l2.391.766a1.232,1.232,0,0,1-1.537.86A1.32,1.32,0,0,1,41.312,51.294Z"/><path d="M47.46,45.418l-1.309-.91a.766.766,0,0,1,1.11-.227.838.838,0,0,1,.2,1.137Z"/><path d="M39.947,45.34l1.315-.915a.766.766,0,0,0-1.11-.222.843.843,0,0,0-.205,1.137Z"/><path d="M47.16,47.2a.649.649,0,1,1-.682-.649.666.666,0,0,1,.682.649Z"/><path class="k" d="M43.987,46.9l.105,3.923,2.053-.638Z"/><path class="k" d="M41.795,55.344c-1.664-.216-5.077-1.2-5.609-2.558a3.506,3.506,0,0,0,1.2,1.731c1.021.877,4.439,1.864,4.439,1.864Z"/><path class="c" d="M43.9,56.037l-2.1-.688a.688.688,0,0,1-.682.688h-3.29a2.524,2.524,0,0,1-2.519-2.53l-2.1,2.53H30.2v3.978a2.463,2.463,0,0,0,2.458,2.469h9.071a6,6,0,0,0,5.981-6.014v-.433Z"/><path class="ae" d="M43.9,56.037l-2.1-.688a.688.688,0,0,1-.682.688h-3.29a2.524,2.524,0,0,1-2.519-2.53l-2.1,2.53H30.2v3.978a2.463,2.463,0,0,0,2.458,2.469h9.071a6,6,0,0,0,5.981-6.014v-.433Z"/><path class="ag" d="M80.611,209.724c-.067-1.6,1.221-17.433,1.221-17.433l-7.679,5.077c.81,9.266,1.332,12.162,1.359,13.71h0a1.4,1.4,0,0,0-.044.394c0,1.831,2.275,2.818,4.045,4.039a33.673,33.673,0,0,0,4.788,2.852c1.287.588,3.884.644,4.222-.111a60.331,60.331,0,0,1-7-5.454C80.7,211.971,80.672,211.327,80.611,209.724Z"/><path class="i" d="M92.2,220.216a1.476,1.476,0,0,1-.327,1.581,7.94,7.94,0,0,1-5.41,1.11,9.859,9.859,0,0,1-5.21-1.892,11.382,11.382,0,0,0-3.8-2.219,7.662,7.662,0,0,1-2.719-1.015c-.361-.316-.311-1.731-.311-1.731Z"/><path class="c" d="M75.5,210.623a.427.427,0,0,0-.405.327c-.083.394-.172,1.526-.35,2.164a10.608,10.608,0,0,0-.266,3.434c.15.721,1.992,1.226,3.162,1.637a15.225,15.225,0,0,1,3.812,2.192,11.391,11.391,0,0,0,5.659,1.925c2.07,0,4.4-.627,4.938-1.5.66-1.082.139-1.709-2.929-3.007-.555-.244-2.624-1.343-3.329-1.742a10.845,10.845,0,0,1-4.611-4.5,1.11,1.11,0,0,0-.444-.583,1.037,1.037,0,0,0-.6-.05,5.6,5.6,0,0,0-1.476.405c-.411.183-1,.388-.988.871a1.531,1.531,0,0,0,.117.488c.039.1.067.227,0,.288s-.211,0-.289-.078a7.107,7.107,0,0,1-.827-.9,2.9,2.9,0,0,0-.488-.449,5.482,5.482,0,0,1-.527-.311C75.456,211.055,75.506,210.834,75.5,210.623Z"/><path class="u" d="M75.5,210.623a.427.427,0,0,0-.405.327c-.083.394-.172,1.526-.35,2.164a10.608,10.608,0,0,0-.266,3.434c.15.721,1.992,1.226,3.162,1.637a15.225,15.225,0,0,1,3.812,2.192,11.391,11.391,0,0,0,5.659,1.925c2.07,0,4.4-.627,4.938-1.5.66-1.082.139-1.709-2.929-3.007-.555-.244-2.624-1.343-3.329-1.742a10.845,10.845,0,0,1-4.611-4.5,1.11,1.11,0,0,0-.444-.583,1.037,1.037,0,0,0-.6-.05,5.6,5.6,0,0,0-1.476.405c-.411.183-1,.388-.988.871a1.531,1.531,0,0,0,.117.488c.039.1.067.227,0,.288s-.211,0-.289-.078a7.107,7.107,0,0,1-.827-.9,2.9,2.9,0,0,0-.488-.449,5.482,5.482,0,0,1-.527-.311C75.456,211.055,75.506,210.834,75.5,210.623Z"/><path class="c" d="M81.448,220.377a19.769,19.769,0,0,0-1.664-1.137h0s3.612,2,5.071,1.11a1.124,1.124,0,0,0,.466-1.52,8.335,8.335,0,0,1,3.212-1.3h0c.255.133.466.233.6.288,3.068,1.3,3.59,1.925,2.929,3.007-.555.877-2.219,1.559-4.9,1.559a11.651,11.651,0,0,1-5.715-2Z"/><path class="v" d="M81.448,220.377a19.769,19.769,0,0,0-1.664-1.137h0s3.612,2,5.071,1.11a1.124,1.124,0,0,0,.466-1.52,8.335,8.335,0,0,1,3.212-1.3h0c.255.133.466.233.6.288,3.068,1.3,3.59,1.925,2.929,3.007-.555.877-2.219,1.559-4.9,1.559a11.651,11.651,0,0,1-5.715-2Z"/><path class="c" d="M85.06,218.141c1.909.7,1.11,1.021.555,1.11s-3.751-1.664-5.709-3.057c-2.042-1.476-3.329-3.085-4.095-3.629-.283-.2-.583-.449-.854-.682.05-.383.089-.732.128-.915a.422.422,0,0,1,.405-.327c0,.227-.033.433.15.6a5.489,5.489,0,0,0,.527.311,2.9,2.9,0,0,1,.488.449,7.106,7.106,0,0,0,.827.9A24.972,24.972,0,0,0,85.06,218.141Z"/><path class="n" d="M85.482,218.978a.222.222,0,0,1-.117-.039.161.161,0,0,1-.028-.244,4.788,4.788,0,0,1,3.5-1.259.173.173,0,0,1-.039.344,4.439,4.439,0,0,0-3.162,1.11A.2.2,0,0,1,85.482,218.978Z"/><path class="n" d="M83.817,218.046a.183.183,0,0,1-.117-.039.155.155,0,0,1-.028-.239,4.766,4.766,0,0,1,3.5-1.259.172.172,0,0,1,.166.189.178.178,0,0,1-.205.155,4.439,4.439,0,0,0-3.163,1.11.216.216,0,0,1-.15.083Z"/><path class="n" d="M82.153,217.159a.244.244,0,0,1-.122-.039.166.166,0,0,1,0-.244,4.766,4.766,0,0,1,3.5-1.254.172.172,0,0,1,.166.189.178.178,0,0,1-.205.15,4.439,4.439,0,0,0-3.168,1.11.177.177,0,0,1-.166.089Z"/><path class="n" d="M80.611,216.149a.244.244,0,0,1-.122-.039.172.172,0,0,1,0-.244,4.8,4.8,0,0,1,3.5-1.259.173.173,0,1,1-.039.344,4.439,4.439,0,0,0-3.168,1.11A.178.178,0,0,1,80.611,216.149Z"/><path class="n" d="M79.1,215.133a.217.217,0,0,1-.117-.033.161.161,0,0,1,0-.244A4.885,4.885,0,0,1,82.8,213.58a.178.178,0,0,1,.166.194.183.183,0,0,1-.205.15,4.538,4.538,0,0,0-3.484,1.148.216.216,0,0,1-.178.061Z"/><path class="ag" d="M65.775,197.923l-7.768-.139c.117,5.182.938,10.941,1.076,15.807,0,.921,0,7.124.322,9,.516,2.835,3.884,2.452,4.056.755s-.216-8.933-.205-9.682c0-3.118,1.437-8.389,2.219-13.993C65.469,199.4,65.736,198.189,65.775,197.923Z"/><path class="i" d="M65.064,224.532a7.107,7.107,0,0,1-.627,3.817,2.768,2.768,0,0,1-2.991,1.271c-1.265-.172-2.935-.782-3.445-2.18a8.35,8.35,0,0,1-.438-3.939Z"/><path class="c" d="M58.811,213c-.5.083-.405,2.319-.455,4.572-.05,2.413-.727,3.468-.788,5.448-.072,2.264.166,3.251,1.176,4.522s4.211,2.319,5.5.25c1.054-1.692.91-3.445.555-5.665a51.288,51.288,0,0,1-.738-5.665c-.089-1.664-.139-3.329-.6-3.462v.81c0,.255.044,1.11-.239,1.11a3.4,3.4,0,0,1-.078-.633.671.671,0,0,0-.2-.522,1,1,0,0,0-.588-.178c-.51-.044-1.026-.083-1.537-.078a5.057,5.057,0,0,0-.766.039,2.269,2.269,0,0,0-.638.144.422.422,0,0,0-.25.255.788.788,0,0,0,0,.255,1.46,1.46,0,0,1,0,.466c0,.067-.05.15-.128.139s-.089-.072-.094-.122c-.033-.272,0-.472-.039-.788v-.488C58.9,213.264,58.811,213.142,58.811,213Z"/><path class="u" d="M58.811,213c-.5.083-.405,2.319-.455,4.572-.05,2.413-.727,3.468-.788,5.448-.072,2.264.166,3.251,1.176,4.522s4.211,2.319,5.5.25c1.054-1.692.91-3.445.555-5.665a51.288,51.288,0,0,1-.738-5.665c-.089-1.664-.139-3.329-.6-3.462v.81c0,.255.044,1.11-.239,1.11a3.4,3.4,0,0,1-.078-.633.671.671,0,0,0-.2-.522,1,1,0,0,0-.588-.178c-.51-.044-1.026-.083-1.537-.078a5.057,5.057,0,0,0-.766.039,2.269,2.269,0,0,0-.638.144.422.422,0,0,0-.25.255.788.788,0,0,0,0,.255,1.46,1.46,0,0,1,0,.466c0,.067-.05.15-.128.139s-.089-.072-.094-.122c-.033-.272,0-.472-.039-.788v-.488C58.9,213.264,58.811,213.142,58.811,213Z"/><path class="c" d="M57.619,222.374c0,.327-.078,2.486.6,2.813s.932-1.359.932-1.359a6.83,6.83,0,0,1,4.045.122c-.083.361.405,1.465,1.026,1.165s.6-2.774.6-2.774c.333,2.125.438,3.828-.555,5.471-1.287,2.07-4.489,1.021-5.5-.25S57.53,225.3,57.6,223.04A3.264,3.264,0,0,1,57.619,222.374Z"/><path class="v" d="M57.619,222.374c0,.327-.078,2.486.6,2.813s.932-1.359.932-1.359a6.83,6.83,0,0,1,4.045.122c-.083.361.405,1.465,1.026,1.165s.6-2.774.6-2.774c.333,2.125.438,3.828-.555,5.471-1.287,2.07-4.489,1.021-5.5-.25S57.53,225.3,57.6,223.04A3.264,3.264,0,0,1,57.619,222.374Z"/><path class="c" d="M59.366,223.955c.083.81-.827.616-.993-.522s.227-3.884,0-5.865c.05-2.253-.05-4.489.455-4.572v.083l.055,1.137a2.949,2.949,0,0,0,.028.488c.166,1.664.266,4.849.272,6.369a24.657,24.657,0,0,0,.183,2.88Z"/><path class="c" d="M62.923,223.955a24.658,24.658,0,0,0,.172-2.88c0-1.509.105-4.677.272-6.336a3.49,3.49,0,0,0,.072-.932V213c.333.111.449,1,.555,2.125,0,.655,0,1.465-.072,2.447-.222,1.959.166,4.744,0,5.881S62.845,224.765,62.923,223.955Z"/><path class="n" d="M63.25,224.011a.167.167,0,0,1-.072,0,6.658,6.658,0,0,0-3.961,0,.194.194,0,0,1-.244-.1.166.166,0,0,1,.111-.222,6.913,6.913,0,0,1,4.239,0,.166.166,0,0,1,.105.222.2.2,0,0,1-.178.1Z"/><path class="n" d="M63.489,222.219h-.067a8.122,8.122,0,0,0-4.439,0,.194.194,0,0,1-.239-.111.166.166,0,0,1,.122-.216,8.478,8.478,0,0,1,4.683,0,.172.172,0,0,1,.117.222.183.183,0,0,1-.178.105Z"/><path class="n" d="M58.922,220.526a.205.205,0,0,1-.172-.1.178.178,0,0,1,.094-.233,7.1,7.1,0,0,1,4.677,0,.161.161,0,0,1,.105.222.194.194,0,0,1-.244.094,6.974,6.974,0,0,0-4.378,0Z"/><path class="n" d="M58.884,218.945a.194.194,0,0,1-.172-.1.161.161,0,0,1,.1-.244,6.419,6.419,0,0,1,4.766-.05.161.161,0,0,1,.089.227.189.189,0,0,1-.25.083,6.1,6.1,0,0,0-4.439.05.222.222,0,0,1-.094.033Z"/><path class="o" d="M58.839,217.164a.189.189,0,0,1-.166-.094.166.166,0,0,1,.083-.233,6.735,6.735,0,0,1,4.81,0,.166.166,0,0,1,.094.227.189.189,0,0,1-.25.083,6.475,6.475,0,0,0-4.483,0,.227.227,0,0,1-.089.017Z"/><path class="c" d="M61.9,144.255a31.886,31.886,0,0,0-2.441,9.155c-.882,11.479-1.326,28.152-1.326,28.152-.105,1.2-.866,3.928-1.376,9.21-.6,6.236,1.076,27.186,1.076,27.186s3.734,2.219,6.658-.305c0,0,3.373-29.073,4.161-35.276.682-5.415,2.591-17.127,2.591-17.127l1.443,17.926s-.205,4.871-.061,8.023c.166,3.662,1.959,21.727,1.959,21.727s5.132,1.737,7.424-.727c0,0,.555-25.883.621-30.293.15-8.644-.3-24.762-.6-33.545Z"/><path class="w" d="M61.9,144.255a31.886,31.886,0,0,0-2.441,9.155c-.882,11.479-1.326,28.152-1.326,28.152-.105,1.2-.866,3.928-1.376,9.21-.6,6.236,1.076,27.186,1.076,27.186s3.734,2.219,6.658-.305c0,0,3.373-29.073,4.161-35.276.682-5.415,2.591-17.127,2.591-17.127l1.443,17.926s-.205,4.871-.061,8.023c.166,3.662,1.959,21.727,1.959,21.727s5.132,1.737,7.424-.727c0,0,.555-25.883.621-30.293.15-8.644-.3-24.762-.6-33.545Z"/><path class="j" d="M71.217,165.26l.8-5.515s4.655-.621,6.769-2.6a7.64,7.64,0,0,1-5.487,3.462l-.827,4.993-.055,15.535Z"/><path class="ag" d="M86.153,145.852l-3.64,4.505s-2.53-4.194-2.43-4.194,3.207-5.088,3.207-5.088Z"/><path class="h" d="M74.5,117.39c2.857-.044,6.02-.122,8.783,3.157,2.136,2.547,7.923,10.442,9.088,12.461,1.315,2.286,1.5,3.212.466,4.921s-7.213,8.8-7.213,8.8a10.614,10.614,0,0,1-3.113-4.588l3.64-6.1-6.991-10.325Z"/><path class="c" d="M74.347,117.262c4.439-.377,6.38.25,8.078,2.047,1.187,1.259,8.461,10.98,8.461,10.98s-.305,1.92-5.709,4.8l-5.931-6.924Z"/><path class="w" d="M74.347,117.262c4.439-.377,6.38.25,8.078,2.047,1.187,1.259,8.461,10.98,8.461,10.98s-.305,1.92-5.709,4.8l-5.931-6.924Z"/><path class="c" d="M67.395,117.468c-1,.244-4.583.244-6.941,1.082-1.282.455-1.57,2.053-1.726,3.884A91.492,91.492,0,0,0,59,133.713l-.05,18.77c3.251,2.364,16.606,3.568,23.447-1.426,0,0-.838-22.348-.838-25.827s-1.931-7.657-7.268-7.967Z"/><path class="ah" d="M67.395,117.468c-1,.244-4.583.244-6.941,1.082-1.282.455-1.57,2.053-1.726,3.884A91.492,91.492,0,0,0,59,133.713l-.05,18.77c3.251,2.364,16.606,3.568,23.447-1.426,0,0-.838-22.348-.838-25.827s-1.931-7.657-7.268-7.967Z"/><path class="i" d="M73.858,118.472c-1.187.96-4.361,1.237-6.564.35a57.147,57.147,0,0,0,6.741,6.358A10.214,10.214,0,0,0,73.858,118.472Z"/><path d="M68.488,102.643a6.264,6.264,0,1,0,6.264-6.258,6.264,6.264,0,0,0-6.264,6.258Z"/><path d="M63.927,107.081a54.463,54.463,0,0,0,1.42,5.548,2.169,2.169,0,0,0,1.248,1l-.072-3.357Z"/><path d="M65.2,100.262a2.341,2.341,0,0,0-1.942.682c-.838.854-.372,3.529.671,6.147l1.909.222Z"/><path class="ag" d="M66.413,107.314c-.383.227-.932-.51-1.4-1a1.652,1.652,0,0,0-2.774.455c-.76,1.626.677,3.834,1.892,4.217,2.1.655,2.408-.688,2.408-.688l.155,7.768h0a52.62,52.62,0,0,0,7.357,7.1,10.128,10.128,0,0,0-.555-7.529v-2.286a13.144,13.144,0,0,0,2.824.144c1.537-.233,2.508-1.448,2.974-3.118.749-2.674,1.032-4.838.4-10.1-.7-5.77-7.412-5.831-11.035-3.551S66.413,107.314,66.413,107.314Z"/><path d="M79.579,99.7a6.21,6.21,0,0,1-4.538,1.664,10.947,10.947,0,0,1-4.855-.938,3.157,3.157,0,0,1-.721,1.587,4.9,4.9,0,0,1-1.714,1.11c-.133,1.038-.128,2.369-.194,3.412,0,.355,0,2.219-.854,1.664a4.239,4.239,0,0,1-.732-.816,11.7,11.7,0,0,0-.96-1.071c-.66-.6.189-6.048.189-6.048a2.641,2.641,0,0,1,.461-2.941c.9-1,2.169-2.219,6.275-1.731,2.929.35,6.1,1.259,8.694,0A4.455,4.455,0,0,1,79.579,99.7Z"/><path d="M65.2,100.684l-2.319-1.243a1.282,1.282,0,0,1,1.759-.555,1.387,1.387,0,0,1,.56,1.8Z"/><path class="ai" d="M73.492,115.348a25.869,25.869,0,0,1-4.638-1.332,3.95,3.95,0,0,1-1.664-1.664,5.487,5.487,0,0,0,.943,1.942c.882,1.11,5.36,1.947,5.36,1.947Z"/><path d="M72.849,106.432a.738.738,0,1,1-.738-.771.76.76,0,0,1,.738.771Z"/><path d="M72.127,103.935l-1.526.838a.91.91,0,0,1,.361-1.21.843.843,0,0,1,1.165.372Z"/><path class="ai" d="M72.283,110.732l2.5.932a1.309,1.309,0,0,1-1.7.827,1.387,1.387,0,0,1-.8-1.759Z"/><path d="M79.079,104.5l-1.4-1.071a.843.843,0,0,1,1.21-.189A.927.927,0,0,1,79.079,104.5Z"/><path d="M78.619,106.354a.716.716,0,1,1-.716-.743.727.727,0,0,1,.716.743Z"/><path class="ai" d="M75.1,105.367l.244,4.494,2.347-.8Z"/><path class="c" d="M66.13,117.961c-.91.194-1.16,4.039-.938,8.694.039.766.089,1.376.072,1.664h-.516c0-.277,0-.877-.072-1.626-.233-3.684-.261-9.027,1.343-9.271a2.28,2.28,0,0,1,.649-.061v.555Z"/><path class="j" d="M66.13,117.961c-.91.194-1.16,4.039-.938,8.694.039.766.089,1.376.072,1.664h-.516c0-.277,0-.877-.072-1.626-.233-3.684-.261-9.027,1.343-9.271a2.28,2.28,0,0,1,.649-.061v.555Z"/><path class="i" d="M64,140.515H63.96v-.361a2.341,2.341,0,0,0,1.193-.444,4.344,4.344,0,0,1-.988-.9c-.588-.755-1.87-6.159-1.476-7.418.333-1.054,1.37-3.384,2.291-3.423h0c.921,0,2.131,2.219,2.547,3.218.5,1.221-.316,6.713-.832,7.518a4.527,4.527,0,0,1-.915.976,2.253,2.253,0,0,0,1.226.338l.044.361a2.818,2.818,0,0,1-1.587-.46,2.9,2.9,0,0,1-1.459.594Zm1.015-12.178h0c-.555,0-1.515,1.748-1.959,3.168-.366,1.154.866,6.386,1.409,7.085a4.117,4.117,0,0,0,1,.893,4.316,4.316,0,0,0,.943-.976c.477-.743,1.265-6.059.8-7.179C66.673,129.962,65.569,128.337,65.02,128.337Z"/><path class="g" d="M67.6,140.182a.555.555,0,1,1-.555-.51A.555.555,0,0,1,67.6,140.182Z"/><path class="g" d="M64.5,140.31a.555.555,0,1,1-.555-.51A.555.555,0,0,1,64.5,140.31Z"/><path class="c" d="M67.655,133.569H67.35a.128.128,0,0,1-.111-.128,5.876,5.876,0,0,0-.094-2.058c-.555-1.309-1.664-2.957-2.131-2.935s-1.454,1.753-1.881,3.107a6.17,6.17,0,0,0,.083,2.058.122.122,0,0,1-.1.139l-.3.044a.122.122,0,0,1-.139-.1,6.153,6.153,0,0,1-.061-2.308c.227-.721,1.3-3.44,2.375-3.484s2.369,2.569,2.658,3.273a6.1,6.1,0,0,1,.133,2.3.122.122,0,0,1-.128.094Z"/><g class="r"><path d="M67.655,133.569H67.35a.128.128,0,0,1-.111-.128,5.876,5.876,0,0,0-.094-2.058c-.555-1.309-1.664-2.957-2.131-2.935s-1.454,1.753-1.881,3.107a6.17,6.17,0,0,0,.083,2.058.122.122,0,0,1-.1.139l-.3.044a.122.122,0,0,1-.139-.1,6.153,6.153,0,0,1-.061-2.308c.227-.721,1.3-3.44,2.375-3.484s2.369,2.569,2.658,3.273a6.1,6.1,0,0,1,.133,2.3.122.122,0,0,1-.128.094Z"/></g><path class="c" d="M73.492,116.846c.821.111,3.329,1.354,4.538,5.1s1.11,9.626,1.11,11.268a26.418,26.418,0,0,1-.15,2.874H78.4s.083-2.092.105-3.14c.083-4.616-.205-8.555-1.11-10.93-1.11-2.841-2.358-3.751-3.884-4.472Z"/><path class="j" d="M73.492,116.846c.821.111,3.329,1.354,4.538,5.1s1.11,9.626,1.11,11.268a26.418,26.418,0,0,1-.15,2.874H78.4s.083-2.092.105-3.14c.083-4.616-.205-8.555-1.11-10.93-1.11-2.841-2.358-3.751-3.884-4.472Z"/><circle class="i" cx="2.119" cy="2.119" r="2.119" transform="translate(76.449 134.251)"/><circle class="h" cx="1.204" cy="1.204" r="1.204" transform="translate(77.365 135.167)"/><path class="c" d="M66.64,153.021v17.754a.344.344,0,0,1-.144.327l-.8.472a.327.327,0,0,1-.128,0,.477.477,0,0,1-.227-.067l-20.124-11.6a1.154,1.154,0,0,1-.516-.9V141.258a.372.372,0,0,1,.144-.333h.033l.755-.438a.266.266,0,0,1,.133-.033.516.516,0,0,1,.233.067l10.542,6.1,1.248.721,1.864,1.071h.05l6.4,3.7a.9.9,0,0,1,.105.072,1.221,1.221,0,0,1,.261.316,1.06,1.06,0,0,1,.166.522Z"/><path class="aj" d="M66.49,152.51l-.777.455h0a1.06,1.06,0,0,0-.078-.117,1.28,1.28,0,0,0-.183-.2l-.105-.078-6.4-3.69-1.9-1.11-.766-.438-11.052-6.353a.388.388,0,0,0-.338-.05l.755-.438a.266.266,0,0,1,.133-.033.444.444,0,0,1,.233.067l10.542,6.1,1.248.721,1.864,1.071h.05l6.4,3.7a.9.9,0,0,1,.105.072,1.221,1.221,0,0,1,.266.322Z"/><path class="c" d="M44.708,141.281v17.754a1.154,1.154,0,0,0,.522.9l20.179,11.651a.305.305,0,0,0,.461-.266V153.476a1.049,1.049,0,0,0-.155-.51,1.11,1.11,0,0,0-.366-.388l-6.4-3.7-1.9-1.11-11.818-6.791a.388.388,0,0,0-.338-.05h0a.372.372,0,0,0-.183.35Z"/><path class="c" d="M65.713,152.965h0a1.06,1.06,0,0,0-.078-.117.626.626,0,0,1,.078.117Z"/><path class="j" d="M65.669,171.58h0l.8-.466a.394.394,0,0,0,.139-.333V153.026a1.049,1.049,0,0,0-.155-.51l-.777.455h0a1.043,1.043,0,0,1,.15.51V171.3A.3.3,0,0,1,65.669,171.58Z"/><path class="ag" d="M49.784,142.59c4.311-17.621,6.525-23.025,11.762-22.959,1.531,1.825-.083,7.512-1.11,10.275,0,0-4.633,11.318-5.493,15.358a56.82,56.82,0,0,0-1.554,11.063,2.219,2.219,0,0,0,.6,1.454c.982,1.065.988,1.925,1.62,3.1.5.927,1.049,1.271.893,1.476a1.193,1.193,0,0,1-1.62.122,6.27,6.27,0,0,1-1.226-1.176,13.754,13.754,0,0,0,.96,4.05l1.11.633s-.333,1.137-2.979.377c-2.991-.854-4.061-1.226-4.378-6.3a39.587,39.587,0,0,1-.055-5.609A96.482,96.482,0,0,1,49.784,142.59Z"/><path class="h" d="M61.674,118.206s-4.022.144-5.287,2.081c-1.465,2.219-2.741,6.22-5.2,14.98a80.507,80.507,0,0,0-3.329,20.04,6.949,6.949,0,0,0,5.92-.2s1.259-7.607,2.375-11.651,4.694-12.816,4.694-12.816S63.666,124.281,61.674,118.206Z"/><path class="c" d="M62.823,117.989c-2.979.311-5.659.216-7.135,2.979-1.664,3.118-5.376,14.425-5.376,14.425a11.058,11.058,0,0,0,7.856,3.623l3.584-10.037S64.116,122.311,62.823,117.989Z"/><g class="ak"><path class="e" d="M62.823,117.989c-2.979.311-5.659.216-7.135,2.979-1.664,3.118-5.376,14.425-5.376,14.425a11.058,11.058,0,0,0,7.856,3.623l3.584-10.037S64.116,122.311,62.823,117.989Z"/></g><path class="h" d="M67.012,167.646c.239.15.344-.305.4-.971v-1.232s.943.843,1.171-2.008c.255-3.135-1.148-3.706-1.148-3.706v-1.554c0-1.032-.216-1.287-.455-1.459l-.355-.178V167.43A4.2,4.2,0,0,1,67.012,167.646Z"/><path class="h" d="M65.858,166.1c0-.932-.089-1.487-.688-1.853s-.976-.555-.976-.555l-.178-5.776s.988.666,1.326.866.555-.982.516-1.326l.81.366.094,8.922Z"/><path class="h" d="M63.91,165.538l.7.427c.394.233.555-.965.388-2.68l.166-3.817c-.178-1.714-.205-3.285-.6-3.518l-.7-.427Z"/><path class="c" d="M167.446,209.108H148.477l-.355-11.357H129.291l-.355,11.357H110l-.377,4.322v7.806h18.931l-.355,3.545v7.812h21.017v-7.812l-.355-3.545H167.79v-7.812Z"/><g class="r"><path d="M167.446,209.108H148.477l-.355-11.357H129.291l-.355,11.357H110l-.377,4.322v7.806h18.931l-.355,3.545v7.812h21.017v-7.812l-.355-3.545H167.79v-7.812Z"/></g><path class="c" d="M167.446,201.3H148.477l-.355-11.357H129.291l-.355,11.357H110l-.377,12.134h18.931l-.355,11.352h21.017l-.355-11.357H167.79Z"/><line class="c" x1="1.093" y2="34.843" transform="translate(128.198 189.939)"/><path class="al" d="M148.86,213.425H167.79v7.812H149.1Z"/><path class="al" d="M128.553,213.43l-.244,7.806H109.622V213.43Z"/></g></svg>