<svg xmlns="http://www.w3.org/2000/svg" width="37.886" height="109.488" viewBox="0 0 37.886 109.488"><defs><style>.a{fill:#dad4d3;}.a,.e,.s{mix-blend-mode:multiply;isolation:isolate;}.b{fill:#1c100f;}.c{fill:#e08a5f;}.d{fill:#f9ab7a;}.e,.l{fill:none;stroke-linecap:round;stroke-linejoin:round;}.e{stroke:#a59c98;stroke-width:0.986px;}.f{fill:#23130a;}.g{fill:#271816;}.h{fill:#f0e7dc;}.i{fill:#b5bfc4;}.j{fill:#ab4f50;}.k{fill:#a5a7b4;}.l{stroke:#3a110a;stroke-width:0.938px;}.m{fill:#dcdef0;}.n{fill:#17222e;}.o{fill:#f8ab83;}.p{fill:#467397;}.q{fill:#d5e1e7;}.r{fill:#4c7fa8;}.s{fill:#dddcdc;}.t{fill:#402828;}</style></defs><g transform="translate(0 0)"><path class="a" d="M1627.975,1931.417c-3.745.333-11.254-.513-13.721,1.851,1.682,2.314,9.164,1.594,12.406,2.166,4.947.871,7.445,1.412,12.489.674,2.451-.358,10.917.378,12.3-1.065,3.419-3.562-6.869-4.516-9.45-3.973Z" transform="translate(-1614.254 -1826.967)"/><g transform="translate(4.078 0)"><path class="b" d="M1678.859,1268.233c.108,3.058,1.648,5.573,6.778,5.573s6.629-3.83,6.715-5.573Z" transform="translate(-1670.837 -1259.479)"/><path class="c" d="M1707.632,1282.4s.253,1.721-2.673,1.721-2.572-1.721-2.572-1.721a22.181,22.181,0,0,0,0-6.458c-.564-2.781,5.713-4.179,5.245,0A22.848,22.848,0,0,0,1707.632,1282.4Z" transform="translate(-1690.158 -1263.842)"/><path class="d" d="M1690.3,1223.24h0c-4.917,0-5.833,4.315-5.833,6.755s3.12,5.855,5.834,5.855,5.833-3.413,5.833-5.855S1695.219,1223.24,1690.3,1223.24Z" transform="translate(-1675.449 -1220.823)"/><path class="e" d="M1714.867,1275.905c-.34,1.014-.827,1.358-.633,1.622.219.3,1.07.164,1.07.164" transform="translate(-1699.895 -1266.07)"/><g transform="translate(10.803 8.009)"><path class="f" d="M1700.325,1269.986a.487.487,0,1,1-.475-.376A.434.434,0,0,1,1700.325,1269.986Z" transform="translate(-1698.515 -1268.671)"/><path class="g" d="M1696.421,1263.376a1.659,1.659,0,0,0-.884-.116,1.418,1.418,0,0,0-.78.4.157.157,0,0,1-.186.016.091.091,0,0,1-.026-.141,1.675,1.675,0,0,1,.909-.547,2.163,2.163,0,0,1,1.173.08.163.163,0,0,1,.113.229.245.245,0,0,1-.289.089l-.017-.006Z" transform="translate(-1694.521 -1262.943)"/><path class="f" d="M1729.942,1269.986a.487.487,0,1,0,.474-.376A.433.433,0,0,0,1729.942,1269.986Z" transform="translate(-1723.654 -1268.671)"/><g transform="translate(5.863)"><path class="g" d="M1727.678,1263.069a2.163,2.163,0,0,1,1.173-.08,1.676,1.676,0,0,1,.909.547.092.092,0,0,1-.035.146.158.158,0,0,1-.177-.021,1.418,1.418,0,0,0-.781-.4,1.658,1.658,0,0,0-.884.116l-.012.005a.251.251,0,0,1-.3-.069.157.157,0,0,1,.087-.236Z" transform="translate(-1727.548 -1262.943)"/></g></g><g transform="translate(7.55 8.191)"><path class="d" d="M1748.277,1264.73a1.02,1.02,0,0,1,.88-.492.835.835,0,0,1,.864,1.123c-.247.588-.724,1.174-1.273,1.12a.617.617,0,0,1-.433-.255" transform="translate(-1735.481 -1264.238)"/><path class="c" d="M1749.859,1267.619a.251.251,0,0,1-.224.051c-.1-.044-.024-.088-.025-.158s-.058-.1-.088-.159a.189.189,0,0,1,0-.189.8.8,0,0,1,.687-.6v-.008a.577.577,0,0,0-.553.069c-.135.1-.155.256-.249.374s-.286.276-.132.376c.061.04.169.031.185.112.019.1-.115.1-.153.166-.028.048-.009.1.068.119.051.011.08-.026.12-.021a.393.393,0,0,1,.081.032c.069.026.088.083.181.028.074-.044.079-.141.116-.206" transform="translate(-1736.254 -1266.194)"/><path class="d" d="M1678,1264.73a1.02,1.02,0,0,0-.881-.492.834.834,0,0,0-.863,1.123c.247.588.723,1.174,1.273,1.12a.62.62,0,0,0,.433-.255" transform="translate(-1676.196 -1264.238)"/><path class="c" d="M1680.2,1267.619a.251.251,0,0,0,.224.051c.1-.044.024-.088.025-.158s.058-.1.088-.159a.19.19,0,0,0,0-.189.8.8,0,0,0-.688-.6v-.008a.578.578,0,0,1,.553.069c.135.1.155.256.25.374s.286.276.132.376c-.061.04-.17.031-.185.112-.019.1.115.1.154.166.028.048.009.1-.068.119-.052.011-.08-.026-.12-.021a.4.4,0,0,0-.08.032c-.069.026-.089.083-.182.028-.074-.044-.079-.141-.116-.206" transform="translate(-1679.205 -1266.194)"/></g><path class="h" d="M1709.665,1294.6h2.72a1.473,1.473,0,0,1-1.388.819A1.355,1.355,0,0,1,1709.665,1294.6Z" transform="translate(-1696.174 -1282.13)"/><g transform="translate(0 95.678)"><path class="i" d="M1681.447,1890.008l.143-4.6a4.345,4.345,0,0,1-2.933,0l.216,4.6S1679.5,1890.513,1681.447,1890.008Z" transform="translate(-1670.67 -1885.407)"/><g transform="translate(0 3.166)"><path class="j" d="M1644.454,1915.549a.327.327,0,0,1,.313.357c-.052,1.086.946.46.647,3.006h-11.745s-.019-1.793,2.457-2.07a27.122,27.122,0,0,0,5.728-1.368l.017.367a6.59,6.59,0,0,0,2.574,0Z" transform="translate(-1633.669 -1914.405)"/><rect class="k" width="11.745" height="0.888" transform="translate(0 4.508)"/><g transform="translate(3.098)"><g transform="translate(2.056)"><path class="l" d="M1669.478,1909.241c.24-.089,2.026-.179,1.9.335s-1.685-.126-1.9-.335c.072-.236.154-1.3-.326-1.356s-.234,1.208.326,1.356a1.874,1.874,0,0,0-.029,1.13" transform="translate(-1667.797 -1907.883)"/><path class="l" d="M1662.705,1917.8a3.233,3.233,0,0,0,1.681-.269" transform="translate(-1662.705 -1916.169)"/></g><path class="l" d="M1651.268,1925.054a.458.458,0,0,0-.147-.47" transform="translate(-1651.121 -1922.232)"/><path class="l" d="M1656.286,1924.2c.009-.17-.089-.543-.363-.61" transform="translate(-1655.071 -1921.373)"/><path class="l" d="M1661.038,1922.949a1.072,1.072,0,0,0-.674-.65" transform="translate(-1658.723 -1920.269)"/><path class="l" d="M1665.644,1921.312a1.4,1.4,0,0,0-.785-.728" transform="translate(-1662.42 -1918.795)"/></g><path class="m" d="M1633.669,1927.567s-.018-1.63,2.1-2.02c0,0,.682.263.682,2.02Z" transform="translate(-1633.669 -1923.059)"/></g><g transform="translate(17.988)"><path class="i" d="M1740.1,1890.008l-.143-4.6a4.342,4.342,0,0,0,2.932,0l-.216,4.6S1742.049,1890.513,1740.1,1890.008Z" transform="translate(-1739.08 -1885.407)"/><g transform="translate(0 3.166)"><path class="j" d="M1736.01,1915.549a.328.328,0,0,0-.313.357c.053,1.086-.946.46-.647,3.006h11.745s.02-1.793-2.456-2.07a27.145,27.145,0,0,1-5.729-1.368l-.017.367a6.587,6.587,0,0,1-2.574,0Z" transform="translate(-1734.994 -1914.405)"/><rect class="k" width="11.745" height="0.888" transform="translate(0.056 4.508)"/><g transform="translate(3.062)"><path class="l" d="M1754.145,1909.241c-.24-.089-2.027-.179-1.9.335s1.685-.126,1.9-.335c-.072-.236-.154-1.3.326-1.356s.234,1.208-.326,1.356a1.863,1.863,0,0,1,.029,1.13" transform="translate(-1752.241 -1907.883)"/><path class="l" d="M1764.644,1917.8a3.235,3.235,0,0,1-1.681-.269" transform="translate(-1761.059 -1916.169)"/><path class="l" d="M1783.125,1925.054a.457.457,0,0,1,.147-.47" transform="translate(-1777.631 -1922.232)"/><path class="l" d="M1777.167,1924.2c-.009-.17.09-.543.363-.61" transform="translate(-1772.741 -1921.373)"/><path class="l" d="M1770.975,1922.949a1.07,1.07,0,0,1,.674-.65" transform="translate(-1767.649 -1920.269)"/><path class="l" d="M1765.855,1921.312a1.4,1.4,0,0,1,.785-.728" transform="translate(-1763.438 -1918.795)"/></g><path class="m" d="M1788.568,1927.567s.019-1.63-2.1-2.02c0,0-.683.263-.683,2.02Z" transform="translate(-1776.767 -1923.059)"/></g></g></g><path class="n" d="M1681.753,1480.088a16.451,16.451,0,0,1-11.709,0c0,.589-3.14,4.424-3.14,9.242s.894,24.263.894,24.263l.743,26.356s2.236.9,3.793-.033l1.48-25.583s1.046-15.757,1.513-19.45c0,0,.076-.171.572-.171s.621.151.621.151c.3,3.723,1.464,19.469,1.464,19.469l1.48,25.583c1.558.936,3.793.033,3.793.033l.743-26.356s.894-20.4.894-24.263S1681.753,1480.872,1681.753,1480.088Z" transform="translate(-1661.004 -1441.496)"/><g transform="translate(0.527 19.954)"><path class="o" d="M1640.289,1546.053a3.514,3.514,0,0,0,.106,2.016,2.793,2.793,0,0,1,.459,2.655s-.066.87-.709.889-.468-.681-.37-1.434-.877-.171-.92.7a2.078,2.078,0,0,0,1.155,2.023c.965.406.862.874.418,1.081a4.445,4.445,0,0,1-3.166-1.565,3.281,3.281,0,0,1-.011-3.838,3.223,3.223,0,0,0,.611-2.527C1637.737,1545.882,1639.374,1545.284,1640.289,1546.053Z" transform="translate(-1636.635 -1517.794)"/><g transform="translate(0.724)"><path class="p" d="M1645.453,1460.319c-.157,1.046-1.375,11.946-1.375,11.946a5.834,5.834,0,0,1-3.362-.18c.085-.634,1.091-11.707,1.239-12.458s.72-1.284,2.021-1.23C1645.167,1458.447,1645.815,1459.072,1645.453,1460.319Z" transform="translate(-1640.715 -1442.81)"/><path class="p" d="M1647.691,1364.568s.474-4.23,1.115-9.033c.4-2.973.42-7.1,2.937-7.692,2.773-.655,2.481,2.309,2.122,4.392-.9,5.227-2.675,13.025-2.675,13.025" transform="translate(-1646.453 -1347.751)"/></g><g transform="translate(20.373)"><path class="o" d="M1774.7,1546.053a3.514,3.514,0,0,1-.106,2.016,2.8,2.8,0,0,0-.459,2.655s.066.87.709.889.468-.681.37-1.434.876-.171.92.7a2.079,2.079,0,0,1-1.156,2.023c-.964.406-.861.874-.417,1.081a4.444,4.444,0,0,0,3.166-1.565,3.282,3.282,0,0,0,.011-3.838,3.229,3.229,0,0,1-.611-2.527C1777.255,1545.882,1775.618,1545.284,1774.7,1546.053Z" transform="translate(-1769.994 -1517.794)"/><path class="p" d="M1767.269,1460.319c.157,1.046,1.376,11.946,1.376,11.946a5.833,5.833,0,0,0,3.362-.18c-.085-.634-1.092-11.707-1.239-12.458s-.719-1.284-2.019-1.23C1767.555,1458.447,1766.908,1459.072,1767.269,1460.319Z" transform="translate(-1764.369 -1442.81)"/><path class="p" d="M1757.793,1364.568s-.473-4.23-1.115-9.033c-.4-2.973-.421-7.1-2.938-7.692-2.773-.655-2.48,2.309-2.121,4.392.9,5.227,2.674,13.025,2.674,13.025" transform="translate(-1751.393 -1347.751)"/></g></g><g transform="translate(5.275 18.534)"><path class="q" d="M1717.253,1546.548h0Z" transform="translate(-1707.689 -1517.13)"/><path class="r" d="M1679.666,1354.225c-.033-1.7.206-4.426.206-4.426a3.806,3.806,0,0,0,1.534-2.535c.064-.553.007-8.159-.6-8.162a15.574,15.574,0,0,1-5.236-1.428s-.632.851-2.615.851a3.435,3.435,0,0,1-2.658-.823,14.73,14.73,0,0,1-4.837,1.4c-.584.046-1.04,7.518-.966,8.166a3.808,3.808,0,0,0,1.534,2.535s.238,2.722.205,4.426c-.061,3.171-2.857,10.936-2.857,10.936s2.712,1.929,9.571,1.931,9.571-1.931,9.571-1.931S1679.727,1357.4,1679.666,1354.225Z" transform="translate(-1663.381 -1337.674)"/><path class="s" d="M1690.151,1419.253c-1.837-.3-3.949-1.178-5.8-.694-1.219.321-2.127.674-3.405.893a4.092,4.092,0,0,1-2.628-.282,2.855,2.855,0,0,0,2.628.881c1.278-.218,2.186-.572,3.405-.891,1.847-.484,3.971.356,5.8.693a2.173,2.173,0,0,0,2.025-.6C1691.593,1419.618,1690.786,1419.356,1690.151,1419.253Z" transform="translate(-1675.669 -1407.045)"/></g><path class="t" d="M1686.45,1209.577c-.5-1.629-1.946-2.887-3.754-2.189-1.739-1.907-6.9-2-9.343,1.529-3.558,5.153-.89,9.691.746,11.624a7.376,7.376,0,0,1,1.989,4.8c1.385-1.519-.3-4.941-.978-7.288a4.134,4.134,0,0,1,1.491-4.478,11.011,11.011,0,0,1,2.029-.948,9.774,9.774,0,0,0,2.146-.941,3.457,3.457,0,0,0,1.189-1c.2,2.081,2.81,2.685,2.764,3.581-.009.193-.243,1.636.277,1.5a2.379,2.379,0,0,1,.2-1,1.02,1.02,0,0,1,.88-.493.981.981,0,0,1,.653.235A22.618,22.618,0,0,0,1686.45,1209.577Z" transform="translate(-1664.86 -1206.078)"/><path class="c" d="M1699.646,1338.465a19.659,19.659,0,0,1-2.04-.792,3.609,3.609,0,0,1-2.623.851,3.565,3.565,0,0,1-2.612-.851,14.888,14.888,0,0,1-2.012.818c-.819.268,1.047,4.038,4.624,4.038S1700.465,1338.734,1699.646,1338.465Z" transform="translate(-1680.137 -1319.14)"/></g></g></svg>