<svg xmlns="http://www.w3.org/2000/svg" width="37.881" height="104.355" viewBox="0 0 37.881 104.355"><defs><style>.a{fill:#dad4d3;}.a,.e{mix-blend-mode:multiply;isolation:isolate;}.b{fill:#171c22;}.c{fill:#e08a5f;}.d{fill:#f9ab7a;}.e,.k{fill:none;stroke-linecap:round;stroke-linejoin:round;}.e{stroke:#a59c98;stroke-width:0.986px;}.f{fill:#f0e7dc;}.g{fill:#1e242c;}.h{fill:#23130a;}.i{fill:#265f94;}.j{fill:#c0c3d3;}.k{stroke:#17222e;stroke-width:0.979px;}.l{fill:#dcdef0;}.m{fill:#17222e;}.n{fill:#34262f;}.o{fill:#e4c097;}.p{fill:#fed4a6;}</style></defs><g transform="translate(0 0)"><path class="a" d="M1336.453,1931.885c-3.74.263-11.259-.582-13.689,1.532,1.716,2.11,9.185,1.538,12.436,2.089,4.958.841,7.463,1.358,12.5.742,2.444-.3,10.918.457,12.282-.833,3.363-3.188-6.936-4.161-9.508-3.7Z" transform="translate(-1322.764 -1832.163)"/><g transform="translate(3.418 0)"><path class="b" d="M1443.425,1153.223c-.412-.195-.99-1.3-.722-1.816.322-.622,2.134-.966,2.8-.835,2.357.463.833,2.366-.344,3.027Z" transform="translate(-1428.507 -1150.545)"/><path class="c" d="M1442.794,1239.5a4.129,4.129,0,0,1-2.775.992,3.7,3.7,0,0,1-2.668-.992,19.753,19.753,0,0,0,0-6.2c-.587-2.67,5.929-4.013,5.443,0A20.321,20.321,0,0,0,1442.794,1239.5Z" transform="translate(-1423.965 -1220.554)"/><path class="d" d="M1425.036,1179.4h0c-4.435,0-5.658,3.2-5.26,6.107a7.859,7.859,0,0,0,.595,2.132,9.436,9.436,0,0,0,1.267,2.393,4.054,4.054,0,0,0,6.791,0,9.308,9.308,0,0,0,1.234-2.308,7.82,7.82,0,0,0,.633-2.218C1430.692,1182.6,1429.47,1179.4,1425.036,1179.4Z" transform="translate(-1408.934 -1175.728)"/><path class="e" d="M1453.542,1236.36c-.281.915-.681,1.225-.521,1.465.18.27.882.148.882.148" transform="translate(-1437.342 -1225.434)"/><g transform="translate(10.081 9.501)"><path class="d" d="M1487.074,1225.617a.828.828,0,0,1,.725-.445.742.742,0,0,1,.712,1.015c-.2.531-.6,1.062-1.049,1.013a.5.5,0,0,1-.358-.23" transform="translate(-1476.523 -1225.172)"/><path class="c" d="M1488.537,1228.45a.193.193,0,0,1-.185.044c-.085-.039-.02-.078-.02-.143s-.048-.094-.072-.144a.18.18,0,0,1,0-.17.682.682,0,0,1,.566-.539v-.008a.44.44,0,0,0-.456.064c-.111.089-.128.23-.206.337s-.237.251-.109.341c.05.035.139.027.152.1.017.089-.094.092-.126.15a.071.071,0,0,0,.056.108c.042.01.065-.022.1-.019a.321.321,0,0,1,.067.03c.057.024.073.075.149.024.061-.039.065-.128.095-.186" transform="translate(-1477.322 -1227.161)"/><path class="d" d="M1416.481,1225.617a.828.828,0,0,0-.725-.445.741.741,0,0,0-.711,1.015c.2.531.6,1.062,1.048,1.013a.5.5,0,0,0,.357-.23" transform="translate(-1414.991 -1225.172)"/><path class="c" d="M1418.939,1228.45a.2.2,0,0,0,.186.044c.084-.039.02-.078.021-.143s.048-.094.071-.144a.181.181,0,0,0,0-.17c-.076-.232-.246-.525-.566-.539v-.008a.441.441,0,0,1,.456.064c.111.089.128.23.205.337s.237.251.109.341c-.049.035-.139.027-.151.1-.016.089.094.092.126.15a.071.071,0,0,1-.056.108c-.042.01-.066-.022-.1-.019a.3.3,0,0,0-.067.03c-.057.024-.073.075-.149.024-.06-.039-.066-.128-.1-.186" transform="translate(-1418.115 -1227.161)"/></g><path class="f" d="M1446.633,1256.047a10.592,10.592,0,0,0,2.778,0,1.506,1.506,0,0,1-1.417.864A1.389,1.389,0,0,1,1446.633,1256.047Z" transform="translate(-1431.921 -1242.615)"/><path class="g" d="M1427.848,1172.871s2.784-7.632-5.293-7.632-5.292,7.632-5.292,7.632a.884.884,0,0,1,.761.444,1.813,1.813,0,0,1,.17.891c.549.178.261-1.807.256-2.217-.032-2.043,1.9-2.437,4.317-2.437s3.673.624,3.785,2.678c.009.175-.062,2.119.367,1.993a2.331,2.331,0,0,1,.166-.909A.885.885,0,0,1,1427.848,1172.871Z" transform="translate(-1406.454 -1163.368)"/><g transform="translate(12.439 8.999)"><path class="h" d="M1437.584,1228.9a.395.395,0,1,1-.391-.34A.368.368,0,0,1,1437.584,1228.9Z" transform="translate(-1435.968 -1227.624)"/><path class="h" d="M1470.1,1228.9a.395.395,0,1,0,.391-.34A.368.368,0,0,0,1470.1,1228.9Z" transform="translate(-1464.395 -1227.624)"/><g transform="translate(5.261)"><path class="g" d="M1467.233,1221.332a2.292,2.292,0,0,1,.9-.1,2.254,2.254,0,0,1,.847.242.213.213,0,0,1,.093.313.285.285,0,0,1-.351.085l-.006,0a1.706,1.706,0,0,0-1.26-.079l-.015.006a.3.3,0,0,1-.374-.138.24.24,0,0,1,.158-.326Z" transform="translate(-1467.044 -1221.226)"/></g><path class="g" d="M1432.754,1221.793a1.7,1.7,0,0,0-1.258.079l-.006,0a.284.284,0,0,1-.357-.092.214.214,0,0,1,.1-.306,2.248,2.248,0,0,1,.846-.242,2.286,2.286,0,0,1,.9.1.242.242,0,0,1,.172.32.3.3,0,0,1-.368.15l-.009,0Z" transform="translate(-1431.102 -1221.226)"/></g><g transform="translate(1.253 93.267)"><path class="i" d="M1364.282,1906.194c.136.014.253.2.287.351a20.925,20.925,0,0,1,.576,4.166h-10.47s-.02-1.767,2.19-2.024c3.733-.434,4.387-2.549,5.09-2.541l.033.334a3.138,3.138,0,0,0,2.294,0Z" transform="translate(-1354.675 -1903.211)"/><rect class="j" width="10.47" height="0.868" transform="translate(0 7.5)"/><g transform="translate(2.762 2.63)"><path class="k" d="M1393.133,1905.074c.214-.087,1.807-.175,1.691.327s-1.5-.123-1.691-.327c.064-.233.138-1.268-.291-1.326s-.207,1.181.291,1.326a1.994,1.994,0,0,0-.025,1.1" transform="translate(-1389.823 -1903.746)"/><path class="k" d="M1385.92,1914.439a2.657,2.657,0,0,0,1.5-.261" transform="translate(-1384.109 -1912.85)"/><path class="k" d="M1373.676,1925.9a.474.474,0,0,0-.131-.46" transform="translate(-1373.545 -1922.679)"/><path class="k" d="M1378.917,1924.8c.009-.167-.1-.556-.348-.622" transform="translate(-1377.834 -1921.574)"/><path class="k" d="M1383.915,1923.144a1.175,1.175,0,0,0-.64-.7" transform="translate(-1381.851 -1920.06)"/><path class="k" d="M1388.9,1920.715a1.518,1.518,0,0,0-.887-.681" transform="translate(-1385.898 -1917.96)"/></g><path class="l" d="M1354.675,1928.464a2.1,2.1,0,0,1,1.874-1.974s.608.256.608,1.974Z" transform="translate(-1354.675 -1920.964)"/><path class="m" d="M1405.062,1886.356v-3.27a3.566,3.566,0,0,1-2.615,0l.32,3.27S1403.328,1886.848,1405.062,1886.356Z" transform="translate(-1395.455 -1883.086)"/></g><g transform="translate(19.319 93.267)"><path class="i" d="M1478.971,1906.194c-.137.014-.252.2-.287.351a20.9,20.9,0,0,0-.576,4.166h10.47s.02-1.767-2.189-2.024c-3.734-.434-4.388-2.549-5.091-2.541l-.033.334a3.137,3.137,0,0,1-2.294,0Z" transform="translate(-1478.108 -1903.211)"/><rect class="j" width="10.47" height="0.868" transform="translate(0 7.5)"/><g transform="translate(2.702 2.63)"><path class="k" d="M1498.265,1905.074c-.214-.087-1.807-.175-1.691.327s1.5-.123,1.691-.327c-.064-.233-.138-1.268.291-1.326s.208,1.181-.291,1.326a1.987,1.987,0,0,1,.025,1.1" transform="translate(-1496.568 -1903.746)"/><path class="k" d="M1509.658,1914.439a2.656,2.656,0,0,1-1.5-.261" transform="translate(-1506.464 -1912.85)"/><path class="k" d="M1529.8,1925.9a.474.474,0,0,1,.13-.46" transform="translate(-1524.929 -1922.679)"/><path class="k" d="M1523.361,1924.8c-.008-.167.106-.556.349-.622" transform="translate(-1519.439 -1921.574)"/><path class="k" d="M1516.667,1923.144a1.175,1.175,0,0,1,.64-.7" transform="translate(-1513.725 -1920.06)"/><path class="k" d="M1510.234,1920.715a1.519,1.519,0,0,1,.888-.681" transform="translate(-1508.234 -1917.96)"/></g><path class="l" d="M1535.164,1928.464a2.1,2.1,0,0,0-1.873-1.974s-.609.256-.609,1.974Z" transform="translate(-1524.694 -1920.964)"/><path class="m" d="M1484.005,1886.356v-3.27a3.565,3.565,0,0,0,2.614,0l-.32,3.27S1485.739,1886.848,1484.005,1886.356Z" transform="translate(-1483.142 -1883.086)"/></g><path class="n" d="M1408.166,1501.7H1390.5l-.227,7.475.57,19.367.609,25.116a5.18,5.18,0,0,0,3.617.446l2.078-24.712s1.1-12.895,1.585-17.139c0,0,.08-.2.6-.2s.651.173.651.173c.317,4.278,1.534,17.162,1.534,17.162l2.075,24.712a6.339,6.339,0,0,0,3.644-.358l.586-25.2.57-19.367Z" transform="translate(-1383.811 -1456.992)"/><g transform="translate(0 18.943)"><g transform="translate(0 2.003)"><g transform="translate(0 15.97)"><path class="c" d="M1349.345,1554.946a3.406,3.406,0,0,0-.034,1.793,2.646,2.646,0,0,1,.213,2.373s-.1.769-.626.759-.339-.623-.215-1.286-.7-.188-.786.586a1.851,1.851,0,0,0,.815,1.841c.756.4.644.809.273.974a3.406,3.406,0,0,1-2.468-1.516,3.155,3.155,0,0,1,.219-3.406,3.118,3.118,0,0,0,.644-2.216C1347.291,1554.691,1348.651,1554.227,1349.345,1554.946Z" transform="translate(-1346.116 -1540.033)"/><path class="c" d="M1358.909,1442.382c-.172.952-2.805,14.309-2.805,14.309a2.41,2.41,0,0,1-1.893-.346c.093-.561,1.187-13.82,1.34-14.5a1.485,1.485,0,0,1,1.878-1.324C1358.822,1440.693,1359.083,1441.43,1358.909,1442.382Z" transform="translate(-1353.026 -1440.495)"/></g><path class="c" d="M1362.943,1335.4s.8-7.652,1.095-11.307c.118-1.437-.14-5.012,2.216-5.809,1.865-.632,3.429.351,3.633,1.937.443,3.467-3.589,15.684-3.589,15.684" transform="translate(-1360.48 -1317.708)"/><path class="o" d="M1369.25,1327.475s1.064-8.647.87-10.156a3,3,0,0,0-4.025-2.079c-2.355.8-2.232,4.572-2.349,6.009-.088,1.062-.8,5.341-.8,5.341a7.824,7.824,0,0,0,3.078.886A7.248,7.248,0,0,0,1369.25,1327.475Z" transform="translate(-1360.48 -1315.06)"/><g transform="translate(21.415)"><g transform="translate(3.733 15.97)"><path class="c" d="M1534.345,1554.946a3.42,3.42,0,0,1,.034,1.793,2.646,2.646,0,0,0-.214,2.373s.105.769.626.759.338-.623.215-1.286.7-.188.786.586a1.849,1.849,0,0,1-.815,1.841c-.755.4-.644.809-.273.974a3.405,3.405,0,0,0,2.468-1.516,3.154,3.154,0,0,0-.219-3.406,3.122,3.122,0,0,1-.645-2.216C1536.4,1554.691,1535.039,1554.227,1534.345,1554.946Z" transform="translate(-1531.643 -1540.033)"/><path class="c" d="M1517.979,1442.382c.173.952,2.8,14.309,2.8,14.309a2.411,2.411,0,0,0,1.893-.346c-.094-.561-1.187-13.82-1.339-14.5a1.484,1.484,0,0,0-1.877-1.324C1518.067,1440.693,1517.807,1441.43,1517.979,1442.382Z" transform="translate(-1517.932 -1440.495)"/></g><path class="c" d="M1500.925,1335.4s-.8-7.652-1.1-11.307c-.118-1.437.139-5.012-2.216-5.809-1.865-.632-3.431.351-3.633,1.937-.443,3.467,3.589,15.684,3.589,15.684" transform="translate(-1493.723 -1317.708)"/><path class="o" d="M1493.321,1327.475s-1.062-8.647-.87-10.156a3,3,0,0,1,4.025-2.079c2.355.8,2.232,4.572,2.35,6.009.087,1.062.8,5.341.8,5.341a7.837,7.837,0,0,1-3.079.886A7.251,7.251,0,0,1,1493.321,1327.475Z" transform="translate(-1492.427 -1315.06)"/></g></g><path class="p" d="M1403.214,1312.558c.225-4.844,1.343-10.586.214-11.139-1.756-.859-5-1.288-6.221-2.089a3.852,3.852,0,0,1-2.727.864,3.8,3.8,0,0,1-2.716-.864c-1.22.8-5.6,1.23-7.357,2.089-1.13.553-.011,6.295.214,11.139.27,5.8-.076,17.225-.076,17.225s2.4.717,9.372.747c6.973-.03,9.372-.747,9.372-.747S1402.944,1318.36,1403.214,1312.558Z" transform="translate(-1378.379 -1299.33)"/></g><path class="g" d="M1434.809,1227.439c-.117-1.007-.116-1.7-.363-.744,0,0,.432,2.716-4,2.716s-4-2.716-4-2.716c-.246-.957-.246-.263-.363.744a7.3,7.3,0,0,0,.048,1.915c1.145,3.229,3.367,3.393,4.312,3.393s3.145,0,4.312-3.393A7.294,7.294,0,0,0,1434.809,1227.439Zm-4.36,4.018a1.563,1.563,0,0,1-1.691-1.423c0-.518.944-.125,1.691-.125s1.691-.393,1.691.125A1.562,1.562,0,0,1,1430.449,1231.457Z" transform="translate(-1414.348 -1216.602)"/></g></g></svg>