<svg xmlns="http://www.w3.org/2000/svg" width="97.625" height="82.2" viewBox="0 0 97.625 82.2"><defs><style>.a{opacity:0.5;}.b{fill:#fff;}.c{fill:#e26777;}</style></defs><g class="a" transform="translate(31.062)"><path class="b" d="M222.126,120.588c0,2.064-1.986,3.736-4.437,3.736h-53.25c-2.452,0-4.437-1.672-4.437-3.736V57.07c0-2.064,1.986-3.736,4.437-3.736h53.25c2.452,0,4.437,1.672,4.437,3.736Z" transform="translate(-157.782 -43.993)"/><path d="M209.239,117.394h-53.25c-3.67,0-6.656-2.515-6.656-5.6V48.272c0-3.09,2.986-5.6,6.656-5.6h53.25c3.67,0,6.656,2.515,6.656,5.6V111.79C215.9,114.88,212.909,117.394,209.239,117.394ZM155.989,46.4a2.068,2.068,0,0,0-2.219,1.868V111.79a2.068,2.068,0,0,0,2.219,1.868h53.25a2.068,2.068,0,0,0,2.219-1.868V48.272a2.068,2.068,0,0,0-2.219-1.868Z" transform="translate(-149.333 -35.194)"/><path class="c" d="M247.042,25.612H202.667V21.876c0-6.191,5.96-11.209,13.313-11.209h17.75c7.353,0,13.313,5.018,13.313,11.209Z" transform="translate(-191.573 -8.799)"/><path d="M238.594,18.682H194.219A2.066,2.066,0,0,1,192,16.814V13.077C192,5.866,198.969,0,207.531,0h17.75c8.562,0,15.531,5.866,15.531,13.077v3.736A2.066,2.066,0,0,1,238.594,18.682Zm-42.156-3.736h39.937V13.077c0-5.151-4.977-9.341-11.094-9.341h-17.75c-6.117,0-11.094,4.19-11.094,9.341v1.868Z" transform="translate(-183.125)"/><ellipse cx="2.219" cy="1.868" rx="2.219" ry="1.868" transform="translate(31.062 7.473)"/><g transform="translate(13.313 24.286)"><path d="M251.052,142.4h-35.5a1.9,1.9,0,1,1,0-3.736h35.5a1.9,1.9,0,1,1,0,3.736Z" transform="translate(-213.333 -138.666)"/><path d="M233.3,195.736h-17.75a1.9,1.9,0,1,1,0-3.736H233.3a1.9,1.9,0,1,1,0,3.736Z" transform="translate(-213.333 -182.659)"/><path d="M352.427,195.736h-8.875a1.9,1.9,0,1,1,0-3.736h8.875a1.9,1.9,0,1,1,0,3.736Z" transform="translate(-314.708 -182.659)"/><path d="M318.636,249.069h-17.75a1.9,1.9,0,1,1,0-3.736h17.75a1.9,1.9,0,1,1,0,3.736Z" transform="translate(-280.917 -226.651)"/><path d="M224.427,249.069h-8.875a1.9,1.9,0,1,1,0-3.736h8.875a1.9,1.9,0,1,1,0,3.736Z" transform="translate(-213.333 -226.651)"/><path d="M318.636,355.735h-17.75a1.9,1.9,0,1,1,0-3.737h17.75a1.9,1.9,0,1,1,0,3.737Z" transform="translate(-280.917 -314.635)"/><path d="M224.427,355.735h-8.875a1.9,1.9,0,1,1,0-3.737h8.875a1.9,1.9,0,1,1,0,3.737Z" transform="translate(-213.333 -314.635)"/><path d="M233.3,302.4h-17.75a1.9,1.9,0,1,1,0-3.736H233.3a1.9,1.9,0,1,1,0,3.736Z" transform="translate(-213.333 -270.643)"/><path d="M352.427,302.4h-8.875a1.9,1.9,0,1,1,0-3.736h8.875a1.9,1.9,0,1,1,0,3.736Z" transform="translate(-314.708 -270.643)"/></g></g><ellipse class="c" cx="11.094" cy="9.341" rx="11.094" ry="9.341" transform="translate(66.563 37.364)"/><ellipse cx="2.219" cy="1.868" rx="2.219" ry="1.868" transform="translate(75.437 44.836)"/><path d="M90.969,55.5c0-6.182-5.971-11.209-13.312-11.209S64.344,49.321,64.344,55.5c0,5.543,4.808,10.146,11.094,11.041V81.657c0,3.09-2.986,5.6-6.656,5.6H66.563c-3.67,0-6.656-2.515-6.656-5.6V74.184c0-5.151-4.977-9.341-11.094-9.341H46.594c-6.117,0-11.094,4.19-11.094,9.341v7.473c0,3.09-2.986,5.6-6.656,5.6H26.625c-3.67,0-6.656-2.515-6.656-5.6V49.769C28.711,48.844,35.5,42.56,35.5,34.953V14.4c0-2.061-1.99-3.736-4.437-3.736H26.625a2.066,2.066,0,0,0-2.219,1.868A2.066,2.066,0,0,0,26.625,14.4h4.437V27.48c0,6.182-5.971,11.209-13.313,11.209S4.437,33.662,4.437,27.48V14.4H8.875a2.066,2.066,0,0,0,2.219-1.868,2.066,2.066,0,0,0-2.219-1.868H4.437C1.99,10.666,0,12.342,0,14.4v20.55C0,42.56,6.789,48.844,15.531,49.769V81.657c0,5.151,4.977,9.341,11.094,9.341h2.219c6.117,0,11.094-4.19,11.094-9.341V74.184c0-3.09,2.986-5.6,6.656-5.6h2.219c3.67,0,6.656,2.515,6.656,5.6v7.473c0,5.151,4.977,9.341,11.094,9.341h2.219c6.117,0,11.094-4.19,11.094-9.341V66.543C86.161,65.649,90.969,61.045,90.969,55.5ZM4.868,37.731A19.372,19.372,0,0,0,17.75,42.425a19.373,19.373,0,0,0,12.882-4.695c-1.473,4.839-6.683,8.431-12.882,8.431S6.341,42.569,4.868,37.731ZM77.656,62.975c-4.895,0-8.875-3.352-8.875-7.473s3.98-7.473,8.875-7.473,8.875,3.352,8.875,7.473S82.551,62.975,77.656,62.975Z" transform="translate(0 -8.798)"/></svg>