<svg xmlns="http://www.w3.org/2000/svg" width="29.8" height="26.6" viewBox="0 0 29.8 26.6"><defs><style>.a{fill:#e26777;}.b{fill:#186a7b;}</style></defs><g transform="translate(0 -80)"><g transform="translate(0 80)"><path class="a" d="M28.406,83.8H1.394C.625,83.8,0,82.913,0,81.9S.625,80,1.394,80H28.406c.769,0,1.394.887,1.394,1.9S29.175,83.8,28.406,83.8Z" transform="translate(0 -80)"/><path class="a" d="M28.406,227.8H1.394C.625,227.8,0,226.913,0,225.9S.625,224,1.394,224H28.406c.769,0,1.394.887,1.394,1.9S29.175,227.8,28.406,227.8Z" transform="translate(0 -212.6)"/><path class="a" d="M28.406,371.8H1.394C.625,371.8,0,370.913,0,369.9S.625,368,1.394,368H28.406c.769,0,1.394.887,1.394,1.9S29.175,371.8,28.406,371.8Z" transform="translate(0 -345.2)"/></g><g transform="translate(4.806 80)"><path class="b" d="M371.289,368H364.8l2.788,3.8h3.653c.769,0,1.394-.887,1.394-1.9C372.683,368.887,372.058,368,371.289,368Z" transform="translate(-347.689 -345.2)"/><path class="b" d="M237.444,224H222.4l2.788,3.8H237.4c.769,0,1.394-.887,1.394-1.9S238.213,224,237.444,224Z" transform="translate(-213.844 -212.6)"/><path class="b" d="M103.6,80H80l2.788,3.8h20.764c.769,0,1.394-.887,1.394-1.9C104.994,80.887,104.369,80,103.6,80Z" transform="translate(-80 -80)"/></g></g></svg>