<svg xmlns="http://www.w3.org/2000/svg" width="418.634" height="332.942" viewBox="0 0 418.634 332.942"><defs><style>.a{fill:#ebebeb;}.b{fill:#f5f5f5;}.c,.i,.j,.p{fill:#fff;}.d{fill:#fafafa;}.e{fill:#e0e0e0;}.f{fill:#f0f0f0;}.g,.n,.r,.s{fill:#ff4f5a;}.h{fill:#263238;}.i{opacity:0.3;}.j{opacity:0.1;}.k{fill:#ffb573;}.l{opacity:0.2;}.m{fill:#ed893e;}.n{opacity:0.4;}.o{opacity:0.6;}.p,.q{opacity:0.7;}.r{opacity:0.15;}.s{opacity:0.5;}</style></defs><g transform="translate(0 -55)"><g transform="translate(0 55)"><rect class="a" width="418.634" height="0.223" transform="translate(0 292.584)"/><rect class="a" width="27.73" height="0.223" transform="translate(348.957 306.963)"/><rect class="a" width="7.276" height="0.223" transform="translate(270.044 309.394)"/><rect class="a" width="39.913" height="0.223" transform="translate(308.207 298.67)"/><rect class="a" width="19.827" height="0.223" transform="translate(43.923 300.171)"/><rect class="a" width="21.643" height="0.223" transform="translate(71.201 300.171)"/><rect class="a" width="54.121" height="0.223" transform="translate(110.076 303.943)"/><path class="a" d="M204.651,307.727H42.982a4.95,4.95,0,0,1-4.772-5.1V60.058A4.947,4.947,0,0,1,42.982,55H204.651a4.95,4.95,0,0,1,4.781,5.1V302.624A4.95,4.95,0,0,1,204.651,307.727ZM42.982,55.179a4.734,4.734,0,0,0-4.563,4.879V302.624a4.734,4.734,0,0,0,4.563,4.879H204.651a4.742,4.742,0,0,0,4.571-4.879V60.058a4.742,4.742,0,0,0-4.572-4.879Z" transform="translate(-6.218 -55)"/><path class="a" d="M420.957,307.727H259.281a4.958,4.958,0,0,1-4.781-5.1V60.058A4.955,4.955,0,0,1,259.281,55H420.957a4.948,4.948,0,0,1,4.764,5.058V302.624A4.951,4.951,0,0,1,420.957,307.727ZM259.281,55.179a4.742,4.742,0,0,0-4.572,4.879V302.624a4.742,4.742,0,0,0,4.572,4.879H420.957a4.742,4.742,0,0,0,4.572-4.879V60.058a4.742,4.742,0,0,0-4.572-4.879Z" transform="translate(-41.415 -55)"/><rect class="a" width="132.263" height="269.349" transform="translate(237.315 23.235)"/><rect class="b" width="112.587" height="260.564" transform="translate(247.153 32.02)"/><rect class="c" width="31.657" height="9.339" transform="translate(287.627 53.629)"/><path class="c" d="M397.849,218.82h17.172a2.774,2.774,0,0,1,2.679,2.86h0a2.774,2.774,0,0,1-2.679,2.86H397.849a2.774,2.774,0,0,1-2.679-2.86h0A2.774,2.774,0,0,1,397.849,218.82Z" transform="translate(-64.307 -72.421)"/><rect class="a" width="87.963" height="75.666" transform="translate(58.927 51.895)"/><rect class="d" width="65.586" height="78.519" transform="translate(142.16 56.935) rotate(90)"/><rect class="e" width="3.137" height="60.208" transform="translate(133.008 87.454) rotate(90)"/><rect class="e" width="3.137" height="60.208" transform="translate(133.008 94.594) rotate(90)"/><rect class="e" width="3.137" height="60.208" transform="translate(133.008 101.725) rotate(90)"/><rect class="e" width="3.137" height="30.016" transform="translate(117.913 108.866) rotate(90)"/><path class="a" d="M84.292,118.11a10.109,10.109,0,0,1-2.7,6.929,8.863,8.863,0,0,1-6.509,2.839,8.634,8.634,0,0,1-4.722-1.4v-13.4H82.919a10.257,10.257,0,0,1,1.373,5.04Z" transform="translate(-11.45 -61.175)"/><path class="a" d="M172.744,113.07v13.4a8.723,8.723,0,0,1-11.188-1.463,10.266,10.266,0,0,1-1.371-11.942Z" transform="translate(-25.854 -61.175)"/><path class="a" d="M84.305,190.948A10.212,10.212,0,0,1,83,195.98H70.44v-13.4a8.663,8.663,0,0,1,9.216-.121,9.906,9.906,0,0,1,4.649,8.495Z" transform="translate(-11.463 -68.419)"/><path class="a" d="M172.744,182.563v13.4H160.185a10.126,10.126,0,0,1-1.315-5.031,9.916,9.916,0,0,1,4.654-8.507,8.671,8.671,0,0,1,9.228.124Z" transform="translate(-25.853 -68.416)"/><path class="e" d="M8.393.017a7.879,7.879,0,0,1,8.223,7.725,8.253,8.253,0,0,1-8.378,7.88A7.879,7.879,0,0,1,.015,7.9,8.253,8.253,0,0,1,8.393.017Z" transform="translate(93.857 79.871) rotate(-80.78)"/><rect class="a" width="174.051" height="6.685" transform="translate(43.923 185.122)"/><rect class="b" width="56.549" height="100.778" transform="translate(159.918 191.806)"/><rect class="b" width="56.549" height="100.778" transform="translate(46.075 191.806)"/><rect class="a" width="1.934" height="100.778" transform="translate(46.075 191.806)"/><rect class="a" width="1.934" height="100.778" transform="translate(159.918 191.806)"/><path class="f" d="M88.479,244.12H78.08l.837,16.113h8.724Z" transform="translate(-12.706 -75.111)"/><rect class="f" width="54.33" height="6.988" transform="translate(111.725 178.133)"/><rect class="d" width="25.051" height="5.353" transform="translate(141.013 178.955)"/></g><g transform="translate(46.979 367.709)"><ellipse class="b" cx="162.338" cy="10.116" rx="162.338" ry="10.116"/></g><g transform="translate(258.406 258.281)"><ellipse class="c" cx="26.525" cy="28.311" rx="26.525" ry="28.311" transform="translate(0.335 0.349)"/><path class="g" d="M335.49,339.789c-14.831,0-26.857-12.824-26.86-28.654s12.023-28.667,26.854-28.666,26.85,12.833,26.848,28.663-12.023,28.637-26.843,28.657Zm0-56.613c-14.47,0-26.2,12.521-26.2,27.966s11.731,27.961,26.2,27.96,26.2-12.521,26.2-27.966S349.953,283.186,335.49,283.176Z" transform="translate(-308.63 -282.47)"/><rect class="g" width="8.54" height="32.1" transform="translate(22.59 12.61)"/><rect class="g" width="9.115" height="30.075" transform="translate(41.897 24.111) rotate(90)"/></g><g transform="translate(98.613 65.045)"><path class="g" d="M126,74.131l-.569-.652A25.124,25.124,0,0,1,139.5,66.24l.117.894a24.3,24.3,0,0,0-13.622,7Z" transform="translate(-119.025 -66.24)"/><path class="g" d="M118.559,85.2l-.779-.322a28.064,28.064,0,0,1,3.349-6.381l.67.536a27.579,27.579,0,0,0-3.24,6.166Z" transform="translate(-117.78 -67.544)"/><ellipse class="g" cx="22.975" cy="24.522" rx="22.975" ry="24.522" transform="translate(1.164 2.851)"/><path class="c" d="M157.171,84.137a9.177,9.177,0,0,0-13.7-.134,9.169,9.169,0,0,0-13.689.134,10.975,10.975,0,0,0,.343,14.585l10.884,11.618a3.362,3.362,0,0,0,4.973,0l10.884-11.618A10.976,10.976,0,0,0,157.171,84.137Z" transform="translate(-119.309 -67.81)"/><path class="g" d="M143.232,106.553h0a.845.845,0,0,1-.762-.6l-4.848-15.13L135.6,97.152a.842.842,0,0,1-.8.6h-8.113a.9.9,0,0,1,0-1.787h7.535l2.629-8.195a.821.821,0,0,1,1.582,0l4.932,15.4,4.789-12.038a.842.842,0,0,1,.72-.545.827.827,0,0,1,.779.456l2.529,4.915h7.628a.9.9,0,0,1,0,1.787H151.7a.829.829,0,0,1-.737-.456L148.975,93.5,144,106.008A.838.838,0,0,1,143.232,106.553Z" transform="translate(-119.093 -68.465)"/></g><g transform="translate(116.797 74.932)"><path class="h" d="M279.858,351.8H192.473a9.967,9.967,0,0,1-7.607-3.467,11.411,11.411,0,0,1-2.742-8.329l14.125-223.415c.511-6.61,5.634-11.73,11.847-11.841h87.4a9.967,9.967,0,0,1,7.623,3.482,11.414,11.414,0,0,1,2.725,8.359L291.7,340.006C291.17,346.6,286.055,351.693,279.858,351.8Z" transform="translate(-146.43 -80.222)"/><path class="h" d="M321.009,200.691h-2.2a2.78,2.78,0,0,1-2.129-.972,3.184,3.184,0,0,1-.76-2.335l2.7-42.708a3.449,3.449,0,0,1,3.307-3.307h2.2a2.781,2.781,0,0,1,2.129.972,3.185,3.185,0,0,1,.76,2.335l-2.7,42.708A3.45,3.45,0,0,1,321.009,200.691Z" transform="translate(-168.205 -85.18)"/><path class="g" d="M196.592,172.207H194.4a2.275,2.275,0,0,1-1.736-.785,2.6,2.6,0,0,1-.633-1.9l.98-15.425a2.844,2.844,0,0,1,2.7-2.681h2.2a2.285,2.285,0,0,1,1.728.791,2.614,2.614,0,0,1,.633,1.89l-.98,15.425a2.835,2.835,0,0,1-2.7,2.681Z" transform="translate(-148.045 -85.185)"/><path class="g" d="M194.512,203.027h-2.2a2.276,2.276,0,0,1-1.731-.788,2.605,2.605,0,0,1-.63-1.893l.98-15.425a2.844,2.844,0,0,1,2.7-2.681h2.219a2.285,2.285,0,0,1,1.728.791,2.614,2.614,0,0,1,.633,1.89l-.98,15.425A2.834,2.834,0,0,1,194.512,203.027Z" transform="translate(-147.707 -88.463)"/><path class="g" d="M277.648,351.806H190.263a9.966,9.966,0,0,1-7.607-3.467,11.411,11.411,0,0,1-2.742-8.329L194.047,116.6c.529-6.613,5.672-11.719,11.889-11.805h87.352a9.967,9.967,0,0,1,7.61,3.47,11.412,11.412,0,0,1,2.738,8.335L289.5,340.01C288.968,346.6,283.849,351.7,277.648,351.806Z" transform="translate(-146.07 -80.227)"/><path class="i" d="M181.02,339.257l13.8-218.017H302.876l-13.8,218.017Z" transform="translate(-146.255 -81.976)"/><path class="j" d="M231.97,339.257,270.535,121.24H294.74L256.175,339.257Z" transform="translate(-154.546 -81.976)"/><path class="j" d="M210.13,339.257,248.695,121.24h12.266L222.4,339.257Z" transform="translate(-150.992 -81.976)"/><path class="c" d="M249.856,110.92H270.93a1.219,1.219,0,0,1,.94.426,1.4,1.4,0,0,1,.333,1.031h0a1.536,1.536,0,0,1-1.457,1.466H249.672a1.228,1.228,0,0,1-.94-.432,1.407,1.407,0,0,1-.332-1.034h0A1.526,1.526,0,0,1,249.856,110.92Z" transform="translate(-157.219 -80.878)"/><path class="k" d="M242.947,403.085l-7.385.751L232.9,385.65l7.385-.76Z" transform="translate(-154.697 -110.012)"/><path class="h" d="M232.81,401.471l7.736-2.565a.535.535,0,0,1,.687.34l2.512,6.551a1.441,1.441,0,0,1-.051,1.09,1.3,1.3,0,0,1-.786.7c-2.8.894-5.459,1.1-8.833,2.681-3.944,1.787-5.593,4.182-9.838,4.182-3.039,0-3.726-2.976-2.436-3.387,5.861-1.895,5.091-3.45,9.344-8.338A3.931,3.931,0,0,1,232.81,401.471Z" transform="translate(-152.79 -111.499)"/><path class="l" d="M232.9,385.65l1.373,9.383,7.393-.76-1.373-9.383Z" transform="translate(-154.697 -110.012)"/><path class="c" d="M232.253,128.532a88.078,88.078,0,0,0-28.995,1.6,8.056,8.056,0,0,0-6.2,7.149c-1.047,9.884-2.244,32.038,2.428,65.085l39.586-3.575c.075-6-3.918-33.316-.62-61.663a7.95,7.95,0,0,0-1.4-5.694A7,7,0,0,0,232.253,128.532Z" transform="translate(-148.709 -82.691)"/><path class="h" d="M211.75,137.931l1.415,3.021a.837.837,0,0,0,.745.518l1.532.089a1.138,1.138,0,0,0,.762-.25l2.637-2.1-3.257-2.529Z" transform="translate(-151.256 -83.618)"/><path class="h" d="M215.338,141.14a2.43,2.43,0,0,0-1.783-.152c-1.248,4.692-2.612,18.159-2.755,24.129,3.784,11.77,5.024,12.958,5.024,12.958l1.917-14.165S215.589,149.424,215.338,141.14Z" transform="translate(-151.101 -84.065)"/><path class="k" d="M226.185,105.8c-.9,5.827-1.675,16.47,2.244,20.232-2.872,3.217-6.631,6.944-13.078,7.364s-5.451-4.343-3.818-6.89c6.02-1.716,5.727-6.506,4.546-10.983Z" transform="translate(-151.022 -80.334)"/><path class="b" d="M231.049,127.809a7.684,7.684,0,0,0-1.415-.492.547.547,0,0,0-.628.277c-.62,1.126-2.512,6.157-12.676,8.088,1.675,1.055,3.893,4.325,4.848,5.9,3.048-1.689,10.977-6.738,10.223-13.271A.658.658,0,0,0,231.049,127.809Z" transform="translate(-152.001 -82.62)"/><path class="b" d="M210.933,129.179a.654.654,0,0,0-.152-.574.563.563,0,0,0-.534-.176,7.474,7.474,0,0,0-1.038.295.826.826,0,0,0-.218.134c-.779.769-5.024,7.31-1.047,12.6.837-1.439,3.726-4.7,6.748-5.657C211.829,134.425,210.422,131.86,210.933,129.179Z" transform="translate(-150.363 -82.739)"/><path class="l" d="M223.188,110.24,217.21,116a19.522,19.522,0,0,1,.6,3.181c2.311-.42,5.417-3.217,5.585-5.809A9.025,9.025,0,0,0,223.188,110.24Z" transform="translate(-152.144 -80.806)"/><path class="h" d="M213.8,86.025c-5.158,2.154-5.492,6.676-5.024,11.618s5.509,1.671,6.631-1.421S220.946,83.04,213.8,86.025Z" transform="translate(-150.747 -78.173)"/><path class="k" d="M230.234,95.6c-1.432,7.784-1.909,12.4-6.079,15.988-6.288,5.362-14.8.733-15.556-7.292-.678-7.23,1.775-18.767,9.285-21.019a9.37,9.37,0,0,1,9.473,2.4,10.925,10.925,0,0,1,2.877,9.927Z" transform="translate(-150.725 -77.894)"/><path class="h" d="M229.6,101.456c-6.137.349-4.839-3.369-3.726-5.5s-1.155-5.666.327-7.5c-2.646,1.126-5.434.2-8.976-2.431-2.746-2.046-6.187,6.131-9.536,2.029-3.165-3.87-.226-9.705,7.376-10.643s8.984,4.8,13.974,4.29,3.257,3.878,2.277,4.772C235.5,86.764,237.785,91.036,229.6,101.456Z" transform="translate(-150.39 -77.304)"/><path class="h" d="M235,87.49a6.637,6.637,0,0,0,3.19-5.71C239.848,84.881,239.672,88.4,235,87.49Z" transform="translate(-155.039 -77.78)"/><path class="h" d="M215.824,106.268a4.782,4.782,0,0,0,3.835-.965.187.187,0,0,0,0-.259.168.168,0,0,0-.243,0,4.58,4.58,0,0,1-4.262.706.187.187,0,0,0-.109.357,4.183,4.183,0,0,0,.779.161Z" transform="translate(-151.772 -80.248)"/><path class="k" d="M234.8,106.341a7.05,7.05,0,0,1-4.68,2.878c-2.436.34-3.249-2.082-2.227-4.343.929-2.038,3.349-4.665,5.593-3.959S236.21,104.374,234.8,106.341Z" transform="translate(-153.813 -79.802)"/><path class="h" d="M227.942,286.98c.293-23.333,3.09-78.91,3.09-78.91l-30.862,2.779s6.137,57.275,9.838,81.082c3.851,24.745,15.665,82.717,15.665,82.717l12.559-1.144S233.644,305.023,227.942,286.98Z" transform="translate(-149.371 -91.209)"/><path class="g" d="M229.494,394.109l14.9-1.349-.586-5.13-15.523,1.108Z" transform="translate(-153.946 -110.304)"/><path class="h" d="M221.047,97.492c-.075.634-.461,1.117-.837,1.072s-.636-.6-.553-1.242.46-1.117.837-1.072S221.131,96.857,221.047,97.492Z" transform="translate(-152.54 -79.318)"/><path class="h" d="M212.887,96.853c-.075.643-.46,1.117-.837,1.072s-.636-.6-.553-1.233.46-1.117.837-1.072S212.971,96.183,212.887,96.853Z" transform="translate(-151.212 -79.251)"/><path class="m" d="M214.76,97.84a21.851,21.851,0,0,1-3.6,4.468,3.462,3.462,0,0,0,2.721.724Z" transform="translate(-151.16 -79.488)"/><path class="n" d="M208,97.18c-.126,1.019.837,1.868,2.169,2.046a2.271,2.271,0,0,0,2.679-1.618" transform="translate(-150.643 -79.417)"/><path class="n" d="M217.445,98.24c-.184,1.01.745,1.921,2.051,2.189a2.262,2.262,0,0,0,2.763-1.448" transform="translate(-152.179 -79.53)"/><path class="h" d="M218.441,100.581a3.836,3.836,0,0,1-.452,0,3.092,3.092,0,0,1-1.733-.831,1.923,1.923,0,0,1-.6-1.582,3.973,3.973,0,0,0-1.34-.357,2.743,2.743,0,0,0-1.415,0c-.117,1.09-1.39,1.841-2.813,1.653a3.025,3.025,0,0,1-1.733-.822,1.941,1.941,0,0,1-.6-1.582l.4.054a1.486,1.486,0,0,0,.477,1.215,2.633,2.633,0,0,0,1.507.706,1.953,1.953,0,0,0,2.386-1.323c.059-.5,1.03-.465,1.834-.357s1.758.349,1.675.84a1.477,1.477,0,0,0,.477,1.215,2.737,2.737,0,0,0,3.14.429,1.42,1.42,0,0,0,.754-1.046v-.214L230.732,100l-.05.429-9.947-1.367a1.892,1.892,0,0,1-.921,1.153A2.808,2.808,0,0,1,218.441,100.581Z" transform="translate(-150.603 -79.405)"/><path class="h" d="M223.934,94.209a.288.288,0,0,0,.167-.054.4.4,0,0,0,.134-.518,3.351,3.351,0,0,0-2.629-1.877.377.377,0,0,0-.05.751h0a2.7,2.7,0,0,1,2.068,1.519.339.339,0,0,0,.31.179Z" transform="translate(-152.798 -78.841)"/><path class="h" d="M210.46,93.122a.349.349,0,0,0,.31-.134,2.794,2.794,0,0,1,2.311-1.2.337.337,0,0,0,.259-.084.407.407,0,0,0,.056-.528.338.338,0,0,0-.231-.138,3.517,3.517,0,0,0-2.93,1.475.393.393,0,0,0,.042.527A.413.413,0,0,0,210.46,93.122Z" transform="translate(-150.996 -78.764)"/><path class="h" d="M255.533,283.121c-6.405-35.139-7.845-62.619-13.924-75.961l-29.9,3.575s17.809,52.359,26.508,74.71c9.034,23.235,26.868,62.931,26.868,62.931h14.937S266.082,299.127,255.533,283.121Z" transform="translate(-151.249 -91.113)"/><path class="k" d="M149.011,143l-3.232-2.181a2.572,2.572,0,0,0-3.4.42l-2.194,2.467a2.789,2.789,0,0,0-.684,2,2.746,2.746,0,0,0,.9,1.9l1.566,1.43a12.538,12.538,0,0,0,4.664,2.681l4.731,1.492,3.106-3.575C155.416,145.909,149.011,143,149.011,143Z" transform="translate(-139.498 -84.009)"/><path class="g" d="M198.158,140.906c-1.172,3.056-2.319,5.9-3.567,8.8s-2.512,5.773-3.91,8.624-2.889,5.684-4.58,8.526a49.125,49.125,0,0,1-2.822,4.245,26.421,26.421,0,0,1-3.851,4.263,13.71,13.71,0,0,1-3.09,2.038c-.352.143-.678.286-1.063.411l-.586.17a6.592,6.592,0,0,1-.9.17,7.861,7.861,0,0,1-3.048-.232,12.052,12.052,0,0,1-3.5-1.707,20.2,20.2,0,0,1-2.3-1.787,57.245,57.245,0,0,1-6.656-7.391c-1.951-2.5-3.793-5.013-5.559-7.578s-3.466-5.085-5.208-7.775l9.26-6.381a133.534,133.534,0,0,0,9.679,14.433,47.394,47.394,0,0,0,5.333,5.889,10.555,10.555,0,0,0,1.181.894c.31.223.62.313.4.232a2.013,2.013,0,0,0-.9-.054,1.884,1.884,0,0,0-.36.072h-.117a5.111,5.111,0,0,0,.544-.438,16.17,16.17,0,0,0,2.068-2.449c.712-1.019,1.423-2.163,2.1-3.351a83.99,83.99,0,0,0,3.784-7.632c1.172-2.681,2.3-5.362,3.349-8.15s2.043-5.621,2.889-8.329Z" transform="translate(-140.803 -83.59)"/><g class="o" transform="translate(6.717 52.83)"><path class="c" d="M198.158,140.906c-1.172,3.056-2.319,5.9-3.567,8.8s-2.512,5.773-3.91,8.624-2.889,5.684-4.58,8.526a49.125,49.125,0,0,1-2.822,4.245,26.421,26.421,0,0,1-3.851,4.263,13.71,13.71,0,0,1-3.09,2.038c-.352.143-.678.286-1.063.411l-.586.17a6.592,6.592,0,0,1-.9.17,7.861,7.861,0,0,1-3.048-.232,12.052,12.052,0,0,1-3.5-1.707,20.2,20.2,0,0,1-2.3-1.787,57.245,57.245,0,0,1-6.656-7.391c-1.951-2.5-3.793-5.013-5.559-7.578s-3.466-5.085-5.208-7.775l9.26-6.381a133.534,133.534,0,0,0,9.679,14.433,47.394,47.394,0,0,0,5.333,5.889,10.555,10.555,0,0,0,1.181.894c.31.223.62.313.4.232a2.013,2.013,0,0,0-.9-.054,1.884,1.884,0,0,0-.36.072h-.117a5.111,5.111,0,0,0,.544-.438,16.17,16.17,0,0,0,2.068-2.449c.712-1.019,1.423-2.163,2.1-3.351a83.99,83.99,0,0,0,3.784-7.632c1.172-2.681,2.3-5.362,3.349-8.15s2.043-5.621,2.889-8.329Z" transform="translate(-147.52 -136.42)"/></g><path class="g" d="M227.546,126.076c-3.14,6.256-14.317,30.09-15.674,44.8-4.948-13.4-3.868-43.057-3.868-43.057a35.285,35.285,0,0,0-10.273,2.681,6.6,6.6,0,0,0-3.826,5.594,249.856,249.856,0,0,0,1.356,46c3.475,28.865,6.7,73.754,6.7,73.754s27.672-1.233,49.022-6.041c-2.6-22.064-11.512-59.044-11.6-68.946-.1-12.744.176-37.659.553-48.061a6.093,6.093,0,0,0-4.622-6.318A27.149,27.149,0,0,0,227.546,126.076Z" transform="translate(-148.272 -82.478)"/><path class="p" d="M227.546,126.076c-3.14,6.256-14.317,30.09-15.674,44.8-4.948-13.4-3.868-43.057-3.868-43.057a35.285,35.285,0,0,0-10.273,2.681,6.6,6.6,0,0,0-3.826,5.594,249.856,249.856,0,0,0,1.356,46c3.475,28.865,6.7,73.754,6.7,73.754s27.672-1.233,49.022-6.041c-2.6-22.064-11.512-59.044-11.6-68.946-.1-12.744.176-37.668.553-48.07a6.018,6.018,0,0,0-4.362-6.256,26.948,26.948,0,0,0-8.029-.456Z" transform="translate(-148.272 -82.478)"/><path class="c" d="M224.655,257.036c-4.806-28.3-8.615-69.831-8.925-74.826h.427c.31,5,4.128,46.47,8.925,74.773Z" transform="translate(-151.903 -88.459)"/><path class="c" d="M216.471,204.1h-25.52a2.431,2.431,0,0,1-2.21-1.939l-8.532-42.333a1.6,1.6,0,0,1,.247-1.358,1.389,1.389,0,0,1,1.176-.581h25.512a2.43,2.43,0,0,1,2.219,1.939l8.532,42.333a1.6,1.6,0,0,1-.247,1.358A1.389,1.389,0,0,1,216.471,204.1Z" transform="translate(-146.114 -85.873)"/><path class="g" d="M215.4,204.407H189.444a2.482,2.482,0,0,1-2.252-1.975l-8.682-43.048a1.638,1.638,0,0,1,.258-1.383,1.422,1.422,0,0,1,1.2-.592h25.955a2.482,2.482,0,0,1,2.252,1.975l8.674,43.048a1.629,1.629,0,0,1-.251,1.383,1.414,1.414,0,0,1-1.2.592Z" transform="translate(-145.837 -85.822)"/><path class="k" d="M223.475,182.789l-6.455-.259a5.226,5.226,0,0,0-2.269.429l-3.349,1.43a2.6,2.6,0,0,0-1.4,1.476,2.847,2.847,0,0,0,.026,2.1l1.34,3.092a2.663,2.663,0,0,0,3.1,1.555l3.692-.983s6.933-.59,7.184-4.468Z" transform="translate(-150.941 -88.493)"/><path class="g" d="M243.389,130.38c1.6,2.681,3.064,5.13,4.5,7.757s2.855,5.228,4.186,7.945,2.6,5.523,3.743,8.525a45.484,45.484,0,0,1,1.524,4.817,21.47,21.47,0,0,1,.737,6.139v.349q0,.089,0,.179a5.482,5.482,0,0,1-.142.965c-.059.322-.134.572-.218.894a6.429,6.429,0,0,1-.268.742,10.136,10.136,0,0,1-1.222,2.163,15.14,15.14,0,0,1-2.319,2.466,30.4,30.4,0,0,1-4.186,2.958,77.653,77.653,0,0,1-7.971,4.057c-2.637,1.2-5.266,2.288-7.912,3.315s-5.25,2.02-8,3l-3.19-11.26c2.512-.733,5.074-1.635,7.577-2.547s5.024-1.93,7.4-2.994a63.547,63.547,0,0,0,6.815-3.512,19.62,19.62,0,0,0,2.654-1.886,3.3,3.3,0,0,0,.586-.617.97.97,0,0,0-.167.295.611.611,0,0,1-.084.232,2.237,2.237,0,0,0-.075.322,2.308,2.308,0,0,0-.067.42v-.018a11.136,11.136,0,0,0-.461-2.493,33.658,33.658,0,0,0-1.189-3.441,71.664,71.664,0,0,0-3.466-7.212c-1.306-2.4-2.7-4.79-4.186-7.149s-3.014-4.71-4.546-6.854Z" transform="translate(-153.029 -82.948)"/><g class="q" transform="translate(69.621 47.432)"><path class="c" d="M243.389,130.38c1.6,2.681,3.064,5.13,4.5,7.757s2.855,5.228,4.186,7.945,2.6,5.523,3.743,8.525a45.484,45.484,0,0,1,1.524,4.817,21.47,21.47,0,0,1,.737,6.139v.349q0,.089,0,.179a5.482,5.482,0,0,1-.142.965c-.059.322-.134.572-.218.894a6.429,6.429,0,0,1-.268.742,10.136,10.136,0,0,1-1.222,2.163,15.14,15.14,0,0,1-2.319,2.466,30.4,30.4,0,0,1-4.186,2.958,77.653,77.653,0,0,1-7.971,4.057c-2.637,1.2-5.266,2.288-7.912,3.315s-5.25,2.02-8,3l-3.19-11.26c2.512-.733,5.074-1.635,7.577-2.547s5.024-1.93,7.4-2.994a63.547,63.547,0,0,0,6.815-3.512,19.62,19.62,0,0,0,2.654-1.886,3.3,3.3,0,0,0,.586-.617.97.97,0,0,0-.167.295.611.611,0,0,1-.084.232,2.237,2.237,0,0,0-.075.322,2.308,2.308,0,0,0-.067.42v-.018a11.136,11.136,0,0,0-.461-2.493,33.658,33.658,0,0,0-1.189-3.441,71.664,71.664,0,0,0-3.466-7.212c-1.306-2.4-2.7-4.79-4.186-7.149s-3.014-4.71-4.546-6.854Z" transform="translate(-222.65 -130.38)"/></g><path class="h" d="M235.022,161.716a.323.323,0,0,1-.276-.17.368.368,0,0,1-.048-.269.349.349,0,0,1,.148-.223l1.306-.894a7.816,7.816,0,0,0,3.182-7.918L236.7,138.034a4.607,4.607,0,0,0-4.233-3.891,4.544,4.544,0,0,0-4.525,3.5l-3.726,13.932a7.864,7.864,0,0,0,2.512,8.168l1.239,1a.374.374,0,0,1,.059.5.323.323,0,0,1-.218.134.312.312,0,0,1-.242-.071l-1.172-.992a8.612,8.612,0,0,1-2.788-8.937l3.734-13.932a5.218,5.218,0,0,1,5.188-3.992,5.289,5.289,0,0,1,4.859,4.438l2.629,14.218a8.533,8.533,0,0,1-3.475,8.651l-1.315.894a.264.264,0,0,1-.209.063Z" transform="translate(-153.135 -83.274)"/><path class="h" d="M237.811,138.775h0l-9.4-.42a.327.327,0,0,1-.232-.117.372.372,0,0,1-.086-.258.361.361,0,0,1,.352-.34l9.394.42a.327.327,0,0,1,.232.117.372.372,0,0,1,.086.258.359.359,0,0,1-.1.247A.315.315,0,0,1,237.811,138.775Z" transform="translate(-153.915 -83.72)"/><path class="h" d="M233.725,133.463a.355.355,0,0,1-.335-.349c0-1.787-.519-4.888-2.085-5.568a.352.352,0,0,1-.224-.282.369.369,0,0,1,.13-.343.318.318,0,0,1,.345-.036c2.319,1.019,2.512,5.684,2.512,6.256a.357.357,0,0,1-.326.366Z" transform="translate(-154.401 -82.573)"/><path class="h" d="M199.825,145.657h-.067a.358.358,0,0,1-.26-.42c1.105-5.871,5.677-15.139,9.7-17.873a.309.309,0,0,1,.249-.043.329.329,0,0,1,.2.159.358.358,0,0,1,.047.264.339.339,0,0,1-.148.218c-3.893,2.627-8.331,11.618-9.4,17.4A.342.342,0,0,1,199.825,145.657Z" transform="translate(-149.261 -82.621)"/><path class="c" d="M202.508,148.474c-.519,1.421-1.675,2.279-2.512,1.912s-1.164-1.787-.645-3.244,1.675-2.279,2.512-1.9S203.035,147.053,202.508,148.474Z" transform="translate(-149.197 -84.518)"/><path class="c" d="M229.278,164.212c0,.661-.385,1.189-.8,1.171s-.728-.572-.7-1.242.385-1.2.8-1.171S229.3,163.542,229.278,164.212Z" transform="translate(-153.864 -86.413)"/><path class="c" d="M237.9,164.572c0,.661-.377,1.189-.8,1.171s-.72-.572-.695-1.242.377-1.189.837-1.171S237.925,163.929,237.9,164.572Z" transform="translate(-155.268 -86.452)"/></g><g transform="translate(226.138 124.866)"><path class="g" d="M405.086,148.971l-.837-.054a14.346,14.346,0,0,0-3.427-10.465,12.531,12.531,0,0,0-9.542-4.379v-.894a13.336,13.336,0,0,1,10.155,4.656,15.267,15.267,0,0,1,3.651,11.135Z" transform="translate(-289.811 -133.179)"/><path class="g" d="M0,.037,7.419.006l0,.837L0,.874Z" transform="translate(115.195 26.94) rotate(-85.996)"/><path class="g" d="M377.521,136.68H319.749c-6.537.115-11.925,5.5-12.459,12.458l-.527,8.3a12.02,12.02,0,0,0,2.87,8.79,10.5,10.5,0,0,0,8.015,3.668h57.772l11.2,7.373,1.775-28.132a12.011,12.011,0,0,0-2.864-8.789A10.489,10.489,0,0,0,377.521,136.68Z" transform="translate(-276.052 -133.552)"/><rect class="c" width="53.51" height="2.073" transform="translate(45.028 15.023)"/><rect class="c" width="39.728" height="2.073" transform="translate(58.341 22.378)"/><path class="c" d="M284.65,186.38h59.044a10.724,10.724,0,0,1,8.2,3.747,12.281,12.281,0,0,1,2.931,8.987l-.536,8.49c-.55,7.106-6.055,12.612-12.735,12.735H282.5L270.09,227.89l1.825-28.776C272.461,192.006,277.969,186.5,284.65,186.38Z" transform="translate(-270.09 -138.837)"/><path class="r" d="M284.65,186.38h59.044a10.724,10.724,0,0,1,8.2,3.747,12.281,12.281,0,0,1,2.931,8.987l-.536,8.49c-.55,7.106-6.055,12.612-12.735,12.735H282.5L270.09,227.89l1.825-28.776C272.461,192.006,277.969,186.5,284.65,186.38Z" transform="translate(-270.09 -138.837)"/><rect class="s" width="54.724" height="2.127" transform="translate(15.883 59.706)"/><rect class="s" width="21.627" height="2.127" transform="translate(15.406 67.222)"/><rect class="s" width="13.815" height="2.127" transform="translate(42.332 67.222)"/></g></g></svg>