<svg xmlns="http://www.w3.org/2000/svg" width="35.079" height="36.589" viewBox="0 0 35.079 36.589"><defs><style>.a{fill:#fff;}.b{fill:#e26777;}</style></defs><path class="a" d="M32.989,76.617H13.855a3.26,3.26,0,0,1-3.189-3.326V56.659a3.26,3.26,0,0,1,3.189-3.326H32.989a3.26,3.26,0,0,1,3.189,3.326V73.291A3.26,3.26,0,0,1,32.989,76.617Z" transform="translate(-9.869 -49.175)"/><ellipse class="b" cx="6.378" cy="6.652" rx="6.378" ry="6.652" transform="translate(7.175 9.147)"/><g transform="translate(26.31 7.484)"><rect class="a" width="3.189" height="28.273" transform="translate(4.784)"/><rect class="a" width="4.784" height="3.326"/><rect class="a" width="4.784" height="3.326" transform="translate(0 13.305)"/></g><path d="M92.508,121.635a7.491,7.491,0,1,1,7.175-7.484A7.343,7.343,0,0,1,92.508,121.635Zm0-13.305a5.826,5.826,0,1,0,5.581,5.821A5.712,5.712,0,0,0,92.508,108.33Z" transform="translate(-78.955 -98.351)"/><path class="a" d="M139.312,157.162h-1.2v-1.247a1.2,1.2,0,1,0-2.392,0v1.247h-1.2a1.248,1.248,0,0,0,0,2.495h1.2V160.9a1.2,1.2,0,1,0,2.392,0v-1.247h1.2a1.248,1.248,0,0,0,0-2.495Z" transform="translate(-123.367 -142.609)"/><path class="b" d="M419.189,17.319H416V12.33a1.629,1.629,0,0,1,1.594-1.663h0a1.629,1.629,0,0,1,1.595,1.663v4.989Z" transform="translate(-384.907 -9.835)"/><path d="M32.688,0A2.448,2.448,0,0,0,30.3,2.495V6.652h-3.27A4.04,4.04,0,0,0,23.12,3.326H3.986A4.079,4.079,0,0,0,0,7.484V24.115a4.079,4.079,0,0,0,3.986,4.158H23.12a4.04,4.04,0,0,0,3.906-3.326H30.3v10.81a.814.814,0,0,0,.8.832h3.189a.814.814,0,0,0,.8-.832V2.495A2.448,2.448,0,0,0,32.688,0Zm-.8,2.495a.8.8,0,1,1,1.594,0V6.652H31.89Zm-4.784,9.147H30.3v8.316H27.107ZM30.3,9.979H27.107V8.316H30.3ZM23.12,26.61H3.986a2.448,2.448,0,0,1-2.392-2.495V7.484A2.448,2.448,0,0,1,3.986,4.989H23.12a2.448,2.448,0,0,1,2.392,2.495V24.115A2.448,2.448,0,0,1,23.12,26.61Zm3.986-3.326V21.621H30.3v1.663Zm6.378,11.642H31.89V8.316h1.594Z"/></svg>