<svg xmlns="http://www.w3.org/2000/svg" width="16.743" height="19.97" viewBox="0 0 16.743 19.97"><defs><style>.a{fill:#616161;}.b{fill:#37474f;}.c{fill:#186a7b;}.d{fill:#bbdefb;}</style></defs><g transform="translate(0 0)"><path class="a" d="M.465.088l1.8-.2L1.423,7.53l-1.8.2Z" transform="translate(9.68 14.228) rotate(-45)"/><ellipse class="a" cx="6.401" cy="7.981" rx="6.401" ry="7.981"/></g><path class="b" d="M.335.094l1.8-.2L1.525,5.424l-1.8.2Z" transform="translate(11.077 15.802) rotate(-45)"/><ellipse class="c" cx="5.201" cy="6.484" rx="5.201" ry="6.484" transform="translate(1.2 1.496)"/><path class="d" d="M18.468,12.6a3.381,3.381,0,0,0-2.76-1.6,3.381,3.381,0,0,0-2.76,1.6.566.566,0,0,0,.04.7.338.338,0,0,0,.56-.05A2.646,2.646,0,0,1,15.708,12a2.646,2.646,0,0,1,2.16,1.247.467.467,0,0,0,.32.2.377.377,0,0,0,.24-.1A.721.721,0,0,0,18.468,12.6Z" transform="translate(-9.307 -7.508)"/></svg>