<svg xmlns="http://www.w3.org/2000/svg" width="17.236" height="26.403" viewBox="0 0 17.236 26.403"><defs><style>.a{fill:#fff;}.b{fill:#e26777;}.c{fill:#79adbb;}</style></defs><g transform="translate(0)"><path class="a" d="M98.462,35.869A2.432,2.432,0,0,1,96,33.469v-20.4a2.432,2.432,0,0,1,2.462-2.4h11.081a2.432,2.432,0,0,1,2.462,2.4v20.4a2.432,2.432,0,0,1-2.462,2.4Z" transform="translate(-95.384 -10.066)"/><ellipse cx="0.769" cy="0.75" rx="0.769" ry="0.75" transform="translate(7.849 22.653)"/><rect class="b" width="16.005" height="15.602" transform="translate(0.616 4.801)"/><path d="M99.492,0H88.412a3.043,3.043,0,0,0-3.078,3V23.4a3.043,3.043,0,0,0,3.078,3H99.492a3.043,3.043,0,0,0,3.078-3V3A3.043,3.043,0,0,0,99.492,0ZM88.412,1.2H99.492A1.826,1.826,0,0,1,101.339,3V4.2H86.565V3A1.826,1.826,0,0,1,88.412,1.2Zm12.927,18.6H86.565V5.4h14.774Zm-1.847,5.4H88.412a1.826,1.826,0,0,1-1.847-1.8V21h14.774v2.4A1.826,1.826,0,0,1,99.492,25.2Z" transform="translate(-85.334)"/><ellipse class="c" cx="4.925" cy="4.801" rx="4.925" ry="4.801" transform="translate(3.694 7.801)"/><path d="M144.207,138.8a5.4,5.4,0,1,1,5.54-5.4A5.478,5.478,0,0,1,144.207,138.8Zm0-9.6a4.2,4.2,0,1,0,4.309,4.2A4.261,4.261,0,0,0,144.207,129.2Z" transform="translate(-135.589 -120.799)"/><path class="a" d="M191.284,177.8h-.923v-.9a.924.924,0,0,0-1.847,0v.9h-.923a.9.9,0,1,0,0,1.8h.923v.9a.924.924,0,0,0,1.847,0v-.9h.923a.9.9,0,1,0,0-1.8Z" transform="translate(-180.819 -166.099)"/></g></svg>