<svg xmlns="http://www.w3.org/2000/svg" width="43" height="39.6" viewBox="0 0 43 39.6"><defs><style>.a{fill:#186a7b;}</style></defs><path class="a" d="M28.464,10.976a6.92,6.92,0,0,1,1.87,5.9c-.561,4.132-3.833,5.6-6.73,5.6H23.37V23.5a1.876,1.876,0,0,1-3.739,0V22.124c0-1.42.654-3.1,3.973-3.1a2.662,2.662,0,0,0,2.991-2.583,3.768,3.768,0,0,0-.982-3.185,5.858,5.858,0,0,0-4.3-1.377c-4.207,0-4.347,2.54-4.347,2.8a1.876,1.876,0,0,1-3.739,0c0-1.722,1.449-6.241,8.086-6.241C25.192,8.437,27.342,9.814,28.464,10.976Zm-7.1,15.711a2.286,2.286,0,0,0-1.636.646,2.112,2.112,0,0,0-.7,1.507,1.947,1.947,0,0,0,.7,1.507,2.483,2.483,0,0,0,1.636.646A2.286,2.286,0,0,0,23,30.346a2.112,2.112,0,0,0,.7-1.507,1.947,1.947,0,0,0-.7-1.507A2.392,2.392,0,0,0,21.36,26.687ZM43,19.8c0,10.933-9.628,19.8-21.5,19.8S0,30.733,0,19.8,9.628,0,21.5,0,43,8.867,43,19.8Zm-3.739,0c0-9.039-7.946-16.357-17.761-16.357S3.739,10.761,3.739,19.8,11.685,36.157,21.5,36.157,39.261,28.839,39.261,19.8Z"/></svg>